G04 --- HEADER BEGIN --- *
G04 #@! TF.GenerationSoftware,LibrePCB,LibrePCB,1.1.0*
G04 #@! TF.CreationDate,2024-10-30T11:24:38*
G04 #@! TF.ProjectId,encoder diff driver board,5e1d4796-0e95-4f90-a33b-98ba50815d50,v1*
G04 #@! TF.Part,Single*
G04 #@! TF.SameCoordinates*
G04 #@! TF.FileFunction,Copper,L1,Top*
G04 #@! TF.FilePolarity,Positive*
%FSLAX66Y66*%
%MOMM*%
G01*
G75*
G04 --- HEADER END --- *
G04 --- APERTURE LIST BEGIN --- *
G04 #@! TA.AperFunction,ComponentPad*
%ADD10O,2.5X1.3*%
%ADD11O,2.19X1.587*%
%ADD12R,2.19X1.587*%
%ADD13O,1.587X2.19*%
%ADD14R,1.587X2.19*%
%ADD15R,3.0X3.0*%
G04 #@! TA.AperFunction,Conductor*
%ADD16C,0.5*%
%ADD17C,0.01*%
G04 #@! TD*
G04 --- APERTURE LIST END --- *
G04 --- BOARD BEGIN --- *
D10*
G04 #@! TO.N,+5V*
G04 #@! TO.C,MODULE2*
G04 #@! TO.P,MODULE2,DE,DE*
X-14995000Y-3800000D03*
G04 #@! TO.P,MODULE2,RE,RE*
X-14995000Y-1280000D03*
G04 #@! TO.N,N/C*
G04 #@! TO.P,MODULE2,RO,RO*
X-14995000Y1280000D03*
G04 #@! TO.N,B-*
G04 #@! TO.P,MODULE2,A,A*
X26425000Y-3820000D03*
G04 #@! TO.N,GND*
G04 #@! TO.P,MODULE2,GND,GND*
X26425000Y-6360000D03*
G04 #@! TO.N,B+*
G04 #@! TO.P,MODULE2,B,B*
X26425000Y-1260000D03*
G04 #@! TO.N,ENC_B*
G04 #@! TO.P,MODULE2,DI,DI*
X-14995000Y-6360000D03*
G04 #@! TO.N,+5V*
G04 #@! TO.P,MODULE2,VCC,VCC*
X26425000Y1280000D03*
D11*
G04 #@! TO.N,Z+*
G04 #@! TO.C,J4*
G04 #@! TO.P,J4,8,8*
X33020000Y-635000D03*
G04 #@! TO.N,B+*
G04 #@! TO.P,J4,5,5*
X33020000Y6985000D03*
G04 #@! TO.N,N/C*
G04 #@! TO.P,J4,6,6*
X33020000Y4445000D03*
D12*
G04 #@! TO.N,A-*
G04 #@! TO.P,J4,1,1*
X33020000Y17145000D03*
D11*
G04 #@! TO.N,A+*
G04 #@! TO.P,J4,2,2*
X33020000Y14605000D03*
G04 #@! TO.N,Z-*
G04 #@! TO.P,J4,7,7*
X33020000Y1905000D03*
G04 #@! TO.N,GND*
G04 #@! TO.P,J4,3,3*
X33020000Y12065000D03*
G04 #@! TO.N,B-*
G04 #@! TO.P,J4,4,4*
X33020000Y9525000D03*
D13*
G04 #@! TO.N,ENC_B*
G04 #@! TO.C,J11*
G04 #@! TO.P,J11,2,2*
X-3810000Y26670000D03*
G04 #@! TO.N,ENC_A*
G04 #@! TO.P,J11,3,3*
X-6350000Y26670000D03*
G04 #@! TO.N,GND*
G04 #@! TO.P,J11,4,4*
X-8890000Y26670000D03*
D14*
G04 #@! TO.N,+24V*
G04 #@! TO.P,J11,1,1*
X-1270000Y26670000D03*
D10*
G04 #@! TO.N,+5V*
G04 #@! TO.C,MODULE3*
G04 #@! TO.P,MODULE3,DE,DE*
X-14995000Y-17770000D03*
G04 #@! TO.P,MODULE3,RE,RE*
X-14995000Y-15250000D03*
G04 #@! TO.N,N/C*
G04 #@! TO.P,MODULE3,RO,RO*
X-14995000Y-12690000D03*
G04 #@! TO.N,Z-*
G04 #@! TO.P,MODULE3,A,A*
X26425000Y-17790000D03*
G04 #@! TO.N,GND*
G04 #@! TO.P,MODULE3,GND,GND*
X26425000Y-20330000D03*
G04 #@! TO.N,Z+*
G04 #@! TO.P,MODULE3,B,B*
X26425000Y-15230000D03*
G04 #@! TO.N,ENC_Z*
G04 #@! TO.P,MODULE3,DI,DI*
X-14995000Y-20330000D03*
G04 #@! TO.N,+5V*
G04 #@! TO.P,MODULE3,VCC,VCC*
X26425000Y-12690000D03*
D15*
G04 #@! TO.C,DC1*
G04 #@! TO.P,DC1,VOUT,VOUT+*
X-38210000Y16960000D03*
G04 #@! TO.N,GND*
G04 #@! TO.P,DC1,GNDIN,GND*
X-20210000Y16960000D03*
G04 #@! TO.N,+24V*
G04 #@! TO.P,DC1,VIN,VIN+*
X-38210000Y-22040000D03*
G04 #@! TO.N,GND*
G04 #@! TO.P,DC1,GNDIN,GND*
X-20210000Y-22040000D03*
D13*
G04 #@! TO.N,+5V*
G04 #@! TO.C,J9*
G04 #@! TO.P,J9,3,3*
X12700000Y26670000D03*
D14*
G04 #@! TO.N,GND*
G04 #@! TO.P,J9,1,1*
X7620000Y26670000D03*
D13*
G04 #@! TO.N,ENC_Z*
G04 #@! TO.P,J9,2,2*
X10160000Y26670000D03*
D10*
G04 #@! TO.N,+5V*
G04 #@! TO.C,MODULE1*
G04 #@! TO.P,MODULE1,DE,DE*
X-14995000Y10170000D03*
G04 #@! TO.P,MODULE1,RE,RE*
X-14995000Y12690000D03*
G04 #@! TO.N,N/C*
G04 #@! TO.P,MODULE1,RO,RO*
X-14995000Y15250000D03*
G04 #@! TO.N,A+*
G04 #@! TO.P,MODULE1,A,A*
X26425000Y10150000D03*
G04 #@! TO.N,GND*
G04 #@! TO.P,MODULE1,GND,GND*
X26425000Y7610000D03*
G04 #@! TO.N,A-*
G04 #@! TO.P,MODULE1,B,B*
X26425000Y12710000D03*
G04 #@! TO.N,ENC_A*
G04 #@! TO.P,MODULE1,DI,DI*
X-14995000Y7610000D03*
G04 #@! TO.N,+5V*
G04 #@! TO.P,MODULE1,VCC,VCC*
X26425000Y15250000D03*
D11*
G04 #@! TO.N,GND*
G04 #@! TO.C,J2*
G04 #@! TO.P,J2,2,2*
X40640000Y-15240000D03*
D12*
G04 #@! TO.N,+24V*
G04 #@! TO.P,J2,1,1*
X40640000Y-17780000D03*
D16*
G04 #@! TD.C*
G04 #@! TD.P*
G04 #@! TO.N,Z+*
X29210000Y-15240000D02*
X26425000Y-15240000D01*
X26425000Y-15240000D02*
X26425000Y-15230000D01*
X33020000Y-10795000D02*
X33020000Y-635000D01*
X29210000Y-15240000D02*
X33020000Y-10795000D01*
X33020000Y-10795000D02*
X33020000Y-10795000D01*
G04 #@! TO.N,ENC_B*
X-3810000Y-6360000D02*
X-3810000Y-6350000D01*
X-3810000Y26670000D02*
X-3810000Y-6350000D01*
X-14995000Y-6360000D02*
X-3810000Y-6360000D01*
G04 #@! TO.N,ENC_Z*
X10160000Y26670000D02*
X10160000Y-19685000D01*
X10160000Y-20330000D02*
X10160000Y-19685000D01*
X-14995000Y-20330000D02*
X10160000Y-20330000D01*
G04 #@! TO.N,A+*
X29845000Y14605000D02*
X29845000Y10160000D01*
X26425000Y10150000D02*
X29845000Y10150000D01*
X33020000Y14605000D02*
X29845000Y14605000D01*
X29845000Y10150000D02*
X29845000Y10160000D01*
G04 #@! TO.N,+5V*
X-28575000Y10160000D02*
X-14995000Y10160000D01*
X12700000Y26670000D02*
X21590000Y26670000D01*
X-38210000Y16960000D02*
X-28575000Y16960000D01*
X-28575000Y10160000D02*
X-28575000Y17145000D01*
X21590000Y-22860000D02*
X-17780000Y-22860000D01*
X-28575000Y-3175000D02*
X-14995000Y-3175000D01*
X21590000Y-12065000D02*
X21590000Y1270000D01*
X-17780000Y-15875000D02*
X-17780000Y-22225000D01*
X-17780000Y-22860000D02*
X-17780000Y-22225000D01*
X21590000Y-22860000D02*
X21590000Y-12065000D01*
X-28575000Y16960000D02*
X-28575000Y17145000D01*
X21590000Y15250000D02*
X26425000Y15250000D01*
X-14995000Y-3800000D02*
X-14995000Y-1280000D01*
X22225000Y-12700000D02*
X21590000Y-12700000D01*
X-14995000Y10160000D02*
X-14995000Y10170000D01*
X26425000Y-12690000D02*
X22225000Y-12690000D01*
X-17780000Y-15875000D02*
X-14995000Y-15875000D01*
X-28575000Y-3175000D02*
X-28575000Y10160000D01*
X-28575000Y-15875000D02*
X-28575000Y-3175000D01*
X21590000Y-12065000D02*
X21590000Y-12700000D01*
X21590000Y15250000D02*
X21590000Y26670000D01*
X-14995000Y-3175000D02*
X-14995000Y-3800000D01*
X-14995000Y10170000D02*
X-14995000Y12690000D01*
X-14995000Y-17770000D02*
X-14995000Y-15250000D01*
X26425000Y1280000D02*
X21590000Y1280000D01*
X-14995000Y-15875000D02*
X-14995000Y-15250000D01*
X21590000Y15250000D02*
X21590000Y1270000D01*
X21590000Y1280000D02*
X21590000Y1270000D01*
X-17780000Y-15875000D02*
X-28575000Y-15875000D01*
X22225000Y-12690000D02*
X22225000Y-12700000D01*
G04 #@! TO.N,Z-*
X29210000Y-17780000D02*
X26425000Y-17780000D01*
X29210000Y-17780000D02*
X35560000Y-10795000D01*
X35560000Y1905000D02*
X33020000Y1905000D01*
X35560000Y-10795000D02*
X35560000Y-10795000D01*
X26425000Y-17780000D02*
X26425000Y-17790000D01*
X35560000Y1905000D02*
X35560000Y1905000D01*
X35560000Y-10795000D02*
X35560000Y1905000D01*
G04 #@! TO.N,B+*
X33020000Y6985000D02*
X33020000Y6985000D01*
X28575000Y-1260000D02*
X28575000Y-1270000D01*
X26425000Y-1260000D02*
X28575000Y-1260000D01*
X28575000Y6985000D02*
X28575000Y-1270000D01*
X28575000Y6985000D02*
X33020000Y6985000D01*
G04 #@! TO.N,GND*
X-8890000Y26670000D02*
X-8780000Y26670000D01*
G04 #@! TO.N,A-*
X28575000Y12710000D02*
X28575000Y17145000D01*
X33020000Y17145000D02*
X28575000Y17145000D01*
X26425000Y12710000D02*
X28575000Y12710000D01*
G04 #@! TO.N,ENC_A*
X-6350000Y26670000D02*
X-6350000Y8255000D01*
X-14995000Y7610000D02*
X-6350000Y7610000D01*
X-6350000Y7610000D02*
X-6350000Y8255000D01*
G04 #@! TO.N,B-*
X26425000Y-3820000D02*
X29845000Y-3820000D01*
X35560000Y5715000D02*
X29845000Y5715000D01*
X29845000Y-3820000D02*
X29845000Y5715000D01*
X33020000Y9525000D02*
X35560000Y9525000D01*
X35560000Y9525000D02*
X35560000Y5715000D01*
G04 #@! TO.N,+24V*
X-36195000Y-24130000D02*
X-36940000Y-23495000D01*
X-36940000Y-23495000D02*
X-38210000Y-22040000D01*
X-13335000Y29845000D02*
X-15240000Y27940000D01*
X-20320000Y22225000D02*
X-15240000Y27940000D01*
X34290000Y-26670000D02*
X40640000Y-17780000D01*
X-1270000Y29845000D02*
X-1270000Y26670000D01*
X-39370000Y-20770000D02*
X-41910000Y-17780000D01*
X-20320000Y22225000D02*
X-40640000Y22225000D01*
X-40640000Y22225000D02*
X-41910000Y20955000D01*
X-1270000Y29845000D02*
X-13335000Y29845000D01*
X-24130000Y-24130000D02*
X-24130000Y-26670000D01*
X-36195000Y-24130000D02*
X-24130000Y-24130000D01*
X-24130000Y-26670000D02*
X34290000Y-26670000D01*
X-41910000Y-17780000D02*
X-41910000Y20955000D01*
X-38210000Y-22040000D02*
X-39370000Y-20770000D01*
G04 #@! TO.N,GND*
X26425000Y-6350000D02*
X26425000Y-6360000D01*
D17*
G04 #@! TA.AperFunction,Conductor*
G36*
X-49700000Y-34600001D02*
X-49680500Y-34659328D01*
X-49600001Y-34700000D01*
X-29042559Y-34700000D01*
X-29042559Y-33020264D01*
X-29048814Y-33019870D01*
X-29341585Y-32982884D01*
X-29347771Y-32981704D01*
X-29633588Y-32908320D01*
X-29639565Y-32906378D01*
X-29913952Y-32797740D01*
X-29919620Y-32795073D01*
X-30178238Y-32652897D01*
X-30183520Y-32649544D01*
X-30422282Y-32476075D01*
X-30427105Y-32472085D01*
X-30642230Y-32270069D01*
X-30646529Y-32265490D01*
X-30834648Y-32038094D01*
X-30838319Y-32033041D01*
X-30996453Y-31783860D01*
X-30999472Y-31778371D01*
X-31125132Y-31511331D01*
X-31127432Y-31505521D01*
X-31218631Y-31224837D01*
X-31220187Y-31218777D01*
X-31275488Y-30928877D01*
X-31276272Y-30922674D01*
X-31294803Y-30628131D01*
X-31294803Y-30621869D01*
X-31276272Y-30327326D01*
X-31275488Y-30321123D01*
X-31220187Y-30031223D01*
X-31218631Y-30025163D01*
X-31127432Y-29744479D01*
X-31125132Y-29738669D01*
X-30999472Y-29471629D01*
X-30996453Y-29466140D01*
X-30838319Y-29216959D01*
X-30834648Y-29211906D01*
X-30646529Y-28984510D01*
X-30642230Y-28979931D01*
X-30427105Y-28777915D01*
X-30422282Y-28773925D01*
X-30183520Y-28600456D01*
X-30178238Y-28597103D01*
X-29919620Y-28454927D01*
X-29913952Y-28452260D01*
X-29639565Y-28343622D01*
X-29633588Y-28341680D01*
X-29347771Y-28268296D01*
X-29341585Y-28267116D01*
X-29048814Y-28230130D01*
X-29042559Y-28229736D01*
X-28747441Y-28229736D01*
X-28741186Y-28230130D01*
X-28448415Y-28267116D01*
X-28442229Y-28268296D01*
X-28156412Y-28341680D01*
X-28150435Y-28343622D01*
X-27876048Y-28452260D01*
X-27870380Y-28454927D01*
X-27611762Y-28597103D01*
X-27606480Y-28600456D01*
X-27367718Y-28773925D01*
X-27362895Y-28777915D01*
X-27147770Y-28979931D01*
X-27143471Y-28984510D01*
X-26955352Y-29211906D01*
X-26951681Y-29216959D01*
X-26793547Y-29466140D01*
X-26790528Y-29471629D01*
X-26664868Y-29738669D01*
X-26662568Y-29744479D01*
X-26571369Y-30025163D01*
X-26569813Y-30031223D01*
X-26514512Y-30321123D01*
X-26513728Y-30327326D01*
X-26495197Y-30621869D01*
X-26495197Y-30628131D01*
X-26513728Y-30922674D01*
X-26514512Y-30928877D01*
X-26569813Y-31218777D01*
X-26571369Y-31224837D01*
X-26662568Y-31505521D01*
X-26664868Y-31511331D01*
X-26790528Y-31778371D01*
X-26793547Y-31783860D01*
X-26951681Y-32033041D01*
X-26955352Y-32038094D01*
X-27143471Y-32265490D01*
X-27147770Y-32270069D01*
X-27362895Y-32472085D01*
X-27367718Y-32476075D01*
X-27606480Y-32649544D01*
X-27611762Y-32652897D01*
X-27870380Y-32795073D01*
X-27876048Y-32797740D01*
X-28150435Y-32906378D01*
X-28156412Y-32908320D01*
X-28442229Y-32981704D01*
X-28448415Y-32982884D01*
X-28741186Y-33019870D01*
X-28747441Y-33020264D01*
X-29042559Y-33020264D01*
X-29042559Y-34700000D01*
X-24126719Y-34700000D01*
X-24126719Y-27220000D01*
X-24133256Y-27219571D01*
X-24265850Y-27202115D01*
X-24278406Y-27198751D01*
X-24398945Y-27148822D01*
X-24410200Y-27142324D01*
X-24513709Y-27062899D01*
X-24522899Y-27053709D01*
X-24602324Y-26950200D01*
X-24608822Y-26938945D01*
X-24658751Y-26818406D01*
X-24662115Y-26805850D01*
X-24679571Y-26673256D01*
X-24680000Y-26666719D01*
X-24680000Y-24779999D01*
X-24699500Y-24720672D01*
X-24779999Y-24680000D01*
X-36191719Y-24680000D01*
X-36198256Y-24679571D01*
X-36240716Y-24673981D01*
X-36248636Y-24673257D01*
X-36288136Y-24671227D01*
X-36300930Y-24668869D01*
X-36306883Y-24666941D01*
X-36324633Y-24662934D01*
X-36330849Y-24662116D01*
X-36343405Y-24658751D01*
X-36379945Y-24643616D01*
X-36387406Y-24640867D01*
X-36425052Y-24628677D01*
X-36436779Y-24623097D01*
X-36442044Y-24619686D01*
X-36458153Y-24611222D01*
X-36463942Y-24608824D01*
X-36475194Y-24602327D01*
X-36506582Y-24578242D01*
X-36513081Y-24573654D01*
X-36549034Y-24550358D01*
X-36554268Y-24546458D01*
X-37294286Y-23915705D01*
X-37298973Y-23911147D01*
X-37320098Y-23887733D01*
X-37328234Y-23879691D01*
X-37344941Y-23864970D01*
X-37411051Y-23840000D01*
X-39706069Y-23840000D01*
X-39713882Y-23839385D01*
X-39794931Y-23826548D01*
X-39809718Y-23821744D01*
X-39879326Y-23786277D01*
X-39891899Y-23777142D01*
X-39947142Y-23721899D01*
X-39956277Y-23709326D01*
X-39991744Y-23639718D01*
X-39996548Y-23624931D01*
X-40009385Y-23543882D01*
X-40010000Y-23536069D01*
X-40010000Y-20902873D01*
X-40033787Y-20838131D01*
X-42327052Y-18138579D01*
X-42330943Y-18133338D01*
X-42353886Y-18097801D01*
X-42358565Y-18091162D01*
X-42382325Y-18060199D01*
X-42388823Y-18048944D01*
X-42391428Y-18042655D01*
X-42399802Y-18026686D01*
X-42403493Y-18020970D01*
X-42409058Y-18009222D01*
X-42421019Y-17972075D01*
X-42423817Y-17964458D01*
X-42438753Y-17928397D01*
X-42442114Y-17915855D01*
X-42443003Y-17909105D01*
X-42446959Y-17891515D01*
X-42449044Y-17885038D01*
X-42451380Y-17872248D01*
X-42453318Y-17833278D01*
X-42454051Y-17825193D01*
X-42459573Y-17783252D01*
X-42460000Y-17776730D01*
X-42460000Y20951731D01*
X-42459574Y20958240D01*
X-42442115Y21090860D01*
X-42438754Y21103402D01*
X-42388821Y21223949D01*
X-42382325Y21235200D01*
X-42348365Y21279457D01*
X-42303067Y21338490D01*
X-42298638Y21342871D01*
X-42297265Y21345552D01*
X-41029828Y22612989D01*
X-41027871Y22613638D01*
X-41023490Y22618067D01*
X-40920200Y22697324D01*
X-40908945Y22703822D01*
X-40788406Y22753751D01*
X-40775850Y22757115D01*
X-40643256Y22774571D01*
X-40636719Y22775000D01*
X-29042559Y22775000D01*
X-29042559Y24979736D01*
X-29048814Y24980130D01*
X-29341585Y25017116D01*
X-29347771Y25018296D01*
X-29633588Y25091680D01*
X-29639565Y25093622D01*
X-29913952Y25202260D01*
X-29919620Y25204927D01*
X-30178238Y25347103D01*
X-30183520Y25350456D01*
X-30422282Y25523925D01*
X-30427105Y25527915D01*
X-30642230Y25729931D01*
X-30646529Y25734510D01*
X-30834648Y25961906D01*
X-30838319Y25966959D01*
X-30996453Y26216140D01*
X-30999472Y26221629D01*
X-31125132Y26488669D01*
X-31127432Y26494479D01*
X-31218631Y26775163D01*
X-31220187Y26781223D01*
X-31275488Y27071123D01*
X-31276272Y27077326D01*
X-31294803Y27371869D01*
X-31294803Y27378131D01*
X-31276272Y27672674D01*
X-31275488Y27678877D01*
X-31220187Y27968777D01*
X-31218631Y27974837D01*
X-31127432Y28255521D01*
X-31125132Y28261331D01*
X-30999472Y28528371D01*
X-30996453Y28533860D01*
X-30838319Y28783041D01*
X-30834648Y28788094D01*
X-30646529Y29015490D01*
X-30642230Y29020069D01*
X-30427105Y29222085D01*
X-30422282Y29226075D01*
X-30183520Y29399544D01*
X-30178238Y29402897D01*
X-29919620Y29545073D01*
X-29913952Y29547740D01*
X-29639565Y29656378D01*
X-29633588Y29658320D01*
X-29347771Y29731704D01*
X-29341585Y29732884D01*
X-29048814Y29769870D01*
X-29042559Y29770264D01*
X-28747441Y29770264D01*
X-28741186Y29769870D01*
X-28448415Y29732884D01*
X-28442229Y29731704D01*
X-28156412Y29658320D01*
X-28150435Y29656378D01*
X-27876048Y29547740D01*
X-27870380Y29545073D01*
X-27611762Y29402897D01*
X-27606480Y29399544D01*
X-27367718Y29226075D01*
X-27362895Y29222085D01*
X-27147770Y29020069D01*
X-27143471Y29015490D01*
X-26955352Y28788094D01*
X-26951681Y28783041D01*
X-26793547Y28533860D01*
X-26790528Y28528371D01*
X-26664868Y28261331D01*
X-26662568Y28255521D01*
X-26571369Y27974837D01*
X-26569813Y27968777D01*
X-26514512Y27678877D01*
X-26513728Y27672674D01*
X-26495197Y27378131D01*
X-26495197Y27371869D01*
X-26513728Y27077326D01*
X-26514512Y27071123D01*
X-26569813Y26781223D01*
X-26571369Y26775163D01*
X-26662568Y26494479D01*
X-26664868Y26488669D01*
X-26790528Y26221629D01*
X-26793547Y26216140D01*
X-26951681Y25966959D01*
X-26955352Y25961906D01*
X-27143471Y25734510D01*
X-27147770Y25729931D01*
X-27362895Y25527915D01*
X-27367718Y25523925D01*
X-27606480Y25350456D01*
X-27611762Y25347103D01*
X-27870380Y25204927D01*
X-27876048Y25202260D01*
X-28150435Y25093622D01*
X-28156412Y25091680D01*
X-28442229Y25018296D01*
X-28448415Y25017116D01*
X-28741186Y24980130D01*
X-28747441Y24979736D01*
X-29042559Y24979736D01*
X-29042559Y22775000D01*
X-20611892Y22775000D01*
X-20537152Y22808563D01*
X-15653244Y28302960D01*
X-15648605Y28307537D01*
X-15646498Y28309360D01*
X-15632590Y28324110D01*
X-15630897Y28326316D01*
X-15626595Y28331222D01*
X-13724828Y30232989D01*
X-13722871Y30233638D01*
X-13718490Y30238067D01*
X-13615200Y30317324D01*
X-13603945Y30323822D01*
X-13483406Y30373751D01*
X-13470850Y30377115D01*
X-13338256Y30394571D01*
X-13331719Y30395000D01*
X-1273281Y30395000D01*
X-1266744Y30394571D01*
X-1134150Y30377115D01*
X-1121594Y30373751D01*
X-1001055Y30323822D01*
X-989800Y30317324D01*
X-886291Y30237899D01*
X-877101Y30228709D01*
X-797676Y30125200D01*
X-791178Y30113945D01*
X-741249Y29993406D01*
X-737885Y29980850D01*
X-720429Y29848256D01*
X-720000Y29841719D01*
X-720000Y28164999D01*
X-700500Y28105672D01*
X-620001Y28065000D01*
X-480431Y28065000D01*
X-472618Y28064385D01*
X-391569Y28051548D01*
X-376782Y28046744D01*
X-307174Y28011277D01*
X-294601Y28002142D01*
X-239358Y27946899D01*
X-230223Y27934326D01*
X-194756Y27864718D01*
X-189952Y27849931D01*
X-177115Y27768882D01*
X-176500Y27761069D01*
X-176500Y25578931D01*
X-177115Y25571118D01*
X-189952Y25490069D01*
X-194756Y25475282D01*
X-230223Y25405674D01*
X-239358Y25393101D01*
X-294601Y25337858D01*
X-307174Y25328723D01*
X-376782Y25293256D01*
X-391569Y25288452D01*
X-472618Y25275615D01*
X-480431Y25275000D01*
X-2059569Y25275000D01*
X-2067382Y25275615D01*
X-2148431Y25288452D01*
X-2163218Y25293256D01*
X-2232826Y25328723D01*
X-2245399Y25337858D01*
X-2300642Y25393101D01*
X-2309777Y25405674D01*
X-2345244Y25475282D01*
X-2350048Y25490069D01*
X-2362885Y25571118D01*
X-2363500Y25578931D01*
X-2363500Y27761069D01*
X-2362885Y27768882D01*
X-2350048Y27849931D01*
X-2345244Y27864718D01*
X-2309777Y27934326D01*
X-2300642Y27946899D01*
X-2245399Y28002142D01*
X-2232826Y28011277D01*
X-2163218Y28046744D01*
X-2148431Y28051548D01*
X-2067382Y28064385D01*
X-2059569Y28065000D01*
X-1919999Y28065000D01*
X-1860672Y28084500D01*
X-1820000Y28164999D01*
X-1820000Y29195001D01*
X-1839500Y29254328D01*
X-1919999Y29295000D01*
X-13065762Y29295000D01*
X-13136472Y29265711D01*
X-14837583Y27564600D01*
X-14841613Y27560326D01*
X-19906747Y21862051D01*
X-19911403Y21857457D01*
X-19913496Y21855646D01*
X-19925870Y21842522D01*
X-19936291Y21832101D01*
X-19973012Y21803924D01*
X-19977566Y21800212D01*
X-20012551Y21769943D01*
X-20024831Y21761857D01*
X-20038322Y21753529D01*
X-20051056Y21746177D01*
X-20093818Y21728465D01*
X-20099179Y21726058D01*
X-20140801Y21705877D01*
X-20154798Y21701230D01*
X-20169919Y21696698D01*
X-20184147Y21692886D01*
X-20230015Y21686847D01*
X-20235814Y21685910D01*
X-20281270Y21677184D01*
X-20295957Y21676320D01*
X-20313998Y21675790D01*
X-20316745Y21675428D01*
X-20323279Y21675000D01*
X-40370762Y21675000D01*
X-40441472Y21645711D01*
X-41330711Y20756472D01*
X-41360000Y20685762D01*
X-41360000Y-17541182D01*
X-41336213Y-17605924D01*
X-39128521Y-20204743D01*
X-39052309Y-20240000D01*
X-36713931Y-20240000D01*
X-36706118Y-20240615D01*
X-36625069Y-20253452D01*
X-36610282Y-20258256D01*
X-36540674Y-20293723D01*
X-36528101Y-20302858D01*
X-36472858Y-20358101D01*
X-36463723Y-20370674D01*
X-36428256Y-20440282D01*
X-36423452Y-20455069D01*
X-36410615Y-20536118D01*
X-36410000Y-20543931D01*
X-36410000Y-23177904D01*
X-36374869Y-23254009D01*
X-36020440Y-23556106D01*
X-35955572Y-23580000D01*
X-24133281Y-23580000D01*
X-24126744Y-23580429D01*
X-23994150Y-23597885D01*
X-23981594Y-23601249D01*
X-23861055Y-23651178D01*
X-23849800Y-23657676D01*
X-23746291Y-23737101D01*
X-23737101Y-23746291D01*
X-23657676Y-23849800D01*
X-23651178Y-23861055D01*
X-23601249Y-23981594D01*
X-23597885Y-23994150D01*
X-23580429Y-24126744D01*
X-23580000Y-24133281D01*
X-23580000Y-26020001D01*
X-23560500Y-26079328D01*
X-23480001Y-26120000D01*
X-21706069Y-26120000D01*
X-21706069Y-23840000D01*
X-21713882Y-23839385D01*
X-21794931Y-23826548D01*
X-21809718Y-23821744D01*
X-21879326Y-23786277D01*
X-21891899Y-23777142D01*
X-21947142Y-23721899D01*
X-21956277Y-23709326D01*
X-21991744Y-23639718D01*
X-21996548Y-23624931D01*
X-22009385Y-23543882D01*
X-22010000Y-23536069D01*
X-22010000Y-22206018D01*
X-22008434Y-22201253D01*
X-21993987Y-22193953D01*
X-21993987Y-21889995D01*
X-21998752Y-21888429D01*
X-22010000Y-21866167D01*
X-22010000Y-20543931D01*
X-22009385Y-20536118D01*
X-21996548Y-20455069D01*
X-21991744Y-20440282D01*
X-21956277Y-20370674D01*
X-21947142Y-20358101D01*
X-21891899Y-20302858D01*
X-21879326Y-20293723D01*
X-21809718Y-20258256D01*
X-21794931Y-20253452D01*
X-21713882Y-20240615D01*
X-21706069Y-20240000D01*
X-20376018Y-20240000D01*
X-20371253Y-20241566D01*
X-20360005Y-20263828D01*
X-20360005Y-20540000D01*
X-21710000Y-20540000D01*
X-21710000Y-21889995D01*
X-21993987Y-21889995D01*
X-21993987Y-22193953D01*
X-21986172Y-22190005D01*
X-21710000Y-22190005D01*
X-21710000Y-23540000D01*
X-20360005Y-23540000D01*
X-20360005Y-23823987D01*
X-20361571Y-23828752D01*
X-20383833Y-23840000D01*
X-21706069Y-23840000D01*
X-21706069Y-26120000D01*
X-20043982Y-26120000D01*
X-20043982Y-23840000D01*
X-20048747Y-23838434D01*
X-20059995Y-23816172D01*
X-20059995Y-23540000D01*
X-18710000Y-23540000D01*
X-18710000Y-20540000D01*
X-20059995Y-20540000D01*
X-20059995Y-20256013D01*
X-20058429Y-20251248D01*
X-20036167Y-20240000D01*
X-18713931Y-20240000D01*
X-18706118Y-20240615D01*
X-18625069Y-20253452D01*
X-18610282Y-20258256D01*
X-18540674Y-20293723D01*
X-18528101Y-20302858D01*
X-18500709Y-20330250D01*
X-18444970Y-20358412D01*
X-18383392Y-20348014D01*
X-18339991Y-20303110D01*
X-18330000Y-20259540D01*
X-18330000Y-16524999D01*
X-18349500Y-16465672D01*
X-18429999Y-16425000D01*
X-28571719Y-16425000D01*
X-28578256Y-16424571D01*
X-28710850Y-16407115D01*
X-28723406Y-16403751D01*
X-28843945Y-16353822D01*
X-28855200Y-16347324D01*
X-28958709Y-16267899D01*
X-28967899Y-16258709D01*
X-29047324Y-16155200D01*
X-29053822Y-16143945D01*
X-29103751Y-16023406D01*
X-29107115Y-16010850D01*
X-29124571Y-15878256D01*
X-29125000Y-15871719D01*
X-29125000Y16310001D01*
X-29144500Y16369328D01*
X-29224999Y16410000D01*
X-36310001Y16410000D01*
X-36369328Y16390500D01*
X-36410000Y16310001D01*
X-36410000Y15463931D01*
X-36410615Y15456118D01*
X-36423452Y15375069D01*
X-36428256Y15360282D01*
X-36463723Y15290674D01*
X-36472858Y15278101D01*
X-36528101Y15222858D01*
X-36540674Y15213723D01*
X-36610282Y15178256D01*
X-36625069Y15173452D01*
X-36706118Y15160615D01*
X-36713931Y15160000D01*
X-39706069Y15160000D01*
X-39713882Y15160615D01*
X-39794931Y15173452D01*
X-39809718Y15178256D01*
X-39879326Y15213723D01*
X-39891899Y15222858D01*
X-39947142Y15278101D01*
X-39956277Y15290674D01*
X-39991744Y15360282D01*
X-39996548Y15375069D01*
X-40009385Y15456118D01*
X-40010000Y15463931D01*
X-40010000Y18456069D01*
X-40009385Y18463882D01*
X-39996548Y18544931D01*
X-39991744Y18559718D01*
X-39956277Y18629326D01*
X-39947142Y18641899D01*
X-39891899Y18697142D01*
X-39879326Y18706277D01*
X-39809718Y18741744D01*
X-39794931Y18746548D01*
X-39713882Y18759385D01*
X-39706069Y18760000D01*
X-36713931Y18760000D01*
X-36706118Y18759385D01*
X-36625069Y18746548D01*
X-36610282Y18741744D01*
X-36540674Y18706277D01*
X-36528101Y18697142D01*
X-36472858Y18641899D01*
X-36463723Y18629326D01*
X-36428256Y18559718D01*
X-36423452Y18544931D01*
X-36410615Y18463882D01*
X-36410000Y18456069D01*
X-36410000Y17609999D01*
X-36390500Y17550672D01*
X-36310001Y17510000D01*
X-29028029Y17510000D01*
X-28965452Y17535920D01*
X-28963909Y17533909D01*
X-28855200Y17617324D01*
X-28843945Y17623822D01*
X-28723406Y17673751D01*
X-28710850Y17677115D01*
X-28581502Y17694144D01*
X-28568498Y17694144D01*
X-28439150Y17677115D01*
X-28426594Y17673751D01*
X-28306055Y17623822D01*
X-28294800Y17617324D01*
X-28191291Y17537899D01*
X-28182101Y17528709D01*
X-28102676Y17425200D01*
X-28096178Y17413945D01*
X-28046249Y17293406D01*
X-28042885Y17280850D01*
X-28025429Y17148256D01*
X-28025000Y17141719D01*
X-28025000Y10809999D01*
X-28005500Y10750672D01*
X-27925001Y10710000D01*
X-21706069Y10710000D01*
X-21706069Y15160000D01*
X-21713882Y15160615D01*
X-21794931Y15173452D01*
X-21809718Y15178256D01*
X-21879326Y15213723D01*
X-21891899Y15222858D01*
X-21947142Y15278101D01*
X-21956277Y15290674D01*
X-21991744Y15360282D01*
X-21996548Y15375069D01*
X-22009385Y15456118D01*
X-22010000Y15463931D01*
X-22010000Y16793982D01*
X-22008434Y16798747D01*
X-21993987Y16806046D01*
X-21993987Y17110005D01*
X-21998752Y17111571D01*
X-22010000Y17133833D01*
X-22010000Y18456069D01*
X-22009385Y18463882D01*
X-21996548Y18544931D01*
X-21991744Y18559718D01*
X-21956277Y18629326D01*
X-21947142Y18641899D01*
X-21891899Y18697142D01*
X-21879326Y18706277D01*
X-21809718Y18741744D01*
X-21794931Y18746548D01*
X-21713882Y18759385D01*
X-21706069Y18760000D01*
X-20376018Y18760000D01*
X-20371253Y18758434D01*
X-20360005Y18736172D01*
X-20360005Y18460000D01*
X-21710000Y18460000D01*
X-21710000Y17110005D01*
X-21993987Y17110005D01*
X-21993987Y16806046D01*
X-21986172Y16809995D01*
X-21710000Y16809995D01*
X-21710000Y15460000D01*
X-20360005Y15460000D01*
X-20360005Y15176013D01*
X-20361571Y15171248D01*
X-20383833Y15160000D01*
X-21706069Y15160000D01*
X-21706069Y10710000D01*
X-20043982Y10710000D01*
X-20043982Y15160000D01*
X-20048747Y15161566D01*
X-20059995Y15183828D01*
X-20059995Y15460000D01*
X-18710000Y15460000D01*
X-18710000Y16809995D01*
X-18710000Y17110005D01*
X-18710000Y18460000D01*
X-20059995Y18460000D01*
X-20059995Y18743987D01*
X-20058429Y18748752D01*
X-20036167Y18760000D01*
X-18713931Y18760000D01*
X-18706118Y18759385D01*
X-18625069Y18746548D01*
X-18610282Y18741744D01*
X-18540674Y18706277D01*
X-18528101Y18697142D01*
X-18472858Y18641899D01*
X-18463723Y18629326D01*
X-18428256Y18559718D01*
X-18423452Y18544931D01*
X-18410615Y18463882D01*
X-18410000Y18456069D01*
X-18410000Y17126018D01*
X-18411566Y17121253D01*
X-18433828Y17110005D01*
X-18710000Y17110005D01*
X-18710000Y16809995D01*
X-18426013Y16809995D01*
X-18421248Y16808429D01*
X-18410000Y16786167D01*
X-18410000Y15463931D01*
X-18410615Y15456118D01*
X-18423452Y15375069D01*
X-18428256Y15360282D01*
X-18463723Y15290674D01*
X-18472858Y15278101D01*
X-18528101Y15222858D01*
X-18540674Y15213723D01*
X-18610282Y15178256D01*
X-18625069Y15173452D01*
X-18706118Y15160615D01*
X-18713931Y15160000D01*
X-20043982Y15160000D01*
X-20043982Y10710000D01*
X-16422173Y10710000D01*
X-16344873Y10746560D01*
X-16269868Y10837953D01*
X-16262953Y10844868D01*
X-16126590Y10956779D01*
X-16118458Y10962213D01*
X-15962887Y11045367D01*
X-15953843Y11049114D01*
X-15785040Y11100319D01*
X-15775443Y11102228D01*
X-15635197Y11116041D01*
X-15578067Y11141262D01*
X-15545000Y11215558D01*
X-15545000Y11644442D01*
X-15564500Y11703769D01*
X-15635197Y11743959D01*
X-15775443Y11757772D01*
X-15785040Y11759681D01*
X-15953843Y11810886D01*
X-15962887Y11814633D01*
X-16118458Y11897787D01*
X-16126590Y11903221D01*
X-16262953Y12015132D01*
X-16269868Y12022047D01*
X-16381779Y12158410D01*
X-16387213Y12166542D01*
X-16470367Y12322113D01*
X-16474114Y12331157D01*
X-16525319Y12499960D01*
X-16527228Y12509557D01*
X-16544518Y12685106D01*
X-16544518Y12694894D01*
X-16527228Y12870443D01*
X-16525319Y12880040D01*
X-16474114Y13048843D01*
X-16470367Y13057887D01*
X-16387213Y13213458D01*
X-16381779Y13221590D01*
X-16269868Y13357953D01*
X-16262953Y13364868D01*
X-16126590Y13476779D01*
X-16118458Y13482213D01*
X-15962887Y13565367D01*
X-15953843Y13569114D01*
X-15785040Y13620319D01*
X-15775443Y13622228D01*
X-15597443Y13639759D01*
X-15592550Y13640000D01*
X-15592550Y14300000D01*
X-15597443Y14300241D01*
X-15775443Y14317772D01*
X-15785040Y14319681D01*
X-15953843Y14370886D01*
X-15962887Y14374633D01*
X-16118458Y14457787D01*
X-16126590Y14463221D01*
X-16262953Y14575132D01*
X-16269868Y14582047D01*
X-16381779Y14718410D01*
X-16387213Y14726542D01*
X-16470367Y14882113D01*
X-16474114Y14891157D01*
X-16525319Y15059960D01*
X-16527228Y15069557D01*
X-16544518Y15245106D01*
X-16544518Y15254894D01*
X-16527228Y15430443D01*
X-16525319Y15440040D01*
X-16474114Y15608843D01*
X-16470367Y15617887D01*
X-16387213Y15773458D01*
X-16381779Y15781590D01*
X-16269868Y15917953D01*
X-16262953Y15924868D01*
X-16126590Y16036779D01*
X-16118458Y16042213D01*
X-15962887Y16125367D01*
X-15953843Y16129114D01*
X-15785040Y16180319D01*
X-15775443Y16182228D01*
X-15597443Y16199759D01*
X-15592550Y16200000D01*
X-14397450Y16200000D01*
X-14392557Y16199759D01*
X-14214557Y16182228D01*
X-14204960Y16180319D01*
X-14036157Y16129114D01*
X-14027113Y16125367D01*
X-13871542Y16042213D01*
X-13863410Y16036779D01*
X-13727047Y15924868D01*
X-13720132Y15917953D01*
X-13608221Y15781590D01*
X-13602787Y15773458D01*
X-13519633Y15617887D01*
X-13515886Y15608843D01*
X-13464681Y15440040D01*
X-13462772Y15430443D01*
X-13445482Y15254894D01*
X-13445482Y15245106D01*
X-13462772Y15069557D01*
X-13464681Y15059960D01*
X-13515886Y14891157D01*
X-13519633Y14882113D01*
X-13602787Y14726542D01*
X-13608221Y14718410D01*
X-13720132Y14582047D01*
X-13727047Y14575132D01*
X-13863410Y14463221D01*
X-13871542Y14457787D01*
X-14027113Y14374633D01*
X-14036157Y14370886D01*
X-14204960Y14319681D01*
X-14214557Y14317772D01*
X-14392557Y14300241D01*
X-14397450Y14300000D01*
X-15592550Y14300000D01*
X-15592550Y13640000D01*
X-14397450Y13640000D01*
X-14392557Y13639759D01*
X-14214557Y13622228D01*
X-14204960Y13620319D01*
X-14036157Y13569114D01*
X-14027113Y13565367D01*
X-13871542Y13482213D01*
X-13863410Y13476779D01*
X-13727047Y13364868D01*
X-13720132Y13357953D01*
X-13608221Y13221590D01*
X-13602787Y13213458D01*
X-13519633Y13057887D01*
X-13515886Y13048843D01*
X-13464681Y12880040D01*
X-13462772Y12870443D01*
X-13445482Y12694894D01*
X-13445482Y12685106D01*
X-13462772Y12509557D01*
X-13464681Y12499960D01*
X-13515886Y12331157D01*
X-13519633Y12322113D01*
X-13602787Y12166542D01*
X-13608221Y12158410D01*
X-13720132Y12022047D01*
X-13727047Y12015132D01*
X-13863410Y11903221D01*
X-13871542Y11897787D01*
X-14027113Y11814633D01*
X-14036157Y11810886D01*
X-14204960Y11759681D01*
X-14214557Y11757772D01*
X-14354803Y11743959D01*
X-14411933Y11718738D01*
X-14445000Y11644442D01*
X-14445000Y11215558D01*
X-14425500Y11156231D01*
X-14354803Y11116041D01*
X-14214557Y11102228D01*
X-14204960Y11100319D01*
X-14036157Y11049114D01*
X-14027113Y11045367D01*
X-13871542Y10962213D01*
X-13863410Y10956779D01*
X-13727047Y10844868D01*
X-13720132Y10837953D01*
X-13608221Y10701590D01*
X-13602787Y10693458D01*
X-13519633Y10537887D01*
X-13515886Y10528843D01*
X-13464681Y10360040D01*
X-13462772Y10350443D01*
X-13445482Y10174894D01*
X-13445482Y10165106D01*
X-13462772Y9989557D01*
X-13464681Y9979960D01*
X-13515886Y9811157D01*
X-13519633Y9802113D01*
X-13602787Y9646542D01*
X-13608221Y9638410D01*
X-13720132Y9502047D01*
X-13727047Y9495132D01*
X-13863410Y9383221D01*
X-13871542Y9377787D01*
X-14027113Y9294633D01*
X-14036157Y9290886D01*
X-14204960Y9239681D01*
X-14214557Y9237772D01*
X-14392557Y9220241D01*
X-14397450Y9220000D01*
X-15592550Y9220000D01*
X-15597443Y9220241D01*
X-15775443Y9237772D01*
X-15785040Y9239681D01*
X-15953843Y9290886D01*
X-15962887Y9294633D01*
X-16118458Y9377787D01*
X-16126590Y9383221D01*
X-16262953Y9495132D01*
X-16269868Y9502047D01*
X-16328459Y9573440D01*
X-16405759Y9610000D01*
X-27925001Y9610000D01*
X-27984328Y9590500D01*
X-28025000Y9510001D01*
X-28025000Y-2525001D01*
X-28005500Y-2584328D01*
X-27925001Y-2625000D01*
X-15644999Y-2625000D01*
X-15585672Y-2605500D01*
X-15545000Y-2525001D01*
X-15545000Y-2325558D01*
X-15564500Y-2266231D01*
X-15635197Y-2226041D01*
X-15775443Y-2212228D01*
X-15785040Y-2210319D01*
X-15953843Y-2159114D01*
X-15962887Y-2155367D01*
X-16118458Y-2072213D01*
X-16126590Y-2066779D01*
X-16262953Y-1954868D01*
X-16269868Y-1947953D01*
X-16381779Y-1811590D01*
X-16387213Y-1803458D01*
X-16470367Y-1647887D01*
X-16474114Y-1638843D01*
X-16525319Y-1470040D01*
X-16527228Y-1460443D01*
X-16544518Y-1284894D01*
X-16544518Y-1275106D01*
X-16527228Y-1099557D01*
X-16525319Y-1089960D01*
X-16474114Y-921157D01*
X-16470367Y-912113D01*
X-16387213Y-756542D01*
X-16381779Y-748410D01*
X-16269868Y-612047D01*
X-16262953Y-605132D01*
X-16126590Y-493221D01*
X-16118458Y-487787D01*
X-15962887Y-404633D01*
X-15953843Y-400886D01*
X-15785040Y-349681D01*
X-15775443Y-347772D01*
X-15597443Y-330241D01*
X-15592550Y-330000D01*
X-15592550Y330000D01*
X-15597443Y330241D01*
X-15775443Y347772D01*
X-15785040Y349681D01*
X-15953843Y400886D01*
X-15962887Y404633D01*
X-16118458Y487787D01*
X-16126590Y493221D01*
X-16262953Y605132D01*
X-16269868Y612047D01*
X-16381779Y748410D01*
X-16387213Y756542D01*
X-16470367Y912113D01*
X-16474114Y921157D01*
X-16525319Y1089960D01*
X-16527228Y1099557D01*
X-16544518Y1275106D01*
X-16544518Y1284894D01*
X-16527228Y1460443D01*
X-16525319Y1470040D01*
X-16474114Y1638843D01*
X-16470367Y1647887D01*
X-16387213Y1803458D01*
X-16381779Y1811590D01*
X-16269868Y1947953D01*
X-16262953Y1954868D01*
X-16126590Y2066779D01*
X-16118458Y2072213D01*
X-15962887Y2155367D01*
X-15953843Y2159114D01*
X-15785040Y2210319D01*
X-15775443Y2212228D01*
X-15597443Y2229759D01*
X-15592550Y2230000D01*
X-15592550Y6660000D01*
X-15597443Y6660241D01*
X-15775443Y6677772D01*
X-15785040Y6679681D01*
X-15953843Y6730886D01*
X-15962887Y6734633D01*
X-16118458Y6817787D01*
X-16126590Y6823221D01*
X-16262953Y6935132D01*
X-16269868Y6942047D01*
X-16381779Y7078410D01*
X-16387213Y7086542D01*
X-16470367Y7242113D01*
X-16474114Y7251157D01*
X-16525319Y7419960D01*
X-16527228Y7429557D01*
X-16544518Y7605106D01*
X-16544518Y7614894D01*
X-16527228Y7790443D01*
X-16525319Y7800040D01*
X-16474114Y7968843D01*
X-16470367Y7977887D01*
X-16387213Y8133458D01*
X-16381779Y8141590D01*
X-16269868Y8277953D01*
X-16262953Y8284868D01*
X-16126590Y8396779D01*
X-16118458Y8402213D01*
X-15962887Y8485367D01*
X-15953843Y8489114D01*
X-15785040Y8540319D01*
X-15775443Y8542228D01*
X-15597443Y8559759D01*
X-15592550Y8560000D01*
X-14397450Y8560000D01*
X-14392557Y8559759D01*
X-14214557Y8542228D01*
X-14204960Y8540319D01*
X-14036157Y8489114D01*
X-14027113Y8485367D01*
X-13871542Y8402213D01*
X-13863410Y8396779D01*
X-13727047Y8284868D01*
X-13720132Y8277953D01*
X-13653334Y8196560D01*
X-13576034Y8160000D01*
X-9051994Y8160000D01*
X-9051994Y25291086D01*
X-9184699Y25315893D01*
X-9193567Y25318417D01*
X-9373109Y25387971D01*
X-9381339Y25392069D01*
X-9545053Y25493436D01*
X-9552397Y25498982D01*
X-9694684Y25628695D01*
X-9700896Y25635508D01*
X-9816926Y25789157D01*
X-9821774Y25796987D01*
X-9907594Y25969337D01*
X-9910924Y25977931D01*
X-9963616Y26163126D01*
X-9965308Y26172175D01*
X-9983286Y26366195D01*
X-9983500Y26370811D01*
X-9983500Y26503982D01*
X-9981934Y26508747D01*
X-9967487Y26516046D01*
X-9967487Y26820005D01*
X-9972252Y26821571D01*
X-9983500Y26843833D01*
X-9983500Y26969189D01*
X-9983286Y26973805D01*
X-9965308Y27167825D01*
X-9963616Y27176874D01*
X-9910924Y27362069D01*
X-9907594Y27370663D01*
X-9821774Y27543013D01*
X-9816926Y27550843D01*
X-9700896Y27704492D01*
X-9694684Y27711305D01*
X-9552397Y27841018D01*
X-9545053Y27846564D01*
X-9381339Y27947931D01*
X-9373109Y27952029D01*
X-9193567Y28021583D01*
X-9184699Y28024107D01*
X-9055745Y28048213D01*
X-9042296Y28046417D01*
X-9041711Y28045852D01*
X-9040005Y28038960D01*
X-9040005Y27748098D01*
X-9066570Y27745105D01*
X-9234287Y27686419D01*
X-9384739Y27591883D01*
X-9510383Y27466239D01*
X-9604919Y27315787D01*
X-9663605Y27148070D01*
X-9683500Y26971500D01*
X-9683500Y26820005D01*
X-9967487Y26820005D01*
X-9967487Y26516046D01*
X-9959672Y26519995D01*
X-9683500Y26519995D01*
X-9683500Y26368500D01*
X-9663605Y26191930D01*
X-9604919Y26024213D01*
X-9510383Y25873761D01*
X-9384739Y25748117D01*
X-9234287Y25653581D01*
X-9066570Y25594895D01*
X-9040005Y25591902D01*
X-9040005Y25304858D01*
X-9044242Y25291968D01*
X-9044905Y25291497D01*
X-9051994Y25291086D01*
X-9051994Y8160000D01*
X-8724255Y8160000D01*
X-8724255Y25291787D01*
X-8737704Y25293583D01*
X-8738289Y25294148D01*
X-8739995Y25301040D01*
X-8739995Y25591902D01*
X-8713430Y25594895D01*
X-8545713Y25653581D01*
X-8395261Y25748117D01*
X-8269617Y25873761D01*
X-8175081Y26024213D01*
X-8116395Y26191930D01*
X-8096500Y26368500D01*
X-8096500Y26519995D01*
X-8096500Y26820005D01*
X-8096500Y26971500D01*
X-8116395Y27148070D01*
X-8175081Y27315787D01*
X-8269617Y27466239D01*
X-8395261Y27591883D01*
X-8545713Y27686419D01*
X-8713430Y27745105D01*
X-8739995Y27748098D01*
X-8739995Y28035142D01*
X-8735758Y28048032D01*
X-8735095Y28048503D01*
X-8728006Y28048914D01*
X-8595301Y28024107D01*
X-8586433Y28021583D01*
X-8406891Y27952029D01*
X-8398661Y27947931D01*
X-8234947Y27846564D01*
X-8227603Y27841018D01*
X-8085316Y27711305D01*
X-8079104Y27704492D01*
X-7963074Y27550843D01*
X-7958226Y27543013D01*
X-7872406Y27370663D01*
X-7869076Y27362069D01*
X-7816384Y27176874D01*
X-7814692Y27167825D01*
X-7796714Y26973805D01*
X-7796500Y26969189D01*
X-7796500Y26836018D01*
X-7798066Y26831253D01*
X-7820328Y26820005D01*
X-8096500Y26820005D01*
X-8096500Y26519995D01*
X-7812513Y26519995D01*
X-7807748Y26518429D01*
X-7796500Y26496167D01*
X-7796500Y26370811D01*
X-7796714Y26366195D01*
X-7814692Y26172175D01*
X-7816384Y26163126D01*
X-7869076Y25977931D01*
X-7872406Y25969337D01*
X-7958226Y25796987D01*
X-7963074Y25789157D01*
X-8079104Y25635508D01*
X-8085316Y25628695D01*
X-8227603Y25498982D01*
X-8234947Y25493436D01*
X-8398661Y25392069D01*
X-8406891Y25387971D01*
X-8586433Y25318417D01*
X-8595301Y25315893D01*
X-8724255Y25291787D01*
X-8724255Y8160000D01*
X-6999999Y8160000D01*
X-6940672Y8179500D01*
X-6900000Y8259999D01*
X-6900000Y25372691D01*
X-6919500Y25432018D01*
X-6947357Y25457712D01*
X-7005048Y25493432D01*
X-7012397Y25498982D01*
X-7154684Y25628695D01*
X-7160896Y25635508D01*
X-7276926Y25789157D01*
X-7281774Y25796987D01*
X-7367594Y25969337D01*
X-7370924Y25977931D01*
X-7423616Y26163126D01*
X-7425308Y26172175D01*
X-7443286Y26366195D01*
X-7443500Y26370811D01*
X-7443500Y26969189D01*
X-7443286Y26973805D01*
X-7425308Y27167825D01*
X-7423616Y27176874D01*
X-7370924Y27362069D01*
X-7367594Y27370663D01*
X-7281774Y27543013D01*
X-7276926Y27550843D01*
X-7160896Y27704492D01*
X-7154684Y27711305D01*
X-7012397Y27841018D01*
X-7005053Y27846564D01*
X-6841339Y27947931D01*
X-6833109Y27952029D01*
X-6653567Y28021583D01*
X-6644699Y28024107D01*
X-6455439Y28059486D01*
X-6446274Y28060335D01*
X-6253726Y28060335D01*
X-6244561Y28059486D01*
X-6055301Y28024107D01*
X-6046433Y28021583D01*
X-5866891Y27952029D01*
X-5858661Y27947931D01*
X-5694947Y27846564D01*
X-5687603Y27841018D01*
X-5545316Y27711305D01*
X-5539104Y27704492D01*
X-5423074Y27550843D01*
X-5418226Y27543013D01*
X-5332406Y27370663D01*
X-5329076Y27362069D01*
X-5276384Y27176874D01*
X-5274692Y27167825D01*
X-5256714Y26973805D01*
X-5256500Y26969189D01*
X-5256500Y26370811D01*
X-5256714Y26366195D01*
X-5274692Y26172175D01*
X-5276384Y26163126D01*
X-5329076Y25977931D01*
X-5332406Y25969337D01*
X-5418226Y25796987D01*
X-5423074Y25789157D01*
X-5539104Y25635508D01*
X-5545316Y25628695D01*
X-5687603Y25498982D01*
X-5694952Y25493432D01*
X-5752643Y25457712D01*
X-5792819Y25409902D01*
X-5800000Y25372691D01*
X-5800000Y7613281D01*
X-5800429Y7606744D01*
X-5817885Y7474150D01*
X-5821249Y7461594D01*
X-5871178Y7341055D01*
X-5877676Y7329800D01*
X-5957101Y7226291D01*
X-5966291Y7217101D01*
X-6069800Y7137676D01*
X-6081055Y7131178D01*
X-6201594Y7081249D01*
X-6214150Y7077885D01*
X-6346744Y7060429D01*
X-6353281Y7060000D01*
X-13576034Y7060000D01*
X-13653334Y7023440D01*
X-13720132Y6942047D01*
X-13727047Y6935132D01*
X-13863410Y6823221D01*
X-13871542Y6817787D01*
X-14027113Y6734633D01*
X-14036157Y6730886D01*
X-14204960Y6679681D01*
X-14214557Y6677772D01*
X-14392557Y6660241D01*
X-14397450Y6660000D01*
X-15592550Y6660000D01*
X-15592550Y2230000D01*
X-14397450Y2230000D01*
X-14392557Y2229759D01*
X-14214557Y2212228D01*
X-14204960Y2210319D01*
X-14036157Y2159114D01*
X-14027113Y2155367D01*
X-13871542Y2072213D01*
X-13863410Y2066779D01*
X-13727047Y1954868D01*
X-13720132Y1947953D01*
X-13608221Y1811590D01*
X-13602787Y1803458D01*
X-13519633Y1647887D01*
X-13515886Y1638843D01*
X-13464681Y1470040D01*
X-13462772Y1460443D01*
X-13445482Y1284894D01*
X-13445482Y1275106D01*
X-13462772Y1099557D01*
X-13464681Y1089960D01*
X-13515886Y921157D01*
X-13519633Y912113D01*
X-13602787Y756542D01*
X-13608221Y748410D01*
X-13720132Y612047D01*
X-13727047Y605132D01*
X-13863410Y493221D01*
X-13871542Y487787D01*
X-14027113Y404633D01*
X-14036157Y400886D01*
X-14204960Y349681D01*
X-14214557Y347772D01*
X-14392557Y330241D01*
X-14397450Y330000D01*
X-15592550Y330000D01*
X-15592550Y-330000D01*
X-14397450Y-330000D01*
X-14392557Y-330241D01*
X-14214557Y-347772D01*
X-14204960Y-349681D01*
X-14036157Y-400886D01*
X-14027113Y-404633D01*
X-13871542Y-487787D01*
X-13863410Y-493221D01*
X-13727047Y-605132D01*
X-13720132Y-612047D01*
X-13608221Y-748410D01*
X-13602787Y-756542D01*
X-13519633Y-912113D01*
X-13515886Y-921157D01*
X-13464681Y-1089960D01*
X-13462772Y-1099557D01*
X-13445482Y-1275106D01*
X-13445482Y-1284894D01*
X-13462772Y-1460443D01*
X-13464681Y-1470040D01*
X-13515886Y-1638843D01*
X-13519633Y-1647887D01*
X-13602787Y-1803458D01*
X-13608221Y-1811590D01*
X-13720132Y-1947953D01*
X-13727047Y-1954868D01*
X-13863410Y-2066779D01*
X-13871542Y-2072213D01*
X-14027113Y-2155367D01*
X-14036157Y-2159114D01*
X-14204960Y-2210319D01*
X-14214557Y-2212228D01*
X-14354803Y-2226041D01*
X-14411933Y-2251262D01*
X-14445000Y-2325558D01*
X-14445000Y-2754442D01*
X-14425500Y-2813769D01*
X-14354803Y-2853959D01*
X-14214557Y-2867772D01*
X-14204960Y-2869681D01*
X-14036157Y-2920886D01*
X-14027113Y-2924633D01*
X-13871542Y-3007787D01*
X-13863410Y-3013221D01*
X-13727047Y-3125132D01*
X-13720132Y-3132047D01*
X-13608221Y-3268410D01*
X-13602787Y-3276542D01*
X-13519633Y-3432113D01*
X-13515886Y-3441157D01*
X-13464681Y-3609960D01*
X-13462772Y-3619557D01*
X-13445482Y-3795106D01*
X-13445482Y-3804894D01*
X-13462772Y-3980443D01*
X-13464681Y-3990040D01*
X-13515886Y-4158843D01*
X-13519633Y-4167887D01*
X-13602787Y-4323458D01*
X-13608221Y-4331590D01*
X-13720132Y-4467953D01*
X-13727047Y-4474868D01*
X-13863410Y-4586779D01*
X-13871542Y-4592213D01*
X-14027113Y-4675367D01*
X-14036157Y-4679114D01*
X-14204960Y-4730319D01*
X-14214557Y-4732228D01*
X-14392557Y-4749759D01*
X-14397450Y-4750000D01*
X-15592550Y-4750000D01*
X-15597443Y-4749759D01*
X-15775443Y-4732228D01*
X-15785040Y-4730319D01*
X-15953843Y-4679114D01*
X-15962887Y-4675367D01*
X-16118458Y-4592213D01*
X-16126590Y-4586779D01*
X-16262953Y-4474868D01*
X-16269868Y-4467953D01*
X-16381779Y-4331590D01*
X-16387213Y-4323458D01*
X-16470367Y-4167887D01*
X-16474114Y-4158843D01*
X-16525319Y-3990040D01*
X-16527228Y-3980442D01*
X-16543503Y-3815198D01*
X-16568724Y-3758067D01*
X-16643020Y-3725000D01*
X-27925001Y-3725000D01*
X-27984328Y-3744500D01*
X-28025000Y-3824999D01*
X-28025000Y-15225001D01*
X-28005500Y-15284328D01*
X-27925001Y-15325000D01*
X-16643020Y-15325000D01*
X-16583693Y-15305500D01*
X-16543503Y-15234802D01*
X-16527228Y-15069558D01*
X-16525319Y-15059960D01*
X-16474114Y-14891157D01*
X-16470367Y-14882113D01*
X-16387213Y-14726542D01*
X-16381779Y-14718410D01*
X-16269868Y-14582047D01*
X-16262953Y-14575132D01*
X-16126590Y-14463221D01*
X-16118458Y-14457787D01*
X-15962887Y-14374633D01*
X-15953843Y-14370886D01*
X-15785040Y-14319681D01*
X-15775443Y-14317772D01*
X-15597443Y-14300241D01*
X-15592550Y-14300000D01*
X-15592550Y-13640000D01*
X-15597443Y-13639759D01*
X-15775443Y-13622228D01*
X-15785040Y-13620319D01*
X-15953843Y-13569114D01*
X-15962887Y-13565367D01*
X-16118458Y-13482213D01*
X-16126590Y-13476779D01*
X-16262953Y-13364868D01*
X-16269868Y-13357953D01*
X-16381779Y-13221590D01*
X-16387213Y-13213458D01*
X-16470367Y-13057887D01*
X-16474114Y-13048843D01*
X-16525319Y-12880040D01*
X-16527228Y-12870443D01*
X-16544518Y-12694894D01*
X-16544518Y-12685106D01*
X-16527228Y-12509557D01*
X-16525319Y-12499960D01*
X-16474114Y-12331157D01*
X-16470367Y-12322113D01*
X-16387213Y-12166542D01*
X-16381779Y-12158410D01*
X-16269868Y-12022047D01*
X-16262953Y-12015132D01*
X-16126590Y-11903221D01*
X-16118458Y-11897787D01*
X-15962887Y-11814633D01*
X-15953843Y-11810886D01*
X-15785040Y-11759681D01*
X-15775443Y-11757772D01*
X-15597443Y-11740241D01*
X-15592550Y-11740000D01*
X-15592550Y-7310000D01*
X-15597443Y-7309759D01*
X-15775443Y-7292228D01*
X-15785040Y-7290319D01*
X-15953843Y-7239114D01*
X-15962887Y-7235367D01*
X-16118458Y-7152213D01*
X-16126590Y-7146779D01*
X-16262953Y-7034868D01*
X-16269868Y-7027953D01*
X-16381779Y-6891590D01*
X-16387213Y-6883458D01*
X-16470367Y-6727887D01*
X-16474114Y-6718843D01*
X-16525319Y-6550040D01*
X-16527228Y-6540443D01*
X-16544518Y-6364894D01*
X-16544518Y-6355106D01*
X-16527228Y-6179557D01*
X-16525319Y-6169960D01*
X-16474114Y-6001157D01*
X-16470367Y-5992113D01*
X-16387213Y-5836542D01*
X-16381779Y-5828410D01*
X-16269868Y-5692047D01*
X-16262953Y-5685132D01*
X-16126590Y-5573221D01*
X-16118458Y-5567787D01*
X-15962887Y-5484633D01*
X-15953843Y-5480886D01*
X-15785040Y-5429681D01*
X-15775443Y-5427772D01*
X-15597443Y-5410241D01*
X-15592550Y-5410000D01*
X-14397450Y-5410000D01*
X-14392557Y-5410241D01*
X-14214557Y-5427772D01*
X-14204960Y-5429681D01*
X-14036157Y-5480886D01*
X-14027113Y-5484633D01*
X-13871542Y-5567787D01*
X-13863410Y-5573221D01*
X-13727047Y-5685132D01*
X-13720132Y-5692047D01*
X-13653334Y-5773440D01*
X-13576034Y-5810000D01*
X-4459999Y-5810000D01*
X-4400672Y-5790500D01*
X-4360000Y-5710001D01*
X-4360000Y25372691D01*
X-4379500Y25432018D01*
X-4407357Y25457712D01*
X-4465048Y25493432D01*
X-4472397Y25498982D01*
X-4614684Y25628695D01*
X-4620896Y25635508D01*
X-4736926Y25789157D01*
X-4741774Y25796987D01*
X-4827594Y25969337D01*
X-4830924Y25977931D01*
X-4883616Y26163126D01*
X-4885308Y26172175D01*
X-4903286Y26366195D01*
X-4903500Y26370811D01*
X-4903500Y26969189D01*
X-4903286Y26973805D01*
X-4885308Y27167825D01*
X-4883616Y27176874D01*
X-4830924Y27362069D01*
X-4827594Y27370663D01*
X-4741774Y27543013D01*
X-4736926Y27550843D01*
X-4620896Y27704492D01*
X-4614684Y27711305D01*
X-4472397Y27841018D01*
X-4465053Y27846564D01*
X-4301339Y27947931D01*
X-4293109Y27952029D01*
X-4113567Y28021583D01*
X-4104699Y28024107D01*
X-3915439Y28059486D01*
X-3906274Y28060335D01*
X-3713726Y28060335D01*
X-3704561Y28059486D01*
X-3515301Y28024107D01*
X-3506433Y28021583D01*
X-3326891Y27952029D01*
X-3318661Y27947931D01*
X-3154947Y27846564D01*
X-3147603Y27841018D01*
X-3005316Y27711305D01*
X-2999104Y27704492D01*
X-2883074Y27550843D01*
X-2878226Y27543013D01*
X-2792406Y27370663D01*
X-2789076Y27362069D01*
X-2736384Y27176874D01*
X-2734692Y27167825D01*
X-2716714Y26973805D01*
X-2716500Y26969189D01*
X-2716500Y26370811D01*
X-2716714Y26366195D01*
X-2734692Y26172175D01*
X-2736384Y26163126D01*
X-2789076Y25977931D01*
X-2792406Y25969337D01*
X-2878226Y25796987D01*
X-2883074Y25789157D01*
X-2999104Y25635508D01*
X-3005316Y25628695D01*
X-3147603Y25498982D01*
X-3154952Y25493432D01*
X-3212643Y25457712D01*
X-3252819Y25409902D01*
X-3260000Y25372691D01*
X-3260000Y-6356719D01*
X-3260429Y-6363256D01*
X-3277885Y-6495850D01*
X-3281249Y-6508406D01*
X-3331178Y-6628945D01*
X-3337676Y-6640200D01*
X-3417101Y-6743709D01*
X-3426291Y-6752899D01*
X-3529800Y-6832324D01*
X-3541055Y-6838822D01*
X-3661594Y-6888751D01*
X-3674150Y-6892115D01*
X-3806744Y-6909571D01*
X-3813281Y-6910000D01*
X-13576034Y-6910000D01*
X-13653334Y-6946560D01*
X-13720132Y-7027953D01*
X-13727047Y-7034868D01*
X-13863410Y-7146779D01*
X-13871542Y-7152213D01*
X-14027113Y-7235367D01*
X-14036157Y-7239114D01*
X-14204960Y-7290319D01*
X-14214557Y-7292228D01*
X-14392557Y-7309759D01*
X-14397450Y-7310000D01*
X-15592550Y-7310000D01*
X-15592550Y-11740000D01*
X-14397450Y-11740000D01*
X-14392557Y-11740241D01*
X-14214557Y-11757772D01*
X-14204960Y-11759681D01*
X-14036157Y-11810886D01*
X-14027113Y-11814633D01*
X-13871542Y-11897787D01*
X-13863410Y-11903221D01*
X-13727047Y-12015132D01*
X-13720132Y-12022047D01*
X-13608221Y-12158410D01*
X-13602787Y-12166542D01*
X-13519633Y-12322113D01*
X-13515886Y-12331157D01*
X-13464681Y-12499960D01*
X-13462772Y-12509557D01*
X-13445482Y-12685106D01*
X-13445482Y-12694894D01*
X-13462772Y-12870443D01*
X-13464681Y-12880040D01*
X-13515886Y-13048843D01*
X-13519633Y-13057887D01*
X-13602787Y-13213458D01*
X-13608221Y-13221590D01*
X-13720132Y-13357953D01*
X-13727047Y-13364868D01*
X-13863410Y-13476779D01*
X-13871542Y-13482213D01*
X-14027113Y-13565367D01*
X-14036157Y-13569114D01*
X-14204960Y-13620319D01*
X-14214557Y-13622228D01*
X-14392557Y-13639759D01*
X-14397450Y-13640000D01*
X-15592550Y-13640000D01*
X-15592550Y-14300000D01*
X-14397450Y-14300000D01*
X-14392557Y-14300241D01*
X-14214557Y-14317772D01*
X-14204960Y-14319681D01*
X-14036157Y-14370886D01*
X-14027113Y-14374633D01*
X-13871542Y-14457787D01*
X-13863410Y-14463221D01*
X-13727047Y-14575132D01*
X-13720132Y-14582047D01*
X-13608221Y-14718410D01*
X-13602787Y-14726542D01*
X-13519633Y-14882113D01*
X-13515886Y-14891157D01*
X-13464681Y-15059960D01*
X-13462772Y-15069557D01*
X-13445482Y-15245106D01*
X-13445482Y-15254894D01*
X-13462772Y-15430443D01*
X-13464681Y-15440040D01*
X-13515886Y-15608843D01*
X-13519633Y-15617887D01*
X-13602787Y-15773458D01*
X-13608221Y-15781590D01*
X-13720132Y-15917953D01*
X-13727047Y-15924868D01*
X-13863410Y-16036779D01*
X-13871542Y-16042213D01*
X-14027113Y-16125367D01*
X-14036157Y-16129114D01*
X-14204960Y-16180319D01*
X-14214557Y-16182228D01*
X-14354803Y-16196041D01*
X-14411933Y-16221262D01*
X-14445000Y-16295558D01*
X-14445000Y-16724442D01*
X-14425500Y-16783769D01*
X-14354803Y-16823959D01*
X-14214557Y-16837772D01*
X-14204960Y-16839681D01*
X-14036157Y-16890886D01*
X-14027113Y-16894633D01*
X-13871542Y-16977787D01*
X-13863410Y-16983221D01*
X-13727047Y-17095132D01*
X-13720132Y-17102047D01*
X-13608221Y-17238410D01*
X-13602787Y-17246542D01*
X-13519633Y-17402113D01*
X-13515886Y-17411157D01*
X-13464681Y-17579960D01*
X-13462772Y-17589557D01*
X-13445482Y-17765106D01*
X-13445482Y-17774894D01*
X-13462772Y-17950443D01*
X-13464681Y-17960040D01*
X-13515886Y-18128843D01*
X-13519633Y-18137887D01*
X-13602787Y-18293458D01*
X-13608221Y-18301590D01*
X-13720132Y-18437953D01*
X-13727047Y-18444868D01*
X-13863410Y-18556779D01*
X-13871542Y-18562213D01*
X-14027113Y-18645367D01*
X-14036157Y-18649114D01*
X-14204960Y-18700319D01*
X-14214557Y-18702228D01*
X-14392557Y-18719759D01*
X-14397450Y-18720000D01*
X-15592550Y-18720000D01*
X-15597443Y-18719759D01*
X-15775443Y-18702228D01*
X-15785040Y-18700319D01*
X-15953843Y-18649114D01*
X-15962887Y-18645367D01*
X-16118458Y-18562213D01*
X-16126590Y-18556779D01*
X-16262953Y-18444868D01*
X-16269868Y-18437953D01*
X-16381779Y-18301590D01*
X-16387213Y-18293458D01*
X-16470367Y-18137887D01*
X-16474114Y-18128843D01*
X-16525319Y-17960040D01*
X-16527228Y-17950443D01*
X-16544518Y-17774894D01*
X-16544518Y-17765106D01*
X-16527228Y-17589557D01*
X-16525319Y-17579960D01*
X-16474114Y-17411157D01*
X-16470367Y-17402113D01*
X-16387213Y-17246542D01*
X-16381779Y-17238410D01*
X-16269868Y-17102047D01*
X-16262953Y-17095132D01*
X-16126590Y-16983221D01*
X-16118458Y-16977787D01*
X-15962887Y-16894633D01*
X-15953843Y-16890886D01*
X-15785040Y-16839681D01*
X-15775443Y-16837772D01*
X-15635197Y-16823959D01*
X-15578067Y-16798738D01*
X-15545000Y-16724442D01*
X-15545000Y-16524999D01*
X-15564500Y-16465672D01*
X-15644999Y-16425000D01*
X-17130001Y-16425000D01*
X-17189328Y-16444500D01*
X-17230000Y-16524999D01*
X-17230000Y-22210001D01*
X-17210500Y-22269328D01*
X-17130001Y-22310000D01*
X-15592550Y-22310000D01*
X-15592550Y-21280000D01*
X-15597443Y-21279759D01*
X-15775443Y-21262228D01*
X-15785040Y-21260319D01*
X-15953843Y-21209114D01*
X-15962887Y-21205367D01*
X-16118458Y-21122213D01*
X-16126590Y-21116779D01*
X-16262953Y-21004868D01*
X-16269868Y-20997953D01*
X-16381779Y-20861590D01*
X-16387213Y-20853458D01*
X-16470367Y-20697887D01*
X-16474114Y-20688843D01*
X-16525319Y-20520040D01*
X-16527228Y-20510443D01*
X-16544518Y-20334894D01*
X-16544518Y-20325106D01*
X-16527228Y-20149557D01*
X-16525319Y-20139960D01*
X-16474114Y-19971157D01*
X-16470367Y-19962113D01*
X-16387213Y-19806542D01*
X-16381779Y-19798410D01*
X-16269868Y-19662047D01*
X-16262953Y-19655132D01*
X-16126590Y-19543221D01*
X-16118458Y-19537787D01*
X-15962887Y-19454633D01*
X-15953843Y-19450886D01*
X-15785040Y-19399681D01*
X-15775443Y-19397772D01*
X-15597443Y-19380241D01*
X-15592550Y-19380000D01*
X-14397450Y-19380000D01*
X-14392557Y-19380241D01*
X-14214557Y-19397772D01*
X-14204960Y-19399681D01*
X-14036157Y-19450886D01*
X-14027113Y-19454633D01*
X-13871542Y-19537787D01*
X-13863410Y-19543221D01*
X-13727047Y-19655132D01*
X-13720132Y-19662047D01*
X-13653334Y-19743440D01*
X-13576034Y-19780000D01*
X6830431Y-19780000D01*
X6830431Y25275000D01*
X6822618Y25275615D01*
X6741569Y25288452D01*
X6726782Y25293256D01*
X6657174Y25328723D01*
X6644601Y25337858D01*
X6589358Y25393101D01*
X6580223Y25405674D01*
X6544756Y25475282D01*
X6539952Y25490069D01*
X6527115Y25571118D01*
X6526500Y25578931D01*
X6526500Y26503982D01*
X6528066Y26508747D01*
X6542513Y26516046D01*
X6542513Y26820005D01*
X6537748Y26821571D01*
X6526500Y26843833D01*
X6526500Y27761069D01*
X6527115Y27768882D01*
X6539952Y27849931D01*
X6544756Y27864718D01*
X6580223Y27934326D01*
X6589358Y27946899D01*
X6644601Y28002142D01*
X6657174Y28011277D01*
X6726782Y28046744D01*
X6741569Y28051548D01*
X6822618Y28064385D01*
X6830431Y28065000D01*
X7453982Y28065000D01*
X7458747Y28063434D01*
X7469995Y28041172D01*
X7469995Y27765000D01*
X6826500Y27765000D01*
X6826500Y26820005D01*
X6542513Y26820005D01*
X6542513Y26516046D01*
X6550328Y26519995D01*
X6826500Y26519995D01*
X6826500Y25575000D01*
X7469995Y25575000D01*
X7469995Y25291013D01*
X7468429Y25286248D01*
X7446167Y25275000D01*
X6830431Y25275000D01*
X6830431Y-19780000D01*
X7786018Y-19780000D01*
X7786018Y25275000D01*
X7781253Y25276566D01*
X7770005Y25298828D01*
X7770005Y25575000D01*
X8413500Y25575000D01*
X8413500Y26519995D01*
X8413500Y26820005D01*
X8413500Y27765000D01*
X7770005Y27765000D01*
X7770005Y28048987D01*
X7771571Y28053752D01*
X7793833Y28065000D01*
X8409569Y28065000D01*
X8417382Y28064385D01*
X8498431Y28051548D01*
X8513218Y28046744D01*
X8582826Y28011277D01*
X8595399Y28002142D01*
X8650642Y27946899D01*
X8659777Y27934326D01*
X8695244Y27864718D01*
X8700048Y27849931D01*
X8712885Y27768882D01*
X8713500Y27761069D01*
X8713500Y26836018D01*
X8711934Y26831253D01*
X8689672Y26820005D01*
X8413500Y26820005D01*
X8413500Y26519995D01*
X8697487Y26519995D01*
X8702252Y26518429D01*
X8713500Y26496167D01*
X8713500Y25578931D01*
X8712885Y25571118D01*
X8700048Y25490069D01*
X8695244Y25475282D01*
X8659777Y25405674D01*
X8650642Y25393101D01*
X8595399Y25337858D01*
X8582826Y25328723D01*
X8513218Y25293256D01*
X8498431Y25288452D01*
X8417382Y25275615D01*
X8409569Y25275000D01*
X7786018Y25275000D01*
X7786018Y-19780000D01*
X9510001Y-19780000D01*
X9569328Y-19760500D01*
X9610000Y-19680001D01*
X9610000Y25372691D01*
X9590500Y25432018D01*
X9562643Y25457712D01*
X9504952Y25493432D01*
X9497603Y25498982D01*
X9355316Y25628695D01*
X9349104Y25635508D01*
X9233074Y25789157D01*
X9228226Y25796987D01*
X9142406Y25969337D01*
X9139076Y25977931D01*
X9086384Y26163126D01*
X9084692Y26172175D01*
X9066714Y26366195D01*
X9066500Y26370811D01*
X9066500Y26969189D01*
X9066714Y26973805D01*
X9084692Y27167825D01*
X9086384Y27176874D01*
X9139076Y27362069D01*
X9142406Y27370663D01*
X9228226Y27543013D01*
X9233074Y27550843D01*
X9349104Y27704492D01*
X9355316Y27711305D01*
X9497603Y27841018D01*
X9504947Y27846564D01*
X9668661Y27947931D01*
X9676891Y27952029D01*
X9856433Y28021583D01*
X9865301Y28024107D01*
X10054561Y28059486D01*
X10063726Y28060335D01*
X10256274Y28060335D01*
X10265439Y28059486D01*
X10454699Y28024107D01*
X10463567Y28021583D01*
X10643109Y27952029D01*
X10651339Y27947931D01*
X10815053Y27846564D01*
X10822397Y27841018D01*
X10964684Y27711305D01*
X10970896Y27704492D01*
X11086926Y27550843D01*
X11091774Y27543013D01*
X11177594Y27370663D01*
X11180924Y27362069D01*
X11233616Y27176874D01*
X11235308Y27167825D01*
X11253286Y26973805D01*
X11253500Y26969189D01*
X11253500Y26370811D01*
X11253286Y26366195D01*
X11235308Y26172175D01*
X11233616Y26163126D01*
X11180924Y25977931D01*
X11177594Y25969337D01*
X11091774Y25796987D01*
X11086926Y25789157D01*
X10970896Y25635508D01*
X10964684Y25628695D01*
X10822397Y25498982D01*
X10815048Y25493432D01*
X10757357Y25457712D01*
X10717181Y25409902D01*
X10710000Y25372691D01*
X10710000Y-20326719D01*
X10709571Y-20333256D01*
X10692115Y-20465850D01*
X10688751Y-20478406D01*
X10638822Y-20598945D01*
X10632324Y-20610200D01*
X10552899Y-20713709D01*
X10543709Y-20722899D01*
X10440200Y-20802324D01*
X10428945Y-20808822D01*
X10308406Y-20858751D01*
X10295850Y-20862115D01*
X10163256Y-20879571D01*
X10156719Y-20880000D01*
X-13576034Y-20880000D01*
X-13653334Y-20916560D01*
X-13720132Y-20997953D01*
X-13727047Y-21004868D01*
X-13863410Y-21116779D01*
X-13871542Y-21122213D01*
X-14027113Y-21205367D01*
X-14036157Y-21209114D01*
X-14204960Y-21260319D01*
X-14214557Y-21262228D01*
X-14392557Y-21279759D01*
X-14397450Y-21280000D01*
X-15592550Y-21280000D01*
X-15592550Y-22310000D01*
X20940001Y-22310000D01*
X20999328Y-22290500D01*
X21040000Y-22210001D01*
X21040000Y26020001D01*
X21020500Y26079328D01*
X20940001Y26120000D01*
X13836862Y26120000D01*
X13777535Y26100500D01*
X13740680Y26047367D01*
X13720924Y25977931D01*
X13717594Y25969337D01*
X13631774Y25796987D01*
X13626926Y25789157D01*
X13510896Y25635508D01*
X13504684Y25628695D01*
X13362397Y25498982D01*
X13355053Y25493436D01*
X13191339Y25392069D01*
X13183109Y25387971D01*
X13003567Y25318417D01*
X12994699Y25315893D01*
X12805439Y25280514D01*
X12796274Y25279665D01*
X12603726Y25279665D01*
X12594561Y25280514D01*
X12405301Y25315893D01*
X12396433Y25318417D01*
X12216891Y25387971D01*
X12208661Y25392069D01*
X12044947Y25493436D01*
X12037603Y25498982D01*
X11895316Y25628695D01*
X11889104Y25635508D01*
X11773074Y25789157D01*
X11768226Y25796987D01*
X11682406Y25969337D01*
X11679076Y25977931D01*
X11626384Y26163126D01*
X11624692Y26172175D01*
X11606714Y26366195D01*
X11606500Y26370811D01*
X11606500Y26969189D01*
X11606714Y26973805D01*
X11624692Y27167825D01*
X11626384Y27176874D01*
X11679076Y27362069D01*
X11682406Y27370663D01*
X11768226Y27543013D01*
X11773074Y27550843D01*
X11889104Y27704492D01*
X11895316Y27711305D01*
X12037603Y27841018D01*
X12044947Y27846564D01*
X12208661Y27947931D01*
X12216891Y27952029D01*
X12396433Y28021583D01*
X12405301Y28024107D01*
X12594561Y28059486D01*
X12603726Y28060335D01*
X12796274Y28060335D01*
X12805439Y28059486D01*
X12994699Y28024107D01*
X13003567Y28021583D01*
X13183109Y27952029D01*
X13191339Y27947931D01*
X13355053Y27846564D01*
X13362397Y27841018D01*
X13504684Y27711305D01*
X13510896Y27704492D01*
X13626926Y27550843D01*
X13631774Y27543013D01*
X13717594Y27370663D01*
X13720924Y27362069D01*
X13740680Y27292633D01*
X13775672Y27240907D01*
X13836862Y27220000D01*
X21586719Y27220000D01*
X21593256Y27219571D01*
X21725850Y27202115D01*
X21738406Y27198751D01*
X21858945Y27148822D01*
X21870200Y27142324D01*
X21973709Y27062899D01*
X21982899Y27053709D01*
X22062324Y26950200D01*
X22068822Y26938945D01*
X22118751Y26818406D01*
X22122115Y26805850D01*
X22139571Y26673256D01*
X22140000Y26666719D01*
X22140000Y15899999D01*
X22159500Y15840672D01*
X22239999Y15800000D01*
X25006034Y15800000D01*
X25083334Y15836560D01*
X25150132Y15917953D01*
X25157047Y15924868D01*
X25293410Y16036779D01*
X25301542Y16042213D01*
X25457113Y16125367D01*
X25466157Y16129114D01*
X25634960Y16180319D01*
X25644557Y16182228D01*
X25822557Y16199759D01*
X25827450Y16200000D01*
X27022550Y16200000D01*
X27027443Y16199759D01*
X27205443Y16182228D01*
X27215040Y16180319D01*
X27383843Y16129114D01*
X27392887Y16125367D01*
X27548458Y16042213D01*
X27556590Y16036779D01*
X27692953Y15924868D01*
X27699868Y15917953D01*
X27811779Y15781590D01*
X27817213Y15773458D01*
X27836810Y15736794D01*
X27881974Y15693664D01*
X27943919Y15685740D01*
X27998486Y15716111D01*
X28025000Y15783933D01*
X28025000Y17141719D01*
X28025429Y17148256D01*
X28042885Y17280850D01*
X28046249Y17293406D01*
X28096178Y17413945D01*
X28102676Y17425200D01*
X28182101Y17528709D01*
X28191291Y17537899D01*
X28294800Y17617324D01*
X28306055Y17623822D01*
X28426594Y17673751D01*
X28439150Y17677115D01*
X28571744Y17694571D01*
X28578281Y17695000D01*
X31525001Y17695000D01*
X31584328Y17714500D01*
X31625000Y17794999D01*
X31625000Y17934569D01*
X31625615Y17942382D01*
X31638452Y18023431D01*
X31643256Y18038218D01*
X31678723Y18107826D01*
X31687858Y18120399D01*
X31743101Y18175642D01*
X31755674Y18184777D01*
X31825282Y18220244D01*
X31840069Y18225048D01*
X31921118Y18237885D01*
X31928931Y18238500D01*
X34111069Y18238500D01*
X34118882Y18237885D01*
X34199931Y18225048D01*
X34214718Y18220244D01*
X34284326Y18184777D01*
X34296899Y18175642D01*
X34352142Y18120399D01*
X34361277Y18107826D01*
X34396744Y18038218D01*
X34401548Y18023431D01*
X34414385Y17942382D01*
X34415000Y17934569D01*
X34415000Y16355431D01*
X34414385Y16347618D01*
X34401548Y16266569D01*
X34396744Y16251782D01*
X34361277Y16182174D01*
X34352142Y16169601D01*
X34296899Y16114358D01*
X34284326Y16105223D01*
X34214718Y16069756D01*
X34199931Y16064952D01*
X34118882Y16052115D01*
X34111069Y16051500D01*
X31928931Y16051500D01*
X31921118Y16052115D01*
X31840069Y16064952D01*
X31825282Y16069756D01*
X31755674Y16105223D01*
X31743101Y16114358D01*
X31687858Y16169601D01*
X31678723Y16182174D01*
X31643256Y16251782D01*
X31638452Y16266569D01*
X31625615Y16347618D01*
X31625000Y16355431D01*
X31625000Y16495001D01*
X31605500Y16554328D01*
X31525001Y16595000D01*
X29224999Y16595000D01*
X29165672Y16575500D01*
X29125000Y16495001D01*
X29125000Y14794418D01*
X29144500Y14735091D01*
X29195395Y14698902D01*
X29257836Y14699964D01*
X29317386Y14756150D01*
X29366178Y14873945D01*
X29372676Y14885200D01*
X29452101Y14988709D01*
X29461291Y14997899D01*
X29564800Y15077324D01*
X29576055Y15083822D01*
X29696594Y15133751D01*
X29709150Y15137115D01*
X29841744Y15154571D01*
X29848281Y15155000D01*
X31722691Y15155000D01*
X31782018Y15174500D01*
X31807712Y15202357D01*
X31843432Y15260048D01*
X31848982Y15267397D01*
X31978695Y15409684D01*
X31985508Y15415896D01*
X32139157Y15531926D01*
X32146987Y15536774D01*
X32319337Y15622594D01*
X32327931Y15625924D01*
X32513126Y15678616D01*
X32522175Y15680308D01*
X32716195Y15698286D01*
X32720811Y15698500D01*
X33319189Y15698500D01*
X33323805Y15698286D01*
X33517825Y15680308D01*
X33526874Y15678616D01*
X33712069Y15625924D01*
X33720663Y15622594D01*
X33893013Y15536774D01*
X33900843Y15531926D01*
X34054492Y15415896D01*
X34061305Y15409684D01*
X34191018Y15267397D01*
X34196564Y15260053D01*
X34297931Y15096339D01*
X34302029Y15088109D01*
X34371583Y14908567D01*
X34374107Y14899699D01*
X34409486Y14710439D01*
X34410335Y14701274D01*
X34410335Y14508726D01*
X34409486Y14499561D01*
X34374107Y14310301D01*
X34371583Y14301433D01*
X34302029Y14121891D01*
X34297931Y14113661D01*
X34196564Y13949947D01*
X34191018Y13942603D01*
X34061305Y13800316D01*
X34054492Y13794104D01*
X33900843Y13678074D01*
X33893013Y13673226D01*
X33720663Y13587406D01*
X33712069Y13584076D01*
X33526874Y13531384D01*
X33517825Y13529692D01*
X33323805Y13511714D01*
X33319189Y13511500D01*
X32720811Y13511500D01*
X32716195Y13511714D01*
X32522175Y13529692D01*
X32513126Y13531384D01*
X32327931Y13584076D01*
X32319337Y13587406D01*
X32146987Y13673226D01*
X32139157Y13678074D01*
X31985508Y13794104D01*
X31978695Y13800316D01*
X31848982Y13942603D01*
X31843432Y13949952D01*
X31807712Y14007643D01*
X31759902Y14047819D01*
X31722691Y14055000D01*
X30494999Y14055000D01*
X30435672Y14035500D01*
X30395000Y13955001D01*
X30395000Y10153281D01*
X30394571Y10146744D01*
X30377115Y10014150D01*
X30373751Y10001594D01*
X30323822Y9881055D01*
X30317324Y9869800D01*
X30237899Y9766291D01*
X30228709Y9757101D01*
X30125200Y9677676D01*
X30113945Y9671178D01*
X29993406Y9621249D01*
X29980850Y9617885D01*
X29848256Y9600429D01*
X29841719Y9600000D01*
X27843966Y9600000D01*
X27766666Y9563440D01*
X27699868Y9482047D01*
X27692953Y9475132D01*
X27556590Y9363221D01*
X27548458Y9357787D01*
X27392887Y9274633D01*
X27383843Y9270886D01*
X27215040Y9219681D01*
X27205443Y9217772D01*
X27027443Y9200241D01*
X27022550Y9200000D01*
X25827450Y9200000D01*
X25822557Y9200241D01*
X25644557Y9217772D01*
X25634960Y9219681D01*
X25466157Y9270886D01*
X25457113Y9274633D01*
X25301542Y9357787D01*
X25293410Y9363221D01*
X25157047Y9475132D01*
X25150132Y9482047D01*
X25038221Y9618410D01*
X25032787Y9626542D01*
X24949633Y9782113D01*
X24945886Y9791157D01*
X24894681Y9959960D01*
X24892772Y9969557D01*
X24875482Y10145106D01*
X24875482Y10154894D01*
X24892772Y10330443D01*
X24894681Y10340040D01*
X24945886Y10508843D01*
X24949633Y10517887D01*
X25032787Y10673458D01*
X25038221Y10681590D01*
X25150132Y10817953D01*
X25157047Y10824868D01*
X25293410Y10936779D01*
X25301542Y10942213D01*
X25457113Y11025367D01*
X25466157Y11029114D01*
X25634960Y11080319D01*
X25644557Y11082228D01*
X25822557Y11099759D01*
X25827450Y11100000D01*
X27022550Y11100000D01*
X27027443Y11099759D01*
X27205443Y11082228D01*
X27215040Y11080319D01*
X27383843Y11029114D01*
X27392887Y11025367D01*
X27548458Y10942213D01*
X27556590Y10936779D01*
X27692953Y10824868D01*
X27699868Y10817953D01*
X27766666Y10736560D01*
X27843966Y10700000D01*
X29195001Y10700000D01*
X29254328Y10719500D01*
X29295000Y10799999D01*
X29295000Y12520582D01*
X29275500Y12579909D01*
X29224605Y12616098D01*
X29162164Y12615036D01*
X29102614Y12558850D01*
X29053822Y12441055D01*
X29047324Y12429800D01*
X28967899Y12326291D01*
X28958709Y12317101D01*
X28855200Y12237676D01*
X28843945Y12231178D01*
X28723406Y12181249D01*
X28710850Y12177885D01*
X28578256Y12160429D01*
X28571719Y12160000D01*
X27843966Y12160000D01*
X27766666Y12123440D01*
X27699868Y12042047D01*
X27692953Y12035132D01*
X27556590Y11923221D01*
X27548458Y11917787D01*
X27392887Y11834633D01*
X27383843Y11830886D01*
X27215040Y11779681D01*
X27205443Y11777772D01*
X27027443Y11760241D01*
X27022550Y11760000D01*
X25827450Y11760000D01*
X25822557Y11760241D01*
X25644557Y11777772D01*
X25634960Y11779681D01*
X25466157Y11830886D01*
X25457113Y11834633D01*
X25301542Y11917787D01*
X25293410Y11923221D01*
X25157047Y12035132D01*
X25150132Y12042047D01*
X25038221Y12178410D01*
X25032787Y12186542D01*
X24949633Y12342113D01*
X24945886Y12351157D01*
X24894681Y12519960D01*
X24892772Y12529557D01*
X24875482Y12705106D01*
X24875482Y12714894D01*
X24892772Y12890443D01*
X24894681Y12900040D01*
X24945886Y13068843D01*
X24949633Y13077887D01*
X25032787Y13233458D01*
X25038221Y13241590D01*
X25150132Y13377953D01*
X25157047Y13384868D01*
X25293410Y13496779D01*
X25301542Y13502213D01*
X25457113Y13585367D01*
X25466157Y13589114D01*
X25634960Y13640319D01*
X25644557Y13642228D01*
X25822557Y13659759D01*
X25827450Y13660000D01*
X27022550Y13660000D01*
X27027443Y13659759D01*
X27205443Y13642228D01*
X27215040Y13640319D01*
X27383843Y13589114D01*
X27392887Y13585367D01*
X27548458Y13502213D01*
X27556590Y13496779D01*
X27692953Y13384868D01*
X27699868Y13377953D01*
X27766666Y13296560D01*
X27843966Y13260000D01*
X27925001Y13260000D01*
X27984328Y13279500D01*
X28025000Y13359999D01*
X28025000Y14716067D01*
X28005500Y14775394D01*
X27954605Y14811583D01*
X27892164Y14810521D01*
X27836810Y14763206D01*
X27817213Y14726542D01*
X27811779Y14718410D01*
X27699868Y14582047D01*
X27692953Y14575132D01*
X27556590Y14463221D01*
X27548458Y14457787D01*
X27392887Y14374633D01*
X27383843Y14370886D01*
X27215040Y14319681D01*
X27205443Y14317772D01*
X27027443Y14300241D01*
X27022550Y14300000D01*
X25827450Y14300000D01*
X25822557Y14300241D01*
X25644557Y14317772D01*
X25634960Y14319681D01*
X25466157Y14370886D01*
X25457113Y14374633D01*
X25301542Y14457787D01*
X25293410Y14463221D01*
X25157047Y14575132D01*
X25150132Y14582047D01*
X25083334Y14663440D01*
X25006034Y14700000D01*
X22239999Y14700000D01*
X22180672Y14680500D01*
X22140000Y14600001D01*
X22140000Y1929999D01*
X22159500Y1870672D01*
X22239999Y1830000D01*
X25006034Y1830000D01*
X25083334Y1866560D01*
X25150132Y1947953D01*
X25157047Y1954868D01*
X25293410Y2066779D01*
X25301542Y2072213D01*
X25457113Y2155367D01*
X25466157Y2159114D01*
X25634960Y2210319D01*
X25644557Y2212228D01*
X25822557Y2229759D01*
X25827450Y2230000D01*
X25827450Y6660000D01*
X25822557Y6660241D01*
X25644557Y6677772D01*
X25634960Y6679681D01*
X25466157Y6730886D01*
X25457113Y6734633D01*
X25301542Y6817787D01*
X25293410Y6823221D01*
X25157047Y6935132D01*
X25150132Y6942047D01*
X25038221Y7078410D01*
X25032787Y7086542D01*
X24949633Y7242113D01*
X24945886Y7251157D01*
X24894681Y7419960D01*
X24892772Y7429557D01*
X24891344Y7444060D01*
X24894296Y7457303D01*
X24896668Y7459368D01*
X24899773Y7459995D01*
X24905787Y7459995D01*
X24905787Y7760005D01*
X24892897Y7764242D01*
X24891076Y7766804D01*
X24890755Y7769963D01*
X24892772Y7790443D01*
X24894681Y7800040D01*
X24945886Y7968843D01*
X24949633Y7977887D01*
X25032787Y8133458D01*
X25038221Y8141590D01*
X25150132Y8277953D01*
X25157047Y8284868D01*
X25293410Y8396779D01*
X25301542Y8402213D01*
X25457113Y8485367D01*
X25466157Y8489114D01*
X25634960Y8540319D01*
X25644557Y8542228D01*
X25822557Y8559759D01*
X25827450Y8560000D01*
X26258982Y8560000D01*
X26263747Y8558434D01*
X26274995Y8536172D01*
X26274995Y8260000D01*
X25825000Y8260000D01*
X25669445Y8241112D01*
X25522930Y8185546D01*
X25393970Y8096532D01*
X25290060Y7979242D01*
X25217239Y7840493D01*
X25197401Y7760005D01*
X24905787Y7760005D01*
X24905787Y7459995D01*
X25197401Y7459995D01*
X25217239Y7379507D01*
X25290060Y7240758D01*
X25393970Y7123468D01*
X25522930Y7034454D01*
X25669445Y6978888D01*
X25825000Y6960000D01*
X26274995Y6960000D01*
X26274995Y6676013D01*
X26273429Y6671248D01*
X26251167Y6660000D01*
X25827450Y6660000D01*
X25827450Y2230000D01*
X27022550Y2230000D01*
X27027443Y2229759D01*
X27205443Y2212228D01*
X27215040Y2210319D01*
X27383843Y2159114D01*
X27392887Y2155367D01*
X27548458Y2072213D01*
X27556590Y2066779D01*
X27692953Y1954868D01*
X27699868Y1947953D01*
X27811779Y1811590D01*
X27817213Y1803458D01*
X27836810Y1766794D01*
X27881974Y1723664D01*
X27943919Y1715740D01*
X27998486Y1746111D01*
X28025000Y1813933D01*
X28025000Y6981719D01*
X28025429Y6988256D01*
X28038907Y7090634D01*
X28027318Y7151999D01*
X27981582Y7194522D01*
X27919537Y7201619D01*
X27851573Y7150826D01*
X27817213Y7086542D01*
X27811779Y7078410D01*
X27699868Y6942047D01*
X27692953Y6935132D01*
X27556590Y6823221D01*
X27548458Y6817787D01*
X27392887Y6734633D01*
X27383843Y6730886D01*
X27215040Y6679681D01*
X27205443Y6677772D01*
X27027443Y6660241D01*
X27022550Y6660000D01*
X26591018Y6660000D01*
X26586253Y6661566D01*
X26575005Y6683828D01*
X26575005Y6960000D01*
X27025000Y6960000D01*
X27180555Y6978888D01*
X27327070Y7034454D01*
X27456030Y7123468D01*
X27559940Y7240758D01*
X27632761Y7379507D01*
X27652599Y7459995D01*
X27652599Y7760005D01*
X27632761Y7840493D01*
X27559940Y7979242D01*
X27456030Y8096532D01*
X27327070Y8185546D01*
X27180555Y8241112D01*
X27025000Y8260000D01*
X26575005Y8260000D01*
X26575005Y8543987D01*
X26576571Y8548752D01*
X26598833Y8560000D01*
X27022550Y8560000D01*
X27027443Y8559759D01*
X27205443Y8542228D01*
X27215040Y8540319D01*
X27383843Y8489114D01*
X27392887Y8485367D01*
X27548458Y8402213D01*
X27556590Y8396779D01*
X27692953Y8284868D01*
X27699868Y8277953D01*
X27811779Y8141590D01*
X27817213Y8133458D01*
X27900367Y7977887D01*
X27904114Y7968843D01*
X27955319Y7800040D01*
X27957228Y7790443D01*
X27958656Y7775940D01*
X27955704Y7762697D01*
X27953332Y7760632D01*
X27950227Y7760005D01*
X27652599Y7760005D01*
X27652599Y7459995D01*
X27944213Y7459995D01*
X27957103Y7455758D01*
X27958924Y7453196D01*
X27959245Y7450037D01*
X27957228Y7429557D01*
X27955320Y7419964D01*
X27940873Y7372340D01*
X27942311Y7309907D01*
X27980509Y7260501D01*
X28040569Y7243392D01*
X28115900Y7282435D01*
X28182099Y7368707D01*
X28191291Y7377899D01*
X28294800Y7457324D01*
X28306055Y7463822D01*
X28426594Y7513751D01*
X28439150Y7517115D01*
X28571744Y7534571D01*
X28578281Y7535000D01*
X31722691Y7535000D01*
X31782018Y7554500D01*
X31807712Y7582357D01*
X31843432Y7640048D01*
X31848982Y7647397D01*
X31978695Y7789684D01*
X31985508Y7795896D01*
X32139157Y7911926D01*
X32146987Y7916774D01*
X32319337Y8002594D01*
X32327931Y8005924D01*
X32513126Y8058616D01*
X32522175Y8060308D01*
X32716195Y8078286D01*
X32720811Y8078500D01*
X33319189Y8078500D01*
X33323805Y8078286D01*
X33517825Y8060308D01*
X33526874Y8058616D01*
X33712069Y8005924D01*
X33720663Y8002594D01*
X33893013Y7916774D01*
X33900843Y7911926D01*
X34054492Y7795896D01*
X34061305Y7789684D01*
X34191018Y7647397D01*
X34196564Y7640053D01*
X34297931Y7476339D01*
X34302029Y7468109D01*
X34371583Y7288567D01*
X34374107Y7279699D01*
X34409486Y7090439D01*
X34410335Y7081274D01*
X34410335Y6888726D01*
X34409486Y6879561D01*
X34374107Y6690301D01*
X34371583Y6681433D01*
X34302029Y6501891D01*
X34297931Y6493661D01*
X34250862Y6417642D01*
X34236210Y6356936D01*
X34260430Y6299374D01*
X34335883Y6265000D01*
X34910001Y6265000D01*
X34969328Y6284500D01*
X35010000Y6364999D01*
X35010000Y8875001D01*
X34990500Y8934328D01*
X34910001Y8975000D01*
X34317309Y8975000D01*
X34257982Y8955500D01*
X34232288Y8927643D01*
X34196568Y8869952D01*
X34191018Y8862603D01*
X34061305Y8720316D01*
X34054492Y8714104D01*
X33900843Y8598074D01*
X33893013Y8593226D01*
X33720663Y8507406D01*
X33712069Y8504076D01*
X33526874Y8451384D01*
X33517825Y8449692D01*
X33323805Y8431714D01*
X33319189Y8431500D01*
X32720811Y8431500D01*
X32716195Y8431714D01*
X32522175Y8449692D01*
X32513126Y8451384D01*
X32327931Y8504076D01*
X32319337Y8507406D01*
X32146987Y8593226D01*
X32139157Y8598074D01*
X31985508Y8714104D01*
X31978695Y8720316D01*
X31848982Y8862603D01*
X31843436Y8869947D01*
X31742069Y9033661D01*
X31737971Y9041891D01*
X31668417Y9221433D01*
X31665893Y9230301D01*
X31630514Y9419561D01*
X31629665Y9428726D01*
X31629665Y9621274D01*
X31630514Y9630439D01*
X31665893Y9819699D01*
X31668417Y9828567D01*
X31737971Y10008109D01*
X31742069Y10016339D01*
X31843436Y10180053D01*
X31848982Y10187397D01*
X31978695Y10329684D01*
X31985508Y10335896D01*
X32139157Y10451926D01*
X32146987Y10456774D01*
X32319337Y10542594D01*
X32327931Y10545924D01*
X32513126Y10598616D01*
X32522175Y10600308D01*
X32716195Y10618286D01*
X32720811Y10618500D01*
X32720811Y10971500D01*
X32716195Y10971714D01*
X32522175Y10989692D01*
X32513126Y10991384D01*
X32327931Y11044076D01*
X32319337Y11047406D01*
X32146987Y11133226D01*
X32139157Y11138074D01*
X31985508Y11254104D01*
X31978695Y11260316D01*
X31848982Y11402603D01*
X31843436Y11409947D01*
X31742069Y11573661D01*
X31737971Y11581891D01*
X31668417Y11761433D01*
X31665893Y11770301D01*
X31641787Y11899255D01*
X31643583Y11912704D01*
X31644148Y11913289D01*
X31651040Y11914995D01*
X31654858Y11914995D01*
X31654858Y12215005D01*
X31641968Y12219242D01*
X31641497Y12219905D01*
X31641086Y12226994D01*
X31665893Y12359699D01*
X31668417Y12368567D01*
X31737971Y12548109D01*
X31742069Y12556339D01*
X31843436Y12720053D01*
X31848982Y12727397D01*
X31978695Y12869684D01*
X31985508Y12875896D01*
X32139157Y12991926D01*
X32146987Y12996774D01*
X32319337Y13082594D01*
X32327931Y13085924D01*
X32513126Y13138616D01*
X32522175Y13140308D01*
X32716195Y13158286D01*
X32720811Y13158500D01*
X32853982Y13158500D01*
X32858747Y13156934D01*
X32869995Y13134672D01*
X32869995Y12858500D01*
X32718500Y12858500D01*
X32541930Y12838605D01*
X32374213Y12779919D01*
X32223761Y12685383D01*
X32098117Y12559739D01*
X32003581Y12409287D01*
X31944895Y12241570D01*
X31941902Y12215005D01*
X31654858Y12215005D01*
X31654858Y11914995D01*
X31941902Y11914995D01*
X31944895Y11888430D01*
X32003581Y11720713D01*
X32098117Y11570261D01*
X32223761Y11444617D01*
X32374213Y11350081D01*
X32541930Y11291395D01*
X32718500Y11271500D01*
X32869995Y11271500D01*
X32869995Y10987513D01*
X32868429Y10982748D01*
X32846167Y10971500D01*
X32720811Y10971500D01*
X32720811Y10618500D01*
X33186018Y10618500D01*
X33186018Y10971500D01*
X33181253Y10973066D01*
X33170005Y10995328D01*
X33170005Y11271500D01*
X33321500Y11271500D01*
X33498070Y11291395D01*
X33665787Y11350081D01*
X33816239Y11444617D01*
X33941883Y11570261D01*
X34036419Y11720713D01*
X34095105Y11888430D01*
X34098098Y11914995D01*
X34098098Y12215005D01*
X34095105Y12241570D01*
X34036419Y12409287D01*
X33941883Y12559739D01*
X33816239Y12685383D01*
X33665787Y12779919D01*
X33498070Y12838605D01*
X33321500Y12858500D01*
X33170005Y12858500D01*
X33170005Y13142487D01*
X33171571Y13147252D01*
X33193833Y13158500D01*
X33319189Y13158500D01*
X33323805Y13158286D01*
X33517825Y13140308D01*
X33526874Y13138616D01*
X33712069Y13085924D01*
X33720663Y13082594D01*
X33893013Y12996774D01*
X33900843Y12991926D01*
X34054492Y12875896D01*
X34061305Y12869684D01*
X34191018Y12727397D01*
X34196564Y12720053D01*
X34297931Y12556339D01*
X34302029Y12548109D01*
X34371583Y12368567D01*
X34374107Y12359699D01*
X34398213Y12230745D01*
X34396417Y12217296D01*
X34395852Y12216711D01*
X34388960Y12215005D01*
X34098098Y12215005D01*
X34098098Y11914995D01*
X34385142Y11914995D01*
X34398032Y11910758D01*
X34398503Y11910095D01*
X34398914Y11903006D01*
X34374107Y11770301D01*
X34371583Y11761433D01*
X34302029Y11581891D01*
X34297931Y11573661D01*
X34196564Y11409947D01*
X34191018Y11402603D01*
X34061305Y11260316D01*
X34054492Y11254104D01*
X33900843Y11138074D01*
X33893013Y11133226D01*
X33720663Y11047406D01*
X33712069Y11044076D01*
X33526874Y10991384D01*
X33517825Y10989692D01*
X33323805Y10971714D01*
X33319189Y10971500D01*
X33186018Y10971500D01*
X33186018Y10618500D01*
X33319189Y10618500D01*
X33323805Y10618286D01*
X33517825Y10600308D01*
X33526874Y10598616D01*
X33712069Y10545924D01*
X33720663Y10542594D01*
X33893013Y10456774D01*
X33900843Y10451926D01*
X34054492Y10335896D01*
X34061305Y10329684D01*
X34191018Y10187397D01*
X34196568Y10180048D01*
X34232288Y10122357D01*
X34280098Y10082181D01*
X34317309Y10075000D01*
X35556719Y10075000D01*
X35563256Y10074571D01*
X35695850Y10057115D01*
X35708406Y10053751D01*
X35828945Y10003822D01*
X35840200Y9997324D01*
X35943709Y9917899D01*
X35952899Y9908709D01*
X36032324Y9805200D01*
X36038822Y9793945D01*
X36088751Y9673406D01*
X36092115Y9660850D01*
X36109571Y9528256D01*
X36110000Y9521719D01*
X36110000Y5718281D01*
X36109571Y5711744D01*
X36092115Y5579150D01*
X36088751Y5566594D01*
X36038822Y5446055D01*
X36032324Y5434800D01*
X35952899Y5331291D01*
X35943709Y5322101D01*
X35840200Y5242676D01*
X35828945Y5236178D01*
X35708406Y5186249D01*
X35695850Y5182885D01*
X35563256Y5165429D01*
X35556719Y5165000D01*
X34335883Y5165000D01*
X34276556Y5145500D01*
X34240367Y5094605D01*
X34250862Y5012358D01*
X34297931Y4936339D01*
X34302029Y4928109D01*
X34371583Y4748567D01*
X34374107Y4739699D01*
X34409486Y4550439D01*
X34410335Y4541274D01*
X34410335Y4348726D01*
X34409486Y4339561D01*
X34374107Y4150301D01*
X34371583Y4141433D01*
X34302029Y3961891D01*
X34297931Y3953661D01*
X34196564Y3789947D01*
X34191018Y3782603D01*
X34061305Y3640316D01*
X34054492Y3634104D01*
X33900843Y3518074D01*
X33893013Y3513226D01*
X33720663Y3427406D01*
X33712069Y3424076D01*
X33526874Y3371384D01*
X33517825Y3369692D01*
X33323805Y3351714D01*
X33319189Y3351500D01*
X32720811Y3351500D01*
X32716195Y3351714D01*
X32522175Y3369692D01*
X32513126Y3371384D01*
X32327931Y3424076D01*
X32319337Y3427406D01*
X32146987Y3513226D01*
X32139157Y3518074D01*
X31985508Y3634104D01*
X31978695Y3640316D01*
X31848982Y3782603D01*
X31843436Y3789947D01*
X31742069Y3953661D01*
X31737971Y3961891D01*
X31668417Y4141433D01*
X31665893Y4150301D01*
X31630514Y4339561D01*
X31629665Y4348726D01*
X31629665Y4541274D01*
X31630514Y4550439D01*
X31665893Y4739699D01*
X31668417Y4748567D01*
X31737971Y4928109D01*
X31742069Y4936339D01*
X31789138Y5012358D01*
X31803790Y5073064D01*
X31779570Y5130626D01*
X31704117Y5165000D01*
X30494999Y5165000D01*
X30435672Y5145500D01*
X30395000Y5065001D01*
X30395000Y-3816719D01*
X30394571Y-3823256D01*
X30377115Y-3955850D01*
X30373751Y-3968406D01*
X30323822Y-4088945D01*
X30317324Y-4100200D01*
X30237899Y-4203709D01*
X30228709Y-4212899D01*
X30125200Y-4292324D01*
X30113945Y-4298822D01*
X29993406Y-4348751D01*
X29980850Y-4352115D01*
X29848256Y-4369571D01*
X29841719Y-4370000D01*
X27843966Y-4370000D01*
X27766666Y-4406560D01*
X27699868Y-4487953D01*
X27692953Y-4494868D01*
X27556590Y-4606779D01*
X27548458Y-4612213D01*
X27392887Y-4695367D01*
X27383843Y-4699114D01*
X27215040Y-4750319D01*
X27205443Y-4752228D01*
X27027443Y-4769759D01*
X27022550Y-4770000D01*
X25827450Y-4770000D01*
X25822557Y-4769759D01*
X25644557Y-4752228D01*
X25634960Y-4750319D01*
X25466157Y-4699114D01*
X25457113Y-4695367D01*
X25301542Y-4612213D01*
X25293410Y-4606779D01*
X25157047Y-4494868D01*
X25150132Y-4487953D01*
X25038221Y-4351590D01*
X25032787Y-4343458D01*
X24949633Y-4187887D01*
X24945886Y-4178843D01*
X24894681Y-4010040D01*
X24892772Y-4000443D01*
X24875482Y-3824894D01*
X24875482Y-3815106D01*
X24892772Y-3639557D01*
X24894681Y-3629960D01*
X24945886Y-3461157D01*
X24949633Y-3452113D01*
X25032787Y-3296542D01*
X25038221Y-3288410D01*
X25150132Y-3152047D01*
X25157047Y-3145132D01*
X25293410Y-3033221D01*
X25301542Y-3027787D01*
X25457113Y-2944633D01*
X25466157Y-2940886D01*
X25634960Y-2889681D01*
X25644557Y-2887772D01*
X25822557Y-2870241D01*
X25827450Y-2870000D01*
X27022550Y-2870000D01*
X27027443Y-2870241D01*
X27205443Y-2887772D01*
X27215040Y-2889681D01*
X27383843Y-2940886D01*
X27392887Y-2944633D01*
X27548458Y-3027787D01*
X27556590Y-3033221D01*
X27692953Y-3145132D01*
X27699868Y-3152047D01*
X27766666Y-3233440D01*
X27843966Y-3270000D01*
X29195001Y-3270000D01*
X29254328Y-3250500D01*
X29295000Y-3170001D01*
X29295000Y-1459418D01*
X29275500Y-1400091D01*
X29224605Y-1363902D01*
X29162164Y-1364964D01*
X29102614Y-1421150D01*
X29053822Y-1538945D01*
X29047324Y-1550200D01*
X28967899Y-1653709D01*
X28958709Y-1662899D01*
X28855200Y-1742324D01*
X28843945Y-1748822D01*
X28723406Y-1798751D01*
X28710850Y-1802115D01*
X28581502Y-1819144D01*
X28568498Y-1819144D01*
X28505546Y-1810856D01*
X28492493Y-1810000D01*
X27843966Y-1810000D01*
X27766666Y-1846560D01*
X27699868Y-1927953D01*
X27692953Y-1934868D01*
X27556590Y-2046779D01*
X27548458Y-2052213D01*
X27392887Y-2135367D01*
X27383843Y-2139114D01*
X27215040Y-2190319D01*
X27205443Y-2192228D01*
X27027443Y-2209759D01*
X27022550Y-2210000D01*
X25827450Y-2210000D01*
X25822557Y-2209759D01*
X25644557Y-2192228D01*
X25634960Y-2190319D01*
X25466157Y-2139114D01*
X25457113Y-2135367D01*
X25301542Y-2052213D01*
X25293410Y-2046779D01*
X25157047Y-1934868D01*
X25150132Y-1927953D01*
X25038221Y-1791590D01*
X25032787Y-1783458D01*
X24949633Y-1627887D01*
X24945886Y-1618843D01*
X24894681Y-1450040D01*
X24892772Y-1440443D01*
X24875482Y-1264894D01*
X24875482Y-1255106D01*
X24892772Y-1079557D01*
X24894681Y-1069960D01*
X24945886Y-901157D01*
X24949633Y-892113D01*
X25032787Y-736542D01*
X25038221Y-728410D01*
X25150132Y-592047D01*
X25157047Y-585132D01*
X25293410Y-473221D01*
X25301542Y-467787D01*
X25457113Y-384633D01*
X25466157Y-380886D01*
X25634960Y-329681D01*
X25644557Y-327772D01*
X25822557Y-310241D01*
X25827450Y-310000D01*
X27022550Y-310000D01*
X27027443Y-310241D01*
X27205443Y-327772D01*
X27215040Y-329681D01*
X27383843Y-380886D01*
X27392887Y-384633D01*
X27548458Y-467787D01*
X27556590Y-473221D01*
X27692953Y-585132D01*
X27699868Y-592047D01*
X27766666Y-673440D01*
X27843966Y-710000D01*
X27925001Y-710000D01*
X27984328Y-690500D01*
X28025000Y-610001D01*
X28025000Y746067D01*
X28005500Y805394D01*
X27954605Y841583D01*
X27892164Y840521D01*
X27836810Y793206D01*
X27817213Y756542D01*
X27811779Y748410D01*
X27699868Y612047D01*
X27692953Y605132D01*
X27556590Y493221D01*
X27548458Y487787D01*
X27392887Y404633D01*
X27383843Y400886D01*
X27215040Y349681D01*
X27205443Y347772D01*
X27027443Y330241D01*
X27022550Y330000D01*
X25827450Y330000D01*
X25822557Y330241D01*
X25644557Y347772D01*
X25634960Y349681D01*
X25466157Y400886D01*
X25457113Y404633D01*
X25301542Y487787D01*
X25293410Y493221D01*
X25157047Y605132D01*
X25150132Y612047D01*
X25083334Y693440D01*
X25006034Y730000D01*
X22239999Y730000D01*
X22180672Y710500D01*
X22140000Y630001D01*
X22140000Y-12040001D01*
X22159500Y-12099328D01*
X22239999Y-12140000D01*
X25006034Y-12140000D01*
X25083334Y-12103440D01*
X25150132Y-12022047D01*
X25157047Y-12015132D01*
X25293410Y-11903221D01*
X25301542Y-11897787D01*
X25457113Y-11814633D01*
X25466157Y-11810886D01*
X25634960Y-11759681D01*
X25644557Y-11757772D01*
X25822557Y-11740241D01*
X25827450Y-11740000D01*
X25827450Y-7310000D01*
X25822557Y-7309759D01*
X25644557Y-7292228D01*
X25634960Y-7290319D01*
X25466157Y-7239114D01*
X25457113Y-7235367D01*
X25301542Y-7152213D01*
X25293410Y-7146779D01*
X25157047Y-7034868D01*
X25150132Y-7027953D01*
X25038221Y-6891590D01*
X25032787Y-6883458D01*
X24949633Y-6727887D01*
X24945886Y-6718843D01*
X24894681Y-6550040D01*
X24892772Y-6540443D01*
X24891344Y-6525940D01*
X24894296Y-6512697D01*
X24896668Y-6510632D01*
X24899773Y-6510005D01*
X24905787Y-6510005D01*
X24905787Y-6209995D01*
X24892897Y-6205758D01*
X24891076Y-6203196D01*
X24890755Y-6200037D01*
X24892772Y-6179557D01*
X24894681Y-6169960D01*
X24945886Y-6001157D01*
X24949633Y-5992113D01*
X25032787Y-5836542D01*
X25038221Y-5828410D01*
X25150132Y-5692047D01*
X25157047Y-5685132D01*
X25293410Y-5573221D01*
X25301542Y-5567787D01*
X25457113Y-5484633D01*
X25466157Y-5480886D01*
X25634960Y-5429681D01*
X25644557Y-5427772D01*
X25822557Y-5410241D01*
X25827450Y-5410000D01*
X26258982Y-5410000D01*
X26263747Y-5411566D01*
X26274995Y-5433828D01*
X26274995Y-5710000D01*
X25825000Y-5710000D01*
X25669445Y-5728888D01*
X25522930Y-5784454D01*
X25393970Y-5873468D01*
X25290060Y-5990758D01*
X25217239Y-6129507D01*
X25197401Y-6209995D01*
X24905787Y-6209995D01*
X24905787Y-6510005D01*
X25197401Y-6510005D01*
X25217239Y-6590493D01*
X25290060Y-6729242D01*
X25393970Y-6846532D01*
X25522930Y-6935546D01*
X25669445Y-6991112D01*
X25825000Y-7010000D01*
X26274995Y-7010000D01*
X26274995Y-7293987D01*
X26273429Y-7298752D01*
X26251167Y-7310000D01*
X25827450Y-7310000D01*
X25827450Y-11740000D01*
X26591018Y-11740000D01*
X26591018Y-7310000D01*
X26586253Y-7308434D01*
X26575005Y-7286172D01*
X26575005Y-7010000D01*
X27025000Y-7010000D01*
X27180555Y-6991112D01*
X27327070Y-6935546D01*
X27456030Y-6846532D01*
X27559940Y-6729242D01*
X27632761Y-6590493D01*
X27652599Y-6510005D01*
X27652599Y-6209995D01*
X27632761Y-6129507D01*
X27559940Y-5990758D01*
X27456030Y-5873468D01*
X27327070Y-5784454D01*
X27180555Y-5728888D01*
X27025000Y-5710000D01*
X26575005Y-5710000D01*
X26575005Y-5426013D01*
X26576571Y-5421248D01*
X26598833Y-5410000D01*
X27022550Y-5410000D01*
X27027443Y-5410241D01*
X27205443Y-5427772D01*
X27215040Y-5429681D01*
X27383843Y-5480886D01*
X27392887Y-5484633D01*
X27548458Y-5567787D01*
X27556590Y-5573221D01*
X27692953Y-5685132D01*
X27699868Y-5692047D01*
X27811779Y-5828410D01*
X27817213Y-5836542D01*
X27900367Y-5992113D01*
X27904114Y-6001157D01*
X27955319Y-6169960D01*
X27957228Y-6179557D01*
X27958656Y-6194060D01*
X27955704Y-6207303D01*
X27953332Y-6209368D01*
X27950227Y-6209995D01*
X27652599Y-6209995D01*
X27652599Y-6510005D01*
X27944213Y-6510005D01*
X27957103Y-6514242D01*
X27958924Y-6516804D01*
X27959245Y-6519963D01*
X27957228Y-6540443D01*
X27955319Y-6550040D01*
X27904114Y-6718843D01*
X27900367Y-6727887D01*
X27817213Y-6883458D01*
X27811779Y-6891590D01*
X27699868Y-7027953D01*
X27692953Y-7034868D01*
X27556590Y-7146779D01*
X27548458Y-7152213D01*
X27392887Y-7235367D01*
X27383843Y-7239114D01*
X27215040Y-7290319D01*
X27205443Y-7292228D01*
X27027443Y-7309759D01*
X27022550Y-7310000D01*
X26591018Y-7310000D01*
X26591018Y-11740000D01*
X27022550Y-11740000D01*
X27027443Y-11740241D01*
X27205443Y-11757772D01*
X27215040Y-11759681D01*
X27383843Y-11810886D01*
X27392887Y-11814633D01*
X27548458Y-11897787D01*
X27556590Y-11903221D01*
X27692953Y-12015132D01*
X27699868Y-12022047D01*
X27811779Y-12158410D01*
X27817213Y-12166542D01*
X27900367Y-12322113D01*
X27904114Y-12331157D01*
X27955319Y-12499960D01*
X27957228Y-12509557D01*
X27974518Y-12685106D01*
X27974518Y-12694894D01*
X27957228Y-12870443D01*
X27955319Y-12880040D01*
X27904114Y-13048843D01*
X27900367Y-13057887D01*
X27817213Y-13213458D01*
X27811779Y-13221590D01*
X27699868Y-13357953D01*
X27692953Y-13364868D01*
X27556590Y-13476779D01*
X27548458Y-13482213D01*
X27392887Y-13565367D01*
X27383843Y-13569114D01*
X27215040Y-13620319D01*
X27205443Y-13622228D01*
X27027443Y-13639759D01*
X27022550Y-13640000D01*
X25827450Y-13640000D01*
X25822557Y-13639759D01*
X25644557Y-13622228D01*
X25634960Y-13620319D01*
X25466157Y-13569114D01*
X25457113Y-13565367D01*
X25301542Y-13482213D01*
X25293410Y-13476779D01*
X25157047Y-13364868D01*
X25150132Y-13357953D01*
X25083334Y-13276560D01*
X25006034Y-13240000D01*
X22307507Y-13240000D01*
X22294454Y-13240856D01*
X22226946Y-13249744D01*
X22170672Y-13276821D01*
X22140000Y-13348887D01*
X22140000Y-22856719D01*
X22139571Y-22863256D01*
X22122115Y-22995850D01*
X22118751Y-23008406D01*
X22068822Y-23128945D01*
X22062324Y-23140200D01*
X21982899Y-23243709D01*
X21973709Y-23252899D01*
X21870200Y-23332324D01*
X21858945Y-23338822D01*
X21738406Y-23388751D01*
X21725850Y-23392115D01*
X21593256Y-23409571D01*
X21586719Y-23410000D01*
X-17776719Y-23410000D01*
X-17783256Y-23409571D01*
X-17915850Y-23392115D01*
X-17928406Y-23388751D01*
X-18048945Y-23338822D01*
X-18060200Y-23332324D01*
X-18163709Y-23252899D01*
X-18172899Y-23243709D01*
X-18230666Y-23168425D01*
X-18282253Y-23133228D01*
X-18344661Y-23135500D01*
X-18393552Y-23174354D01*
X-18410000Y-23229300D01*
X-18410000Y-23536069D01*
X-18410615Y-23543882D01*
X-18423452Y-23624931D01*
X-18428256Y-23639718D01*
X-18463723Y-23709326D01*
X-18472858Y-23721899D01*
X-18528101Y-23777142D01*
X-18540674Y-23786277D01*
X-18610282Y-23821744D01*
X-18625069Y-23826548D01*
X-18706118Y-23839385D01*
X-18713931Y-23840000D01*
X-20043982Y-23840000D01*
X-20043982Y-26120000D01*
X25827450Y-26120000D01*
X25827450Y-21280000D01*
X25822557Y-21279759D01*
X25644557Y-21262228D01*
X25634960Y-21260319D01*
X25466157Y-21209114D01*
X25457113Y-21205367D01*
X25301542Y-21122213D01*
X25293410Y-21116779D01*
X25157047Y-21004868D01*
X25150132Y-20997953D01*
X25038221Y-20861590D01*
X25032787Y-20853458D01*
X24949633Y-20697887D01*
X24945886Y-20688843D01*
X24894681Y-20520040D01*
X24892772Y-20510443D01*
X24891344Y-20495940D01*
X24894296Y-20482697D01*
X24896668Y-20480632D01*
X24899773Y-20480005D01*
X24905787Y-20480005D01*
X24905787Y-20179995D01*
X24892897Y-20175758D01*
X24891076Y-20173196D01*
X24890755Y-20170037D01*
X24892772Y-20149557D01*
X24894681Y-20139960D01*
X24945886Y-19971157D01*
X24949633Y-19962113D01*
X25032787Y-19806542D01*
X25038221Y-19798410D01*
X25150132Y-19662047D01*
X25157047Y-19655132D01*
X25293410Y-19543221D01*
X25301542Y-19537787D01*
X25457113Y-19454633D01*
X25466157Y-19450886D01*
X25634960Y-19399681D01*
X25644557Y-19397772D01*
X25822557Y-19380241D01*
X25827450Y-19380000D01*
X25827450Y-18740000D01*
X25822557Y-18739759D01*
X25644557Y-18722228D01*
X25634960Y-18720319D01*
X25466157Y-18669114D01*
X25457113Y-18665367D01*
X25301542Y-18582213D01*
X25293410Y-18576779D01*
X25157047Y-18464868D01*
X25150132Y-18457953D01*
X25038221Y-18321590D01*
X25032787Y-18313458D01*
X24949633Y-18157887D01*
X24945886Y-18148843D01*
X24894681Y-17980040D01*
X24892772Y-17970443D01*
X24875482Y-17794894D01*
X24875482Y-17785106D01*
X24892772Y-17609557D01*
X24894681Y-17599960D01*
X24945886Y-17431157D01*
X24949633Y-17422113D01*
X25032787Y-17266542D01*
X25038221Y-17258410D01*
X25150132Y-17122047D01*
X25157047Y-17115132D01*
X25293410Y-17003221D01*
X25301542Y-16997787D01*
X25457113Y-16914633D01*
X25466157Y-16910886D01*
X25634960Y-16859681D01*
X25644557Y-16857772D01*
X25822557Y-16840241D01*
X25827450Y-16840000D01*
X25827450Y-16180000D01*
X25822557Y-16179759D01*
X25644557Y-16162228D01*
X25634960Y-16160319D01*
X25466157Y-16109114D01*
X25457113Y-16105367D01*
X25301542Y-16022213D01*
X25293410Y-16016779D01*
X25157047Y-15904868D01*
X25150132Y-15897953D01*
X25038221Y-15761590D01*
X25032787Y-15753458D01*
X24949633Y-15597887D01*
X24945886Y-15588843D01*
X24894681Y-15420040D01*
X24892772Y-15410443D01*
X24875482Y-15234894D01*
X24875482Y-15225106D01*
X24892772Y-15049557D01*
X24894681Y-15039960D01*
X24945886Y-14871157D01*
X24949633Y-14862113D01*
X25032787Y-14706542D01*
X25038221Y-14698410D01*
X25150132Y-14562047D01*
X25157047Y-14555132D01*
X25293410Y-14443221D01*
X25301542Y-14437787D01*
X25457113Y-14354633D01*
X25466157Y-14350886D01*
X25634960Y-14299681D01*
X25644557Y-14297772D01*
X25822557Y-14280241D01*
X25827450Y-14280000D01*
X27022550Y-14280000D01*
X27027443Y-14280241D01*
X27205443Y-14297772D01*
X27215040Y-14299681D01*
X27383843Y-14350886D01*
X27392887Y-14354633D01*
X27548458Y-14437787D01*
X27556590Y-14443221D01*
X27692953Y-14555132D01*
X27699868Y-14562047D01*
X27774873Y-14653440D01*
X27852173Y-14690000D01*
X28911042Y-14690000D01*
X28986967Y-14655079D01*
X32445926Y-10619628D01*
X32470000Y-10554550D01*
X32470000Y-1771862D01*
X32450500Y-1712535D01*
X32397367Y-1675680D01*
X32327931Y-1655924D01*
X32319337Y-1652594D01*
X32146987Y-1566774D01*
X32139157Y-1561926D01*
X31985508Y-1445896D01*
X31978695Y-1439684D01*
X31848982Y-1297397D01*
X31843436Y-1290053D01*
X31742069Y-1126339D01*
X31737971Y-1118109D01*
X31668417Y-938567D01*
X31665893Y-929699D01*
X31630514Y-740439D01*
X31629665Y-731274D01*
X31629665Y-538726D01*
X31630514Y-529561D01*
X31665893Y-340301D01*
X31668417Y-331433D01*
X31737971Y-151891D01*
X31742069Y-143661D01*
X31843436Y20053D01*
X31848982Y27397D01*
X31978695Y169684D01*
X31985508Y175896D01*
X32139157Y291926D01*
X32146987Y296774D01*
X32319337Y382594D01*
X32327931Y385924D01*
X32513126Y438616D01*
X32522175Y440308D01*
X32716195Y458286D01*
X32720811Y458500D01*
X33319189Y458500D01*
X33323805Y458286D01*
X33517825Y440308D01*
X33526874Y438616D01*
X33712069Y385924D01*
X33720663Y382594D01*
X33893013Y296774D01*
X33900843Y291926D01*
X34054492Y175896D01*
X34061305Y169684D01*
X34191018Y27397D01*
X34196564Y20053D01*
X34297931Y-143661D01*
X34302029Y-151891D01*
X34371583Y-331433D01*
X34374107Y-340301D01*
X34409486Y-529561D01*
X34410335Y-538726D01*
X34410335Y-731274D01*
X34409486Y-740439D01*
X34374107Y-929699D01*
X34371583Y-938567D01*
X34302029Y-1118109D01*
X34297931Y-1126339D01*
X34196564Y-1290053D01*
X34191018Y-1297397D01*
X34061305Y-1439684D01*
X34054492Y-1445896D01*
X33900843Y-1561926D01*
X33893013Y-1566774D01*
X33720663Y-1652594D01*
X33712069Y-1655924D01*
X33642633Y-1675680D01*
X33590907Y-1710672D01*
X33570000Y-1771862D01*
X33570000Y-10791719D01*
X33569571Y-10798256D01*
X33563866Y-10841592D01*
X33563156Y-10849235D01*
X33560966Y-10889645D01*
X33558575Y-10902419D01*
X33556909Y-10907517D01*
X33552814Y-10925537D01*
X33552114Y-10930857D01*
X33548751Y-10943405D01*
X33533275Y-10980769D01*
X33530612Y-10987967D01*
X33518038Y-11026433D01*
X33512427Y-11038146D01*
X33509490Y-11042650D01*
X33500871Y-11058997D01*
X33498820Y-11063948D01*
X33492324Y-11075200D01*
X33467698Y-11107294D01*
X33463264Y-11113556D01*
X33439372Y-11150203D01*
X33435464Y-11155418D01*
X29629724Y-15595446D01*
X29625147Y-15600129D01*
X29618723Y-15605892D01*
X29606166Y-15619451D01*
X29602899Y-15623709D01*
X29593709Y-15632899D01*
X29561613Y-15657527D01*
X29555707Y-15662430D01*
X29525598Y-15689444D01*
X29514878Y-15696784D01*
X29510094Y-15699211D01*
X29494458Y-15709057D01*
X29490202Y-15712323D01*
X29478942Y-15718823D01*
X29441564Y-15734306D01*
X29434592Y-15737513D01*
X29398522Y-15755811D01*
X29386265Y-15760127D01*
X29381013Y-15761234D01*
X29363364Y-15766697D01*
X29358403Y-15768752D01*
X29345853Y-15772114D01*
X29305746Y-15777395D01*
X29298181Y-15778688D01*
X29258597Y-15787029D01*
X29245640Y-15788026D01*
X29240274Y-15787735D01*
X29221813Y-15788444D01*
X29213243Y-15789572D01*
X29206719Y-15790000D01*
X27835759Y-15790000D01*
X27758459Y-15826560D01*
X27699868Y-15897953D01*
X27692953Y-15904868D01*
X27556590Y-16016779D01*
X27548458Y-16022213D01*
X27392887Y-16105367D01*
X27383843Y-16109114D01*
X27215040Y-16160319D01*
X27205443Y-16162228D01*
X27027443Y-16179759D01*
X27022550Y-16180000D01*
X25827450Y-16180000D01*
X25827450Y-16840000D01*
X27022550Y-16840000D01*
X27027443Y-16840241D01*
X27205443Y-16857772D01*
X27215040Y-16859681D01*
X27383843Y-16910886D01*
X27392887Y-16914633D01*
X27548458Y-16997787D01*
X27556590Y-17003221D01*
X27692953Y-17115132D01*
X27699868Y-17122047D01*
X27758459Y-17193440D01*
X27835759Y-17230000D01*
X28922460Y-17230000D01*
X28996453Y-17197268D01*
X34983994Y-10610973D01*
X35010000Y-10543706D01*
X35010000Y1255001D01*
X34990500Y1314328D01*
X34910001Y1355000D01*
X34317309Y1355000D01*
X34257982Y1335500D01*
X34232288Y1307643D01*
X34196568Y1249952D01*
X34191018Y1242603D01*
X34061305Y1100316D01*
X34054492Y1094104D01*
X33900843Y978074D01*
X33893013Y973226D01*
X33720663Y887406D01*
X33712069Y884076D01*
X33526874Y831384D01*
X33517825Y829692D01*
X33323805Y811714D01*
X33319189Y811500D01*
X32720811Y811500D01*
X32716195Y811714D01*
X32522175Y829692D01*
X32513126Y831384D01*
X32327931Y884076D01*
X32319337Y887406D01*
X32146987Y973226D01*
X32139157Y978074D01*
X31985508Y1094104D01*
X31978695Y1100316D01*
X31848982Y1242603D01*
X31843436Y1249947D01*
X31742069Y1413661D01*
X31737971Y1421891D01*
X31668417Y1601433D01*
X31665893Y1610301D01*
X31630514Y1799561D01*
X31629665Y1808726D01*
X31629665Y2001274D01*
X31630514Y2010439D01*
X31665893Y2199699D01*
X31668417Y2208567D01*
X31737971Y2388109D01*
X31742069Y2396339D01*
X31843436Y2560053D01*
X31848982Y2567397D01*
X31978695Y2709684D01*
X31985508Y2715896D01*
X32139157Y2831926D01*
X32146987Y2836774D01*
X32319337Y2922594D01*
X32327931Y2925924D01*
X32513126Y2978616D01*
X32522175Y2980308D01*
X32716195Y2998286D01*
X32720811Y2998500D01*
X33319189Y2998500D01*
X33323805Y2998286D01*
X33517825Y2980308D01*
X33526874Y2978616D01*
X33712069Y2925924D01*
X33720663Y2922594D01*
X33893013Y2836774D01*
X33900843Y2831926D01*
X34054492Y2715896D01*
X34061305Y2709684D01*
X34191018Y2567397D01*
X34196568Y2560048D01*
X34232288Y2502357D01*
X34280098Y2462181D01*
X34317309Y2455000D01*
X35556719Y2455000D01*
X35563256Y2454571D01*
X35695850Y2437115D01*
X35708406Y2433751D01*
X35828945Y2383822D01*
X35840200Y2377324D01*
X35943709Y2297899D01*
X35952899Y2288709D01*
X36032324Y2185200D01*
X36038822Y2173945D01*
X36088751Y2053406D01*
X36092115Y2040850D01*
X36109571Y1908256D01*
X36110000Y1901719D01*
X36110000Y-10791730D01*
X36109574Y-10798239D01*
X36102630Y-10850982D01*
X36102122Y-10855712D01*
X36097973Y-10905390D01*
X36093818Y-10924494D01*
X36094099Y-10924555D01*
X36094089Y-10924597D01*
X36093811Y-10924522D01*
X36088752Y-10943402D01*
X36069659Y-10989496D01*
X36067943Y-10993934D01*
X36051069Y-11040872D01*
X36042114Y-11058242D01*
X36042370Y-11058374D01*
X36042347Y-11058415D01*
X36042098Y-11058271D01*
X36032323Y-11075201D01*
X36001954Y-11114779D01*
X35999149Y-11118621D01*
X35968835Y-11162280D01*
X35964766Y-11167391D01*
X29619175Y-18147541D01*
X29612113Y-18154355D01*
X29612272Y-18154520D01*
X29607736Y-18159277D01*
X29607533Y-18159074D01*
X29593708Y-18172900D01*
X29554135Y-18203265D01*
X29550430Y-18206251D01*
X29512350Y-18238461D01*
X29495904Y-18249030D01*
X29496060Y-18249272D01*
X29496020Y-18249296D01*
X29495876Y-18249047D01*
X29478945Y-18258822D01*
X29432850Y-18277915D01*
X29428499Y-18279840D01*
X29383391Y-18301092D01*
X29364764Y-18307046D01*
X29364851Y-18307320D01*
X29364811Y-18307332D01*
X29364737Y-18307055D01*
X29345852Y-18312115D01*
X29296361Y-18318631D01*
X29291661Y-18319364D01*
X29242617Y-18328212D01*
X29223080Y-18329142D01*
X29223094Y-18329431D01*
X29216529Y-18329587D01*
X29216514Y-18329358D01*
X29206722Y-18330000D01*
X27852173Y-18330000D01*
X27774873Y-18366560D01*
X27699868Y-18457953D01*
X27692953Y-18464868D01*
X27556590Y-18576779D01*
X27548458Y-18582213D01*
X27392887Y-18665367D01*
X27383843Y-18669114D01*
X27215040Y-18720319D01*
X27205443Y-18722228D01*
X27027443Y-18739759D01*
X27022550Y-18740000D01*
X25827450Y-18740000D01*
X25827450Y-19380000D01*
X26258982Y-19380000D01*
X26263747Y-19381566D01*
X26274995Y-19403828D01*
X26274995Y-19680000D01*
X25825000Y-19680000D01*
X25669445Y-19698888D01*
X25522930Y-19754454D01*
X25393970Y-19843468D01*
X25290060Y-19960758D01*
X25217239Y-20099507D01*
X25197401Y-20179995D01*
X24905787Y-20179995D01*
X24905787Y-20480005D01*
X25197401Y-20480005D01*
X25217239Y-20560493D01*
X25290060Y-20699242D01*
X25393970Y-20816532D01*
X25522930Y-20905546D01*
X25669445Y-20961112D01*
X25825000Y-20980000D01*
X26274995Y-20980000D01*
X26274995Y-21263987D01*
X26273429Y-21268752D01*
X26251167Y-21280000D01*
X25827450Y-21280000D01*
X25827450Y-26120000D01*
X26591018Y-26120000D01*
X26591018Y-21280000D01*
X26586253Y-21278434D01*
X26575005Y-21256172D01*
X26575005Y-20980000D01*
X27025000Y-20980000D01*
X27180555Y-20961112D01*
X27327070Y-20905546D01*
X27456030Y-20816532D01*
X27559940Y-20699242D01*
X27632761Y-20560493D01*
X27652599Y-20480005D01*
X27652599Y-20179995D01*
X27632761Y-20099507D01*
X27559940Y-19960758D01*
X27456030Y-19843468D01*
X27327070Y-19754454D01*
X27180555Y-19698888D01*
X27025000Y-19680000D01*
X26575005Y-19680000D01*
X26575005Y-19396013D01*
X26576571Y-19391248D01*
X26598833Y-19380000D01*
X27022550Y-19380000D01*
X27027443Y-19380241D01*
X27205443Y-19397772D01*
X27215040Y-19399681D01*
X27383843Y-19450886D01*
X27392887Y-19454633D01*
X27548458Y-19537787D01*
X27556590Y-19543221D01*
X27692953Y-19655132D01*
X27699868Y-19662047D01*
X27811779Y-19798410D01*
X27817213Y-19806542D01*
X27900367Y-19962113D01*
X27904114Y-19971157D01*
X27955319Y-20139960D01*
X27957228Y-20149557D01*
X27958656Y-20164060D01*
X27955704Y-20177303D01*
X27953332Y-20179368D01*
X27950227Y-20179995D01*
X27652599Y-20179995D01*
X27652599Y-20480005D01*
X27944213Y-20480005D01*
X27957103Y-20484242D01*
X27958924Y-20486804D01*
X27959245Y-20489963D01*
X27957228Y-20510443D01*
X27955319Y-20520040D01*
X27904114Y-20688843D01*
X27900367Y-20697887D01*
X27817213Y-20853458D01*
X27811779Y-20861590D01*
X27699868Y-20997953D01*
X27692953Y-21004868D01*
X27556590Y-21116779D01*
X27548458Y-21122213D01*
X27392887Y-21205367D01*
X27383843Y-21209114D01*
X27215040Y-21260319D01*
X27205443Y-21262228D01*
X27027443Y-21279759D01*
X27022550Y-21280000D01*
X26591018Y-21280000D01*
X26591018Y-26120000D01*
X33955499Y-26120000D01*
X34036872Y-26078124D01*
X39254121Y-18773974D01*
X39272736Y-18714364D01*
X39264485Y-18681092D01*
X39265688Y-18680701D01*
X39258452Y-18658432D01*
X39245615Y-18577382D01*
X39245000Y-18569569D01*
X39245000Y-16990431D01*
X39245615Y-16982618D01*
X39258452Y-16901569D01*
X39263256Y-16886782D01*
X39298723Y-16817174D01*
X39307858Y-16804601D01*
X39363101Y-16749358D01*
X39375674Y-16740223D01*
X39445282Y-16704756D01*
X39460069Y-16699952D01*
X39541118Y-16687115D01*
X39548931Y-16686500D01*
X40340811Y-16686500D01*
X40340811Y-16333500D01*
X40336195Y-16333286D01*
X40142175Y-16315308D01*
X40133126Y-16313616D01*
X39947931Y-16260924D01*
X39939337Y-16257594D01*
X39766987Y-16171774D01*
X39759157Y-16166926D01*
X39605508Y-16050896D01*
X39598695Y-16044684D01*
X39468982Y-15902397D01*
X39463436Y-15895053D01*
X39362069Y-15731339D01*
X39357971Y-15723109D01*
X39288417Y-15543567D01*
X39285893Y-15534699D01*
X39261787Y-15405745D01*
X39263583Y-15392296D01*
X39264148Y-15391711D01*
X39271040Y-15390005D01*
X39274858Y-15390005D01*
X39274858Y-15089995D01*
X39261968Y-15085758D01*
X39261497Y-15085095D01*
X39261086Y-15078006D01*
X39285893Y-14945301D01*
X39288417Y-14936433D01*
X39357971Y-14756891D01*
X39362069Y-14748661D01*
X39463436Y-14584947D01*
X39468982Y-14577603D01*
X39598695Y-14435316D01*
X39605508Y-14429104D01*
X39759157Y-14313074D01*
X39766987Y-14308226D01*
X39939337Y-14222406D01*
X39947931Y-14219076D01*
X40133126Y-14166384D01*
X40142175Y-14164692D01*
X40336195Y-14146714D01*
X40340811Y-14146500D01*
X40473982Y-14146500D01*
X40478747Y-14148066D01*
X40489995Y-14170328D01*
X40489995Y-14446500D01*
X40338500Y-14446500D01*
X40161930Y-14466395D01*
X39994213Y-14525081D01*
X39843761Y-14619617D01*
X39718117Y-14745261D01*
X39623581Y-14895713D01*
X39564895Y-15063430D01*
X39561902Y-15089995D01*
X39274858Y-15089995D01*
X39274858Y-15390005D01*
X39561902Y-15390005D01*
X39564895Y-15416570D01*
X39623581Y-15584287D01*
X39718117Y-15734739D01*
X39843761Y-15860383D01*
X39994213Y-15954919D01*
X40161930Y-16013605D01*
X40338500Y-16033500D01*
X40489995Y-16033500D01*
X40489995Y-16317487D01*
X40488429Y-16322252D01*
X40466167Y-16333500D01*
X40340811Y-16333500D01*
X40340811Y-16686500D01*
X40806018Y-16686500D01*
X40806018Y-16333500D01*
X40801253Y-16331934D01*
X40790005Y-16309672D01*
X40790005Y-16033500D01*
X40941500Y-16033500D01*
X41118070Y-16013605D01*
X41285787Y-15954919D01*
X41436239Y-15860383D01*
X41561883Y-15734739D01*
X41656419Y-15584287D01*
X41715105Y-15416570D01*
X41718098Y-15390005D01*
X41718098Y-15089995D01*
X41715105Y-15063430D01*
X41656419Y-14895713D01*
X41561883Y-14745261D01*
X41436239Y-14619617D01*
X41285787Y-14525081D01*
X41118070Y-14466395D01*
X40941500Y-14446500D01*
X40790005Y-14446500D01*
X40790005Y-14162513D01*
X40791571Y-14157748D01*
X40813833Y-14146500D01*
X40939189Y-14146500D01*
X40943805Y-14146714D01*
X40957441Y-14147977D01*
X40957441Y24979736D01*
X40951186Y24980130D01*
X40658415Y25017116D01*
X40652229Y25018296D01*
X40366412Y25091680D01*
X40360435Y25093622D01*
X40086048Y25202260D01*
X40080380Y25204927D01*
X39821762Y25347103D01*
X39816480Y25350456D01*
X39577718Y25523925D01*
X39572895Y25527915D01*
X39357770Y25729931D01*
X39353471Y25734510D01*
X39165352Y25961906D01*
X39161681Y25966959D01*
X39003547Y26216140D01*
X39000528Y26221629D01*
X38874868Y26488669D01*
X38872568Y26494479D01*
X38781369Y26775163D01*
X38779813Y26781223D01*
X38724512Y27071123D01*
X38723728Y27077326D01*
X38705197Y27371869D01*
X38705197Y27378131D01*
X38723728Y27672674D01*
X38724512Y27678877D01*
X38779813Y27968777D01*
X38781369Y27974837D01*
X38872568Y28255521D01*
X38874868Y28261331D01*
X39000528Y28528371D01*
X39003547Y28533860D01*
X39161681Y28783041D01*
X39165352Y28788094D01*
X39353471Y29015490D01*
X39357770Y29020069D01*
X39572895Y29222085D01*
X39577718Y29226075D01*
X39816480Y29399544D01*
X39821762Y29402897D01*
X40080380Y29545073D01*
X40086048Y29547740D01*
X40360435Y29656378D01*
X40366412Y29658320D01*
X40652229Y29731704D01*
X40658415Y29732884D01*
X40951186Y29769870D01*
X40957441Y29770264D01*
X41252559Y29770264D01*
X41258814Y29769870D01*
X41551585Y29732884D01*
X41557771Y29731704D01*
X41843588Y29658320D01*
X41849565Y29656378D01*
X42123952Y29547740D01*
X42129620Y29545073D01*
X42388238Y29402897D01*
X42393520Y29399544D01*
X42632282Y29226075D01*
X42637105Y29222085D01*
X42852230Y29020069D01*
X42856529Y29015490D01*
X43044648Y28788094D01*
X43048319Y28783041D01*
X43206453Y28533860D01*
X43209472Y28528371D01*
X43335132Y28261331D01*
X43337432Y28255521D01*
X43428631Y27974837D01*
X43430187Y27968777D01*
X43485488Y27678877D01*
X43486272Y27672674D01*
X43504803Y27378131D01*
X43504803Y27371869D01*
X43486272Y27077326D01*
X43485488Y27071123D01*
X43430187Y26781223D01*
X43428631Y26775163D01*
X43337432Y26494479D01*
X43335132Y26488669D01*
X43209472Y26221629D01*
X43206453Y26216140D01*
X43048319Y25966959D01*
X43044648Y25961906D01*
X42856529Y25734510D01*
X42852230Y25729931D01*
X42637105Y25527915D01*
X42632282Y25523925D01*
X42393520Y25350456D01*
X42388238Y25347103D01*
X42129620Y25204927D01*
X42123952Y25202260D01*
X41849565Y25093622D01*
X41843588Y25091680D01*
X41557771Y25018296D01*
X41551585Y25017116D01*
X41258814Y24980130D01*
X41252559Y24979736D01*
X40957441Y24979736D01*
X40957441Y-14147977D01*
X41137825Y-14164692D01*
X41146874Y-14166384D01*
X41332069Y-14219076D01*
X41340663Y-14222406D01*
X41513013Y-14308226D01*
X41520843Y-14313074D01*
X41674492Y-14429104D01*
X41681305Y-14435316D01*
X41811018Y-14577603D01*
X41816564Y-14584947D01*
X41917931Y-14748661D01*
X41922029Y-14756891D01*
X41991583Y-14936433D01*
X41994107Y-14945301D01*
X42018213Y-15074255D01*
X42016417Y-15087704D01*
X42015852Y-15088289D01*
X42008960Y-15089995D01*
X41718098Y-15089995D01*
X41718098Y-15390005D01*
X42005142Y-15390005D01*
X42018032Y-15394242D01*
X42018503Y-15394905D01*
X42018914Y-15401994D01*
X41994107Y-15534699D01*
X41991583Y-15543567D01*
X41922029Y-15723109D01*
X41917931Y-15731339D01*
X41816564Y-15895053D01*
X41811018Y-15902397D01*
X41681305Y-16044684D01*
X41674492Y-16050896D01*
X41520843Y-16166926D01*
X41513013Y-16171774D01*
X41340663Y-16257594D01*
X41332069Y-16260924D01*
X41146874Y-16313616D01*
X41137825Y-16315308D01*
X40943805Y-16333286D01*
X40939189Y-16333500D01*
X40806018Y-16333500D01*
X40806018Y-16686500D01*
X41731069Y-16686500D01*
X41738882Y-16687115D01*
X41819931Y-16699952D01*
X41834718Y-16704756D01*
X41904326Y-16740223D01*
X41916899Y-16749358D01*
X41972142Y-16804601D01*
X41981277Y-16817174D01*
X42016744Y-16886782D01*
X42021548Y-16901569D01*
X42034385Y-16982618D01*
X42035000Y-16990431D01*
X42035000Y-18569569D01*
X42034385Y-18577382D01*
X42021548Y-18658431D01*
X42016744Y-18673218D01*
X41981277Y-18742826D01*
X41972142Y-18755399D01*
X41916899Y-18810642D01*
X41904326Y-18819777D01*
X41834718Y-18855244D01*
X41819931Y-18860048D01*
X41738882Y-18872885D01*
X41731069Y-18873500D01*
X40586287Y-18873500D01*
X40504914Y-18915376D01*
X34739456Y-26987018D01*
X34735320Y-26992074D01*
X34709856Y-27019345D01*
X34703613Y-27026714D01*
X34682896Y-27053712D01*
X34673710Y-27062899D01*
X34664318Y-27070106D01*
X34652109Y-27081189D01*
X34644040Y-27089830D01*
X34633999Y-27098096D01*
X34605138Y-27116104D01*
X34597199Y-27121607D01*
X34570198Y-27142325D01*
X34558944Y-27148823D01*
X34548019Y-27153348D01*
X34533350Y-27160897D01*
X34523320Y-27167155D01*
X34511482Y-27172541D01*
X34478935Y-27182468D01*
X34469842Y-27185730D01*
X34438409Y-27198750D01*
X34425857Y-27202113D01*
X34414127Y-27203657D01*
X34398002Y-27207153D01*
X34386691Y-27210603D01*
X34373866Y-27212741D01*
X34339867Y-27213905D01*
X34330236Y-27214702D01*
X34293253Y-27219572D01*
X34286719Y-27220000D01*
X-24126719Y-27220000D01*
X-24126719Y-34700000D01*
X40957441Y-34700000D01*
X40957441Y-33020264D01*
X40951186Y-33019870D01*
X40658415Y-32982884D01*
X40652229Y-32981704D01*
X40366412Y-32908320D01*
X40360435Y-32906378D01*
X40086048Y-32797740D01*
X40080380Y-32795073D01*
X39821762Y-32652897D01*
X39816480Y-32649544D01*
X39577718Y-32476075D01*
X39572895Y-32472085D01*
X39357770Y-32270069D01*
X39353471Y-32265490D01*
X39165352Y-32038094D01*
X39161681Y-32033041D01*
X39003547Y-31783860D01*
X39000528Y-31778371D01*
X38874868Y-31511331D01*
X38872568Y-31505521D01*
X38781369Y-31224837D01*
X38779813Y-31218777D01*
X38724512Y-30928877D01*
X38723728Y-30922674D01*
X38705197Y-30628131D01*
X38705197Y-30621869D01*
X38723728Y-30327326D01*
X38724512Y-30321123D01*
X38779813Y-30031223D01*
X38781369Y-30025163D01*
X38872568Y-29744479D01*
X38874868Y-29738669D01*
X39000528Y-29471629D01*
X39003547Y-29466140D01*
X39161681Y-29216959D01*
X39165352Y-29211906D01*
X39353471Y-28984510D01*
X39357770Y-28979931D01*
X39572895Y-28777915D01*
X39577718Y-28773925D01*
X39816480Y-28600456D01*
X39821762Y-28597103D01*
X40080380Y-28454927D01*
X40086048Y-28452260D01*
X40360435Y-28343622D01*
X40366412Y-28341680D01*
X40652229Y-28268296D01*
X40658415Y-28267116D01*
X40951186Y-28230130D01*
X40957441Y-28229736D01*
X41252559Y-28229736D01*
X41258814Y-28230130D01*
X41551585Y-28267116D01*
X41557771Y-28268296D01*
X41843588Y-28341680D01*
X41849565Y-28343622D01*
X42123952Y-28452260D01*
X42129620Y-28454927D01*
X42388238Y-28597103D01*
X42393520Y-28600456D01*
X42632282Y-28773925D01*
X42637105Y-28777915D01*
X42852230Y-28979931D01*
X42856529Y-28984510D01*
X43044648Y-29211906D01*
X43048319Y-29216959D01*
X43206453Y-29466140D01*
X43209472Y-29471629D01*
X43335132Y-29738669D01*
X43337432Y-29744479D01*
X43428631Y-30025163D01*
X43430187Y-30031223D01*
X43485488Y-30321123D01*
X43486272Y-30327326D01*
X43504803Y-30621869D01*
X43504803Y-30628131D01*
X43486272Y-30922674D01*
X43485488Y-30928877D01*
X43430187Y-31218777D01*
X43428631Y-31224837D01*
X43337432Y-31505521D01*
X43335132Y-31511331D01*
X43209472Y-31778371D01*
X43206453Y-31783860D01*
X43048319Y-32033041D01*
X43044648Y-32038094D01*
X42856529Y-32265490D01*
X42852230Y-32270069D01*
X42637105Y-32472085D01*
X42632282Y-32476075D01*
X42393520Y-32649544D01*
X42388238Y-32652897D01*
X42129620Y-32795073D01*
X42123952Y-32797740D01*
X41849565Y-32906378D01*
X41843588Y-32908320D01*
X41557771Y-32981704D01*
X41551585Y-32982884D01*
X41258814Y-33019870D01*
X41252559Y-33020264D01*
X40957441Y-33020264D01*
X40957441Y-34700000D01*
X49600001Y-34700000D01*
X49659328Y-34680500D01*
X49700000Y-34600001D01*
X49700000Y34600001D01*
X49680500Y34659328D01*
X49600001Y34700000D01*
X-49600001Y34700000D01*
X-49659328Y34680500D01*
X-49700000Y34600001D01*
X-49700000Y-34600001D01*
G37*
G04 --- BOARD END --- *
G04 #@! TF.MD5,379e0d849b278b797f130c3407a9db67*
M02*
