G04 --- HEADER BEGIN --- *
G04 #@! TF.GenerationSoftware,LibrePCB,LibrePCB,1.1.0*
G04 #@! TF.CreationDate,2024-10-30T11:24:38*
G04 #@! TF.ProjectId,encoder diff driver board,5e1d4796-0e95-4f90-a33b-98ba50815d50,v1*
G04 #@! TF.Part,Single*
G04 #@! TF.SameCoordinates*
G04 #@! TF.FileFunction,Soldermask,Top*
G04 #@! TF.FilePolarity,Negative*
%FSLAX66Y66*%
%MOMM*%
G01*
G75*
G04 --- HEADER END --- *
G04 --- APERTURE LIST BEGIN --- *
%ADD10O,2.7X1.5*%
%ADD11O,2.39X1.787*%
%AMROUNDEDRECT12*20,1,1.787,-1.095,0.0,1.095,0.0,0.0*20,1,1.587,-1.195,0.0,1.195,0.0,0.0*1,1,0.2,-1.095,0.7935*1,1,0.2,1.095,0.7935*1,1,0.2,1.095,-0.7935*1,1,0.2,-1.095,-0.7935*%
%ADD12ROUNDEDRECT12*%
%ADD13O,1.787X2.39*%
%AMROUNDEDRECT14*20,1,1.787,-1.095,0.0,1.095,0.0,90.0*20,1,1.587,-1.195,0.0,1.195,0.0,90.0*1,1,0.2,-0.7935,-1.095*1,1,0.2,-0.7935,1.095*1,1,0.2,0.7935,1.095*1,1,0.2,0.7935,-1.095*%
%ADD14ROUNDEDRECT14*%
%AMROUNDEDRECT15*20,1,3.2,-1.5,0.0,1.5,0.0,0.0*20,1,3.0,-1.6,0.0,1.6,0.0,0.0*1,1,0.2,-1.5,1.5*1,1,0.2,1.5,1.5*1,1,0.2,1.5,-1.5*1,1,0.2,-1.5,-1.5*%
%ADD15ROUNDEDRECT15*%
%ADD16C,4.4*%
G04 --- APERTURE LIST END --- *
G04 --- BOARD BEGIN --- *
D10*
G04 #@! TO.C,MODULE2*
X-14995000Y-3800000D03*
X-14995000Y-1280000D03*
X-14995000Y1280000D03*
X26425000Y-3820000D03*
X26425000Y-6360000D03*
X26425000Y-1260000D03*
X-14995000Y-6360000D03*
X26425000Y1280000D03*
D11*
G04 #@! TO.C,J4*
X33020000Y-635000D03*
X33020000Y6985000D03*
X33020000Y4445000D03*
D12*
X33020000Y17145000D03*
D11*
X33020000Y14605000D03*
X33020000Y1905000D03*
X33020000Y12065000D03*
X33020000Y9525000D03*
D13*
G04 #@! TO.C,J11*
X-3810000Y26670000D03*
X-6350000Y26670000D03*
X-8890000Y26670000D03*
D14*
X-1270000Y26670000D03*
D10*
G04 #@! TO.C,MODULE3*
X-14995000Y-17770000D03*
X-14995000Y-15250000D03*
X-14995000Y-12690000D03*
X26425000Y-17790000D03*
X26425000Y-20330000D03*
X26425000Y-15230000D03*
X-14995000Y-20330000D03*
X26425000Y-12690000D03*
D15*
G04 #@! TO.C,DC1*
X-38210000Y16960000D03*
X-20210000Y16960000D03*
X-38210000Y-22040000D03*
X-20210000Y-22040000D03*
D13*
G04 #@! TO.C,J9*
X12700000Y26670000D03*
D14*
X7620000Y26670000D03*
D13*
X10160000Y26670000D03*
D10*
G04 #@! TO.C,MODULE1*
X-14995000Y10170000D03*
X-14995000Y12690000D03*
X-14995000Y15250000D03*
X26425000Y10150000D03*
X26425000Y7610000D03*
X26425000Y12710000D03*
X-14995000Y7610000D03*
X26425000Y15250000D03*
D11*
G04 #@! TO.C,J2*
X40640000Y-15240000D03*
D12*
X40640000Y-17780000D03*
D16*
G04 #@! TD*
X41105000Y-30625000D03*
X-28895000Y27375000D03*
X41105000Y27375000D03*
X-28895000Y-30625000D03*
G04 --- BOARD END --- *
G04 #@! TF.MD5,0f89da1f4705c064ef78e4b10ce1d19d*
M02*
