G04 --- HEADER BEGIN --- *
G04 #@! TF.GenerationSoftware,LibrePCB,LibrePCB,1.1.0*
G04 #@! TF.CreationDate,2024-10-30T11:24:38*
G04 #@! TF.ProjectId,encoder diff driver board,5e1d4796-0e95-4f90-a33b-98ba50815d50,v1*
G04 #@! TF.Part,Single*
G04 #@! TF.SameCoordinates*
G04 #@! TF.FileFunction,Copper,L2,Bot*
G04 #@! TF.FilePolarity,Positive*
%FSLAX66Y66*%
%MOMM*%
G01*
G75*
G04 --- HEADER END --- *
G04 --- APERTURE LIST BEGIN --- *
G04 #@! TA.AperFunction,ComponentPad*
%ADD10O,2.5X1.3*%
%ADD11O,2.19X1.587*%
%ADD12R,2.19X1.587*%
%ADD13O,1.587X2.19*%
%ADD14R,1.587X2.19*%
%ADD15R,3.0X3.0*%
G04 #@! TD*
G04 --- APERTURE LIST END --- *
G04 --- BOARD BEGIN --- *
D10*
G04 #@! TO.N,+5V*
G04 #@! TO.C,MODULE2*
G04 #@! TO.P,MODULE2,DE,DE*
X-14995000Y-3800000D03*
G04 #@! TO.P,MODULE2,RE,RE*
X-14995000Y-1280000D03*
G04 #@! TO.N,N/C*
G04 #@! TO.P,MODULE2,RO,RO*
X-14995000Y1280000D03*
G04 #@! TO.N,B-*
G04 #@! TO.P,MODULE2,A,A*
X26425000Y-3820000D03*
G04 #@! TO.N,GND*
G04 #@! TO.P,MODULE2,GND,GND*
X26425000Y-6360000D03*
G04 #@! TO.N,B+*
G04 #@! TO.P,MODULE2,B,B*
X26425000Y-1260000D03*
G04 #@! TO.N,ENC_B*
G04 #@! TO.P,MODULE2,DI,DI*
X-14995000Y-6360000D03*
G04 #@! TO.N,+5V*
G04 #@! TO.P,MODULE2,VCC,VCC*
X26425000Y1280000D03*
D11*
G04 #@! TO.N,Z+*
G04 #@! TO.C,J4*
G04 #@! TO.P,J4,8,8*
X33020000Y-635000D03*
G04 #@! TO.N,B+*
G04 #@! TO.P,J4,5,5*
X33020000Y6985000D03*
G04 #@! TO.N,N/C*
G04 #@! TO.P,J4,6,6*
X33020000Y4445000D03*
D12*
G04 #@! TO.N,A-*
G04 #@! TO.P,J4,1,1*
X33020000Y17145000D03*
D11*
G04 #@! TO.N,A+*
G04 #@! TO.P,J4,2,2*
X33020000Y14605000D03*
G04 #@! TO.N,Z-*
G04 #@! TO.P,J4,7,7*
X33020000Y1905000D03*
G04 #@! TO.N,GND*
G04 #@! TO.P,J4,3,3*
X33020000Y12065000D03*
G04 #@! TO.N,B-*
G04 #@! TO.P,J4,4,4*
X33020000Y9525000D03*
D13*
G04 #@! TO.N,ENC_B*
G04 #@! TO.C,J11*
G04 #@! TO.P,J11,2,2*
X-3810000Y26670000D03*
G04 #@! TO.N,ENC_A*
G04 #@! TO.P,J11,3,3*
X-6350000Y26670000D03*
G04 #@! TO.N,GND*
G04 #@! TO.P,J11,4,4*
X-8890000Y26670000D03*
D14*
G04 #@! TO.N,+24V*
G04 #@! TO.P,J11,1,1*
X-1270000Y26670000D03*
D10*
G04 #@! TO.N,+5V*
G04 #@! TO.C,MODULE3*
G04 #@! TO.P,MODULE3,DE,DE*
X-14995000Y-17770000D03*
G04 #@! TO.P,MODULE3,RE,RE*
X-14995000Y-15250000D03*
G04 #@! TO.N,N/C*
G04 #@! TO.P,MODULE3,RO,RO*
X-14995000Y-12690000D03*
G04 #@! TO.N,Z-*
G04 #@! TO.P,MODULE3,A,A*
X26425000Y-17790000D03*
G04 #@! TO.N,GND*
G04 #@! TO.P,MODULE3,GND,GND*
X26425000Y-20330000D03*
G04 #@! TO.N,Z+*
G04 #@! TO.P,MODULE3,B,B*
X26425000Y-15230000D03*
G04 #@! TO.N,ENC_Z*
G04 #@! TO.P,MODULE3,DI,DI*
X-14995000Y-20330000D03*
G04 #@! TO.N,+5V*
G04 #@! TO.P,MODULE3,VCC,VCC*
X26425000Y-12690000D03*
D15*
G04 #@! TO.C,DC1*
G04 #@! TO.P,DC1,VOUT,VOUT+*
X-38210000Y16960000D03*
G04 #@! TO.N,GND*
G04 #@! TO.P,DC1,GNDIN,GND*
X-20210000Y16960000D03*
G04 #@! TO.N,+24V*
G04 #@! TO.P,DC1,VIN,VIN+*
X-38210000Y-22040000D03*
G04 #@! TO.N,GND*
G04 #@! TO.P,DC1,GNDIN,GND*
X-20210000Y-22040000D03*
D13*
G04 #@! TO.N,+5V*
G04 #@! TO.C,J9*
G04 #@! TO.P,J9,3,3*
X12700000Y26670000D03*
D14*
G04 #@! TO.N,GND*
G04 #@! TO.P,J9,1,1*
X7620000Y26670000D03*
D13*
G04 #@! TO.N,ENC_Z*
G04 #@! TO.P,J9,2,2*
X10160000Y26670000D03*
D10*
G04 #@! TO.N,+5V*
G04 #@! TO.C,MODULE1*
G04 #@! TO.P,MODULE1,DE,DE*
X-14995000Y10170000D03*
G04 #@! TO.P,MODULE1,RE,RE*
X-14995000Y12690000D03*
G04 #@! TO.N,N/C*
G04 #@! TO.P,MODULE1,RO,RO*
X-14995000Y15250000D03*
G04 #@! TO.N,A+*
G04 #@! TO.P,MODULE1,A,A*
X26425000Y10150000D03*
G04 #@! TO.N,GND*
G04 #@! TO.P,MODULE1,GND,GND*
X26425000Y7610000D03*
G04 #@! TO.N,A-*
G04 #@! TO.P,MODULE1,B,B*
X26425000Y12710000D03*
G04 #@! TO.N,ENC_A*
G04 #@! TO.P,MODULE1,DI,DI*
X-14995000Y7610000D03*
G04 #@! TO.N,+5V*
G04 #@! TO.P,MODULE1,VCC,VCC*
X26425000Y15250000D03*
D11*
G04 #@! TO.N,GND*
G04 #@! TO.C,J2*
G04 #@! TO.P,J2,2,2*
X40640000Y-15240000D03*
D12*
G04 #@! TO.N,+24V*
G04 #@! TO.P,J2,1,1*
X40640000Y-17780000D03*
G04 --- BOARD END --- *
G04 #@! TF.MD5,ac19bd600a5500d0f6fac174a3e48749*
M02*
