M48
; #@! TF.GenerationSoftware,LibrePCB,LibrePCB,1.1.0
; #@! TF.CreationDate,2024-10-30T11:24:38
; #@! TF.ProjectId,encoder diff driver board,5e1d4796-0e95-4f90-a33b-98ba50815d50,v1
; #@! TF.Part,Single
; #@! TF.SameCoordinates
; #@! TF.FileFunction,MixedPlating,1,2
FMAT,2
METRIC,TZ
; #@! TA.AperFunction,Plated,PTH,ComponentDrill
T1C0.8
; #@! TA.AperFunction,Plated,PTH,ComponentDrill
T2C0.9
; #@! TA.AperFunction,Plated,PTH,ComponentDrill
T3C1.0
; #@! TA.AperFunction,Plated,PTH,ComponentDrill
T4C1.1
; #@! TA.AperFunction,NonPlated,NPTH,MechanicalDrill
T5C4.2
%
G90
G05
M71
T1
X26.425Y15.25
X-14.995Y7.61
X26.425Y12.71
X26.425Y7.61
X26.425Y10.15
X-14.995Y15.25
X-14.995Y12.69
X-14.995Y10.17
X26.425Y-12.69
X-14.995Y-20.33
X26.425Y-15.23
X26.425Y-20.33
X26.425Y-17.79
X-14.995Y-12.69
X-14.995Y-15.25
X-14.995Y-17.77
X26.425Y1.28
X-14.995Y-6.36
X26.425Y-1.26
X26.425Y-6.36
X26.425Y-3.82
X-14.995Y1.28
X-14.995Y-1.28
X-14.995Y-3.8
T2
X10.16Y26.67
X7.62Y26.67
X12.7Y26.67
X-1.27Y26.67
X-8.89Y26.67
X-6.35Y26.67
X-3.81Y26.67
X33.02Y9.525
X33.02Y12.065
X33.02Y1.905
X33.02Y14.605
X33.02Y17.145
X33.02Y4.445
X33.02Y6.985
X33.02Y-0.635
T3
X-20.21Y-22.04
X-38.21Y-22.04
X-20.21Y16.96
X-38.21Y16.96
T4
X40.64Y-17.78
X40.64Y-15.24
T5
X-28.895Y-30.625
X41.105Y27.375
X-28.895Y27.375
X41.105Y-30.625
T0
M30
