G04 --- HEADER BEGIN --- *
G04 #@! TF.GenerationSoftware,LibrePCB,LibrePCB,1.1.0*
G04 #@! TF.CreationDate,2024-10-30T11:24:38*
G04 #@! TF.ProjectId,encoder diff driver board,5e1d4796-0e95-4f90-a33b-98ba50815d50,v1*
G04 #@! TF.Part,Single*
G04 #@! TF.SameCoordinates*
G04 #@! TF.FileFunction,Legend,Top*
G04 #@! TF.FilePolarity,Positive*
%FSLAX66Y66*%
%MOMM*%
G01*
G75*
G04 --- HEADER END --- *
G04 --- APERTURE LIST BEGIN --- *
%ADD10C,0.0*%
%ADD11C,0.25*%
%ADD12C,0.2*%
%ADD13O,2.7X1.5*%
%ADD14O,2.39X1.787*%
%AMROUNDEDRECT15*20,1,1.787,-1.095,0.0,1.095,0.0,0.0*20,1,1.587,-1.195,0.0,1.195,0.0,0.0*1,1,0.2,-1.095,0.7935*1,1,0.2,1.095,0.7935*1,1,0.2,1.095,-0.7935*1,1,0.2,-1.095,-0.7935*%
%ADD15ROUNDEDRECT15*%
%ADD16O,1.787X2.39*%
%AMROUNDEDRECT17*20,1,1.787,-1.095,0.0,1.095,0.0,90.0*20,1,1.587,-1.195,0.0,1.195,0.0,90.0*1,1,0.2,-0.7935,-1.095*1,1,0.2,-0.7935,1.095*1,1,0.2,0.7935,1.095*1,1,0.2,0.7935,-1.095*%
%ADD17ROUNDEDRECT17*%
%AMROUNDEDRECT18*20,1,3.2,-1.5,0.0,1.5,0.0,0.0*20,1,3.0,-1.6,0.0,1.6,0.0,0.0*1,1,0.2,-1.5,1.5*1,1,0.2,1.5,1.5*1,1,0.2,1.5,-1.5*1,1,0.2,-1.5,-1.5*%
%ADD18ROUNDEDRECT18*%
%ADD19C,4.4*%
G04 --- APERTURE LIST END --- *
G04 --- BOARD BEGIN --- *
D10*
G04 #@! TO.C,MODULE2*
X27715000Y4460000D02*
X-16285000Y4460000D01*
X-16285000Y-9540000D01*
X27715000Y-9540000D01*
X27715000Y4460000D01*
D11*
G04 #@! TO.C,J4*
X34415000Y18270000D02*
X34415000Y16145000D01*
X34145000Y15875000D01*
X34415000Y15605000D01*
X34415000Y13605000D01*
X34145000Y13335000D01*
X34415000Y13065000D01*
X34415000Y11065000D01*
X34145000Y10795000D01*
X34415000Y10525000D01*
X34415000Y8525000D01*
X34145000Y8255000D01*
X34415000Y7985000D01*
X34415000Y5985000D01*
X34145000Y5715000D01*
X34415000Y5445000D01*
X34415000Y3445000D01*
X34145000Y3175000D01*
X34415000Y2905000D01*
X34415000Y905000D01*
X34145000Y635000D01*
X34415000Y365000D01*
X34415000Y-1760000D01*
X34145000Y-2030000D01*
X31895000Y-2030000D01*
X31625000Y-1760000D01*
X31625000Y365000D01*
X31895000Y635000D01*
X31625000Y905000D01*
X31625000Y2905000D01*
X31895000Y3175000D01*
X31625000Y3445000D01*
X31625000Y5445000D01*
X31895000Y5715000D01*
X31625000Y5985000D01*
X31625000Y7985000D01*
X31895000Y8255000D01*
X31625000Y8525000D01*
X31625000Y10525000D01*
X31895000Y10795000D01*
X31625000Y11065000D01*
X31625000Y13065000D01*
X31895000Y13335000D01*
X31625000Y13605000D01*
X31625000Y15605000D01*
X31895000Y15875000D01*
X31625000Y16145000D01*
X31625000Y18270000D01*
X31895000Y18540000D01*
X34145000Y18540000D01*
X34415000Y18270000D01*
G04 #@! TO.C,J11*
X125000Y28065000D02*
X125000Y25275000D01*
X-10285000Y25275000D01*
X-10285000Y28065000D01*
X125000Y28065000D01*
D10*
G04 #@! TO.C,MODULE3*
X27715000Y-9510000D02*
X-16285000Y-9510000D01*
X-16285000Y-23510000D01*
X27715000Y-23510000D01*
X27715000Y-9510000D01*
D12*
G04 #@! TO.C,DC1*
X-39210000Y8460000D02*
X-37210000Y9126667D01*
X-39210000Y9793333D01*
X-39210000Y10868889D02*
X-39210000Y11251111D01*
X-39114444Y11440000D01*
X-38923333Y11631111D01*
X-38543333Y11726666D01*
X-37876667Y11726666D01*
X-37496667Y11631111D01*
X-37305556Y11440000D01*
X-37210000Y11251111D01*
X-37210000Y10868889D01*
X-37305556Y10680000D01*
X-37496667Y10488889D01*
X-37876667Y10393333D01*
X-38543333Y10393333D01*
X-38923333Y10488889D01*
X-39114444Y10680000D01*
X-39210000Y10868889D01*
X-39210000Y12326666D02*
X-37590000Y12326666D01*
X-37401111Y12422222D01*
X-37305556Y12517777D01*
X-37210000Y12706666D01*
X-37210000Y13088888D01*
X-37305556Y13279999D01*
X-37401111Y13373333D01*
X-37590000Y13468888D01*
X-39210000Y13468888D01*
X-39210000Y14068888D02*
X-39210000Y15211110D01*
X-37210000Y14639999D02*
X-39210000Y14639999D01*
X-39210000Y-19540000D02*
X-37210000Y-18873333D01*
X-39210000Y-18206667D01*
X-37210000Y-17606667D02*
X-39210000Y-17606667D01*
X-37210000Y-17006667D02*
X-39210000Y-17006667D01*
X-37210000Y-15864445D01*
X-39210000Y-15864445D01*
X-21114444Y-18397778D02*
X-21210000Y-18586667D01*
X-21210000Y-18873333D01*
X-21114444Y-19160000D01*
X-20923333Y-19348889D01*
X-20734444Y-19444444D01*
X-20352222Y-19540000D01*
X-20067778Y-19540000D01*
X-19685556Y-19444444D01*
X-19496667Y-19348889D01*
X-19305556Y-19160000D01*
X-19210000Y-18873333D01*
X-19210000Y-18682222D01*
X-19305556Y-18397778D01*
X-19401111Y-18302222D01*
X-20067778Y-18302222D01*
X-20067778Y-18682222D01*
X-19210000Y-17702222D02*
X-21210000Y-17702222D01*
X-19210000Y-16560000D01*
X-21210000Y-16560000D01*
X-19210000Y-15960000D02*
X-21210000Y-15960000D01*
X-21210000Y-15484444D01*
X-21114444Y-15197778D01*
X-20923333Y-15006667D01*
X-20734444Y-14913333D01*
X-20352222Y-14817778D01*
X-20067778Y-14817778D01*
X-19685556Y-14913333D01*
X-19496667Y-15006667D01*
X-19305556Y-15197778D01*
X-19210000Y-15484444D01*
X-19210000Y-15960000D01*
X-21114444Y11602222D02*
X-21210000Y11413333D01*
X-21210000Y11126667D01*
X-21114444Y10840000D01*
X-20923333Y10651111D01*
X-20734444Y10555556D01*
X-20352222Y10460000D01*
X-20067778Y10460000D01*
X-19685556Y10555556D01*
X-19496667Y10651111D01*
X-19305556Y10840000D01*
X-19210000Y11126667D01*
X-19210000Y11317778D01*
X-19305556Y11602222D01*
X-19401111Y11697778D01*
X-20067778Y11697778D01*
X-20067778Y11317778D01*
X-19210000Y12297778D02*
X-21210000Y12297778D01*
X-19210000Y13440000D01*
X-21210000Y13440000D01*
X-19210000Y14040000D02*
X-21210000Y14040000D01*
X-21210000Y14515556D01*
X-21114444Y14802222D01*
X-20923333Y14993333D01*
X-20734444Y15086667D01*
X-20352222Y15182222D01*
X-20067778Y15182222D01*
X-19685556Y15086667D01*
X-19496667Y14993333D01*
X-19305556Y14802222D01*
X-19210000Y14515556D01*
X-19210000Y14040000D01*
D11*
G04 #@! TO.C,J9*
X6495000Y28065000D02*
X8620000Y28065000D01*
X8890000Y27795000D01*
X9160000Y28065000D01*
X11160000Y28065000D01*
X11430000Y27795000D01*
X11700000Y28065000D01*
X13825000Y28065000D01*
X14095000Y27795000D01*
X14095000Y25545000D01*
X13825000Y25275000D01*
X11700000Y25275000D01*
X11430000Y25545000D01*
X11160000Y25275000D01*
X9160000Y25275000D01*
X8890000Y25545000D01*
X8620000Y25275000D01*
X6495000Y25275000D01*
X6225000Y25545000D01*
X6225000Y27795000D01*
X6495000Y28065000D01*
D10*
G04 #@! TO.C,MODULE1*
X27715000Y18430000D02*
X-16285000Y18430000D01*
X-16285000Y4430000D01*
X27715000Y4430000D01*
X27715000Y18430000D01*
D11*
G04 #@! TO.C,J2*
X39245000Y-18905000D02*
X39245000Y-16780000D01*
X39515000Y-16510000D01*
X39245000Y-16240000D01*
X39245000Y-14115000D01*
X39515000Y-13845000D01*
X41765000Y-13845000D01*
X42035000Y-14115000D01*
X42035000Y-16240000D01*
X41765000Y-16510000D01*
X42035000Y-16780000D01*
X42035000Y-18905000D01*
X41765000Y-19175000D01*
X39515000Y-19175000D01*
X39245000Y-18905000D01*
D12*
G04 #@! TO.C,MODULE2*
X-2588889Y2540000D02*
X-2588889Y3540000D01*
X-2255556Y2825556D01*
X-1922222Y3540000D01*
X-1922222Y2540000D01*
X-1284444Y3540000D02*
X-1093333Y3540000D01*
X-998889Y3492222D01*
X-903333Y3396667D01*
X-855555Y3206667D01*
X-855555Y2873333D01*
X-903333Y2683333D01*
X-998889Y2587778D01*
X-1093333Y2540000D01*
X-1284444Y2540000D01*
X-1378889Y2587778D01*
X-1474444Y2683333D01*
X-1522222Y2873333D01*
X-1522222Y3206667D01*
X-1474444Y3396667D01*
X-1378889Y3492222D01*
X-1284444Y3540000D01*
X-455555Y2540000D02*
X-455555Y3540000D01*
X-217777Y3540000D01*
X-74444Y3492222D01*
X21112Y3396667D01*
X67778Y3302222D01*
X115556Y3111111D01*
X115556Y2968889D01*
X67778Y2777778D01*
X21112Y2683333D01*
X-74444Y2587778D01*
X-217777Y2540000D01*
X-455555Y2540000D01*
X515556Y3540000D02*
X515556Y2730000D01*
X563334Y2635556D01*
X611112Y2587778D01*
X705556Y2540000D01*
X896667Y2540000D01*
X992223Y2587778D01*
X1038889Y2635556D01*
X1086667Y2730000D01*
X1086667Y3540000D01*
X1963334Y2540000D02*
X1486667Y2540000D01*
X1486667Y3540000D01*
X2363334Y3063333D02*
X2696667Y3063333D01*
X2840001Y2540000D02*
X2363334Y2540000D01*
X2363334Y3540000D01*
X2840001Y3540000D01*
X3287779Y3444444D02*
X3335557Y3492222D01*
X3430001Y3540000D01*
X3668890Y3540000D01*
X3763334Y3492222D01*
X3811112Y3444444D01*
X3858890Y3350000D01*
X3858890Y3254444D01*
X3811112Y3111111D01*
X3240001Y2540000D01*
X3858890Y2540000D01*
G04 #@! TO.C,J4*
X32701111Y20685000D02*
X32701111Y19970556D01*
X32653333Y19828333D01*
X32557778Y19732778D01*
X32415556Y19685000D01*
X32320000Y19685000D01*
X33577778Y20351667D02*
X33577778Y19685000D01*
X33338889Y20732778D02*
X33101111Y20018333D01*
X33720000Y20018333D01*
G04 #@! TO.C,J11*
X1270000Y25889445D02*
X1984444Y25889445D01*
X2126667Y25841667D01*
X2222222Y25746112D01*
X2270000Y25603890D01*
X2270000Y25508334D01*
X2270000Y26860556D02*
X2270000Y26289445D01*
X2270000Y26575001D02*
X1270000Y26575001D01*
X1413333Y26479445D01*
X1507778Y26385001D01*
X1555556Y26289445D01*
X2270000Y27831667D02*
X2270000Y27260556D01*
X2270000Y27546112D02*
X1270000Y27546112D01*
X1413333Y27450556D01*
X1507778Y27356112D01*
X1555556Y27260556D01*
G04 #@! TO.C,MODULE3*
X-2588889Y-11430000D02*
X-2588889Y-10430000D01*
X-2255556Y-11144444D01*
X-1922222Y-10430000D01*
X-1922222Y-11430000D01*
X-1284444Y-10430000D02*
X-1093333Y-10430000D01*
X-998889Y-10477778D01*
X-903333Y-10573333D01*
X-855555Y-10763333D01*
X-855555Y-11096667D01*
X-903333Y-11286667D01*
X-998889Y-11382222D01*
X-1093333Y-11430000D01*
X-1284444Y-11430000D01*
X-1378889Y-11382222D01*
X-1474444Y-11286667D01*
X-1522222Y-11096667D01*
X-1522222Y-10763333D01*
X-1474444Y-10573333D01*
X-1378889Y-10477778D01*
X-1284444Y-10430000D01*
X-455555Y-11430000D02*
X-455555Y-10430000D01*
X-217777Y-10430000D01*
X-74444Y-10477778D01*
X21112Y-10573333D01*
X67778Y-10667778D01*
X115556Y-10858889D01*
X115556Y-11001111D01*
X67778Y-11192222D01*
X21112Y-11286667D01*
X-74444Y-11382222D01*
X-217777Y-11430000D01*
X-455555Y-11430000D01*
X515556Y-10430000D02*
X515556Y-11240000D01*
X563334Y-11334444D01*
X611112Y-11382222D01*
X705556Y-11430000D01*
X896667Y-11430000D01*
X992223Y-11382222D01*
X1038889Y-11334444D01*
X1086667Y-11240000D01*
X1086667Y-10430000D01*
X1963334Y-11430000D02*
X1486667Y-11430000D01*
X1486667Y-10430000D01*
X2363334Y-10906667D02*
X2696667Y-10906667D01*
X2840001Y-11430000D02*
X2363334Y-11430000D01*
X2363334Y-10430000D01*
X2840001Y-10430000D01*
X3240001Y-10430000D02*
X3858890Y-10430000D01*
X3525557Y-10811111D01*
X3668890Y-10811111D01*
X3763334Y-10858889D01*
X3811112Y-10906667D01*
X3858890Y-11001111D01*
X3858890Y-11240000D01*
X3811112Y-11334444D01*
X3763334Y-11382222D01*
X3668890Y-11430000D01*
X3383334Y-11430000D01*
X3287779Y-11382222D01*
X3240001Y-11334444D01*
G04 #@! TO.C,DC1*
X-37210000Y-5820555D02*
X-38210000Y-5820555D01*
X-38210000Y-5582777D01*
X-38162222Y-5439444D01*
X-38066667Y-5343888D01*
X-37972222Y-5297222D01*
X-37781111Y-5249444D01*
X-37638889Y-5249444D01*
X-37447778Y-5297222D01*
X-37353333Y-5343888D01*
X-37257778Y-5439444D01*
X-37210000Y-5582777D01*
X-37210000Y-5820555D01*
X-37305556Y-4230555D02*
X-37257778Y-4278333D01*
X-37210000Y-4420555D01*
X-37210000Y-4516111D01*
X-37257778Y-4659444D01*
X-37353333Y-4753888D01*
X-37447778Y-4801666D01*
X-37638889Y-4849444D01*
X-37781111Y-4849444D01*
X-37972222Y-4801666D01*
X-38066667Y-4753888D01*
X-38162222Y-4659444D01*
X-38210000Y-4516111D01*
X-38210000Y-4420555D01*
X-38162222Y-4278333D01*
X-38114444Y-4230555D01*
X-37210000Y-3259444D02*
X-37210000Y-3830555D01*
X-37210000Y-3544999D02*
X-38210000Y-3544999D01*
X-38066667Y-3640555D01*
X-37972222Y-3734999D01*
X-37924444Y-3830555D01*
G04 #@! TO.C,J9*
X4080000Y26375000D02*
X4794444Y26375000D01*
X4936667Y26327222D01*
X5032222Y26231667D01*
X5080000Y26089445D01*
X5080000Y25993889D01*
X5080000Y26870556D02*
X5080000Y27060556D01*
X5032222Y27156111D01*
X4984444Y27203889D01*
X4842222Y27298333D01*
X4651111Y27346111D01*
X4270000Y27346111D01*
X4175556Y27298333D01*
X4127778Y27251667D01*
X4080000Y27156111D01*
X4080000Y26965000D01*
X4127778Y26870556D01*
X4175556Y26822778D01*
X4270000Y26775000D01*
X4508889Y26775000D01*
X4603333Y26822778D01*
X4651111Y26870556D01*
X4698889Y26965000D01*
X4698889Y27156111D01*
X4651111Y27251667D01*
X4603333Y27298333D01*
X4508889Y27346111D01*
G04 #@! TO.C,MODULE1*
X-2565000Y16510000D02*
X-2565000Y17510000D01*
X-2231667Y16795556D01*
X-1898333Y17510000D01*
X-1898333Y16510000D01*
X-1260555Y17510000D02*
X-1069444Y17510000D01*
X-975000Y17462222D01*
X-879444Y17366667D01*
X-831666Y17176667D01*
X-831666Y16843333D01*
X-879444Y16653333D01*
X-975000Y16557778D01*
X-1069444Y16510000D01*
X-1260555Y16510000D01*
X-1355000Y16557778D01*
X-1450555Y16653333D01*
X-1498333Y16843333D01*
X-1498333Y17176667D01*
X-1450555Y17366667D01*
X-1355000Y17462222D01*
X-1260555Y17510000D01*
X-431666Y16510000D02*
X-431666Y17510000D01*
X-193888Y17510000D01*
X-50555Y17462222D01*
X45001Y17366667D01*
X91667Y17272222D01*
X139445Y17081111D01*
X139445Y16938889D01*
X91667Y16747778D01*
X45001Y16653333D01*
X-50555Y16557778D01*
X-193888Y16510000D01*
X-431666Y16510000D01*
X539445Y17510000D02*
X539445Y16700000D01*
X587223Y16605556D01*
X635001Y16557778D01*
X729445Y16510000D01*
X920556Y16510000D01*
X1016112Y16557778D01*
X1062778Y16605556D01*
X1110556Y16700000D01*
X1110556Y17510000D01*
X1987223Y16510000D02*
X1510556Y16510000D01*
X1510556Y17510000D01*
X2387223Y17033333D02*
X2720556Y17033333D01*
X2863890Y16510000D02*
X2387223Y16510000D01*
X2387223Y17510000D01*
X2863890Y17510000D01*
X3835001Y16510000D02*
X3263890Y16510000D01*
X3549446Y16510000D02*
X3549446Y17510000D01*
X3453890Y17366667D01*
X3359446Y17272222D01*
X3263890Y17224444D01*
G04 #@! TO.C,J2*
X40321111Y-20320000D02*
X40321111Y-21034444D01*
X40273333Y-21176667D01*
X40177778Y-21272222D01*
X40035556Y-21320000D01*
X39940000Y-21320000D01*
X40768889Y-20415556D02*
X40816667Y-20367778D01*
X40911111Y-20320000D01*
X41150000Y-20320000D01*
X41244444Y-20367778D01*
X41292222Y-20415556D01*
X41340000Y-20510000D01*
X41340000Y-20605556D01*
X41292222Y-20748889D01*
X40721111Y-21320000D01*
X41340000Y-21320000D01*
%LPC*%
D13*
G04 #@! TO.C,MODULE2*
X-14995000Y-3800000D03*
X-14995000Y-1280000D03*
X-14995000Y1280000D03*
X26425000Y-3820000D03*
X26425000Y-6360000D03*
X26425000Y-1260000D03*
X-14995000Y-6360000D03*
X26425000Y1280000D03*
D14*
G04 #@! TO.C,J4*
X33020000Y-635000D03*
X33020000Y6985000D03*
X33020000Y4445000D03*
D15*
X33020000Y17145000D03*
D14*
X33020000Y14605000D03*
X33020000Y1905000D03*
X33020000Y12065000D03*
X33020000Y9525000D03*
D16*
G04 #@! TO.C,J11*
X-3810000Y26670000D03*
X-6350000Y26670000D03*
X-8890000Y26670000D03*
D17*
X-1270000Y26670000D03*
D13*
G04 #@! TO.C,MODULE3*
X-14995000Y-17770000D03*
X-14995000Y-15250000D03*
X-14995000Y-12690000D03*
X26425000Y-17790000D03*
X26425000Y-20330000D03*
X26425000Y-15230000D03*
X-14995000Y-20330000D03*
X26425000Y-12690000D03*
D18*
G04 #@! TO.C,DC1*
X-38210000Y16960000D03*
X-20210000Y16960000D03*
X-38210000Y-22040000D03*
X-20210000Y-22040000D03*
D16*
G04 #@! TO.C,J9*
X12700000Y26670000D03*
D17*
X7620000Y26670000D03*
D16*
X10160000Y26670000D03*
D13*
G04 #@! TO.C,MODULE1*
X-14995000Y10170000D03*
X-14995000Y12690000D03*
X-14995000Y15250000D03*
X26425000Y10150000D03*
X26425000Y7610000D03*
X26425000Y12710000D03*
X-14995000Y7610000D03*
X26425000Y15250000D03*
D14*
G04 #@! TO.C,J2*
X40640000Y-15240000D03*
D15*
X40640000Y-17780000D03*
D19*
G04 #@! TD*
X41105000Y-30625000D03*
X-28895000Y27375000D03*
X41105000Y27375000D03*
X-28895000Y-30625000D03*
G04 --- BOARD END --- *
G04 #@! TF.MD5,0cc8e8895a788636bffd1e9024f8083f*
M02*
