G04 --- HEADER BEGIN --- *
G04 #@! TF.GenerationSoftware,LibrePCB,LibrePCB,1.1.0*
G04 #@! TF.CreationDate,2024-10-30T12:47:54*
G04 #@! TF.ProjectId,encoder diff driver board,5e1d4796-0e95-4f90-a33b-98ba50815d50,v1*
G04 #@! TF.Part,Single*
G04 #@! TF.SameCoordinates*
G04 #@! TF.FileFunction,Legend,Bot*
G04 #@! TF.FilePolarity,Positive*
%FSLAX66Y66*%
%MOMM*%
G01*
G75*
G04 --- HEADER END --- *
G04 --- APERTURE LIST BEGIN --- *
%ADD10C,0.0*%
%ADD11C,0.25*%
%ADD12C,0.2*%
%ADD13O,2.7X1.5*%
%ADD14O,2.39X1.787*%
%AMROUNDEDRECT15*20,1,1.787,-1.095,0.0,1.095,0.0,0.0*20,1,1.587,-1.195,0.0,1.195,0.0,0.0*1,1,0.2,-1.095,0.7935*1,1,0.2,1.095,0.7935*1,1,0.2,1.095,-0.7935*1,1,0.2,-1.095,-0.7935*%
%ADD15ROUNDEDRECT15*%
%ADD16O,1.787X2.39*%
%AMROUNDEDRECT17*20,1,1.787,-1.095,0.0,1.095,0.0,90.0*20,1,1.587,-1.195,0.0,1.195,0.0,90.0*1,1,0.2,-0.7935,-1.095*1,1,0.2,-0.7935,1.095*1,1,0.2,0.7935,1.095*1,1,0.2,0.7935,-1.095*%
%ADD17ROUNDEDRECT17*%
%AMROUNDEDRECT18*20,1,3.2,-1.5,0.0,1.5,0.0,0.0*20,1,3.0,-1.6,0.0,1.6,0.0,0.0*1,1,0.2,-1.5,1.5*1,1,0.2,1.5,1.5*1,1,0.2,1.5,-1.5*1,1,0.2,-1.5,-1.5*%
%ADD18ROUNDEDRECT18*%
%ADD19C,4.4*%
G04 --- APERTURE LIST END --- *
G04 --- BOARD BEGIN --- *
D10*
G04 #@! TO.C,MODULE2*
X-16265394Y4460000D02*
X27734606Y4460000D01*
X27734606Y-9540000D01*
X-16265394Y-9540000D01*
X-16265394Y4460000D01*
D11*
G04 #@! TO.C,J4*
X-22965394Y18270000D02*
X-22965394Y16145000D01*
X-22695394Y15875000D01*
X-22965394Y15605000D01*
X-22965394Y13605000D01*
X-22695394Y13335000D01*
X-22965394Y13065000D01*
X-22965394Y11065000D01*
X-22695394Y10795000D01*
X-22965394Y10525000D01*
X-22965394Y8525000D01*
X-22695394Y8255000D01*
X-22965394Y7985000D01*
X-22965394Y5985000D01*
X-22695394Y5715000D01*
X-22965394Y5445000D01*
X-22965394Y3445000D01*
X-22695394Y3175000D01*
X-22965394Y2905000D01*
X-22965394Y905000D01*
X-22695394Y635000D01*
X-22965394Y365000D01*
X-22965394Y-1760000D01*
X-22695394Y-2030000D01*
X-20445394Y-2030000D01*
X-20175394Y-1760000D01*
X-20175394Y365000D01*
X-20445394Y635000D01*
X-20175394Y905000D01*
X-20175394Y2905000D01*
X-20445394Y3175000D01*
X-20175394Y3445000D01*
X-20175394Y5445000D01*
X-20445394Y5715000D01*
X-20175394Y5985000D01*
X-20175394Y7985000D01*
X-20445394Y8255000D01*
X-20175394Y8525000D01*
X-20175394Y10525000D01*
X-20445394Y10795000D01*
X-20175394Y11065000D01*
X-20175394Y13065000D01*
X-20445394Y13335000D01*
X-20175394Y13605000D01*
X-20175394Y15605000D01*
X-20445394Y15875000D01*
X-20175394Y16145000D01*
X-20175394Y18270000D01*
X-20445394Y18540000D01*
X-22695394Y18540000D01*
X-22965394Y18270000D01*
G04 #@! TO.C,J11*
X11324606Y28065000D02*
X11324606Y25275000D01*
X21734606Y25275000D01*
X21734606Y28065000D01*
X11324606Y28065000D01*
D10*
G04 #@! TO.C,MODULE3*
X-16265394Y-9510000D02*
X27734606Y-9510000D01*
X27734606Y-23510000D01*
X-16265394Y-23510000D01*
X-16265394Y-9510000D01*
D12*
G04 #@! TO.C,DC1*
X48659606Y15211110D02*
X50659606Y14544443D01*
X48659606Y13877777D01*
X48659606Y12802221D02*
X48659606Y12419999D01*
X48755162Y12231110D01*
X48946273Y12039999D01*
X49326273Y11944444D01*
X49992939Y11944444D01*
X50372939Y12039999D01*
X50564050Y12231110D01*
X50659606Y12419999D01*
X50659606Y12802221D01*
X50564050Y12991110D01*
X50372939Y13182221D01*
X49992939Y13277777D01*
X49326273Y13277777D01*
X48946273Y13182221D01*
X48755162Y12991110D01*
X48659606Y12802221D01*
X48659606Y11344444D02*
X50279606Y11344444D01*
X50468495Y11248888D01*
X50564050Y11153333D01*
X50659606Y10964444D01*
X50659606Y10582222D01*
X50564050Y10391111D01*
X50468495Y10297777D01*
X50279606Y10202222D01*
X48659606Y10202222D01*
X48659606Y9602222D02*
X48659606Y8460000D01*
X50659606Y9031111D02*
X48659606Y9031111D01*
X48659606Y-15864446D02*
X50659606Y-16531113D01*
X48659606Y-17197779D01*
X50659606Y-17797779D02*
X48659606Y-17797779D01*
X50659606Y-18397779D02*
X48659606Y-18397779D01*
X50659606Y-19540001D01*
X48659606Y-19540001D01*
X30755162Y-15960000D02*
X30659606Y-15771111D01*
X30659606Y-15484445D01*
X30755162Y-15197778D01*
X30946273Y-15008889D01*
X31135162Y-14913334D01*
X31517384Y-14817778D01*
X31801828Y-14817778D01*
X32184050Y-14913334D01*
X32372939Y-15008889D01*
X32564050Y-15197778D01*
X32659606Y-15484445D01*
X32659606Y-15675556D01*
X32564050Y-15960000D01*
X32468495Y-16055556D01*
X31801828Y-16055556D01*
X31801828Y-15675556D01*
X32659606Y-16655556D02*
X30659606Y-16655556D01*
X32659606Y-17797778D01*
X30659606Y-17797778D01*
X32659606Y-18397778D02*
X30659606Y-18397778D01*
X30659606Y-18873334D01*
X30755162Y-19160000D01*
X30946273Y-19351111D01*
X31135162Y-19444445D01*
X31517384Y-19540000D01*
X31801828Y-19540000D01*
X32184050Y-19444445D01*
X32372939Y-19351111D01*
X32564050Y-19160000D01*
X32659606Y-18873334D01*
X32659606Y-18397778D01*
X30755162Y14040000D02*
X30659606Y14228889D01*
X30659606Y14515555D01*
X30755162Y14802222D01*
X30946273Y14991111D01*
X31135162Y15086666D01*
X31517384Y15182222D01*
X31801828Y15182222D01*
X32184050Y15086666D01*
X32372939Y14991111D01*
X32564050Y14802222D01*
X32659606Y14515555D01*
X32659606Y14324444D01*
X32564050Y14040000D01*
X32468495Y13944444D01*
X31801828Y13944444D01*
X31801828Y14324444D01*
X32659606Y13344444D02*
X30659606Y13344444D01*
X32659606Y12202222D01*
X30659606Y12202222D01*
X32659606Y11602222D02*
X30659606Y11602222D01*
X30659606Y11126666D01*
X30755162Y10840000D01*
X30946273Y10648889D01*
X31135162Y10555555D01*
X31517384Y10460000D01*
X31801828Y10460000D01*
X32184050Y10555555D01*
X32372939Y10648889D01*
X32564050Y10840000D01*
X32659606Y11126666D01*
X32659606Y11602222D01*
D11*
G04 #@! TO.C,J9*
X4954606Y28065000D02*
X2829606Y28065000D01*
X2559606Y27795000D01*
X2289606Y28065000D01*
X289606Y28065000D01*
X19606Y27795000D01*
X-250394Y28065000D01*
X-2375394Y28065000D01*
X-2645394Y27795000D01*
X-2645394Y25545000D01*
X-2375394Y25275000D01*
X-250394Y25275000D01*
X19606Y25545000D01*
X289606Y25275000D01*
X2289606Y25275000D01*
X2559606Y25545000D01*
X2829606Y25275000D01*
X4954606Y25275000D01*
X5224606Y25545000D01*
X5224606Y27795000D01*
X4954606Y28065000D01*
D10*
G04 #@! TO.C,MODULE1*
X-16265394Y18430000D02*
X27734606Y18430000D01*
X27734606Y4430000D01*
X-16265394Y4430000D01*
X-16265394Y18430000D01*
D11*
G04 #@! TO.C,J2*
X-27795394Y-18905000D02*
X-27795394Y-16780000D01*
X-28065394Y-16510000D01*
X-27795394Y-16240000D01*
X-27795394Y-14115000D01*
X-28065394Y-13845000D01*
X-30315394Y-13845000D01*
X-30585394Y-14115000D01*
X-30585394Y-16240000D01*
X-30315394Y-16510000D01*
X-30585394Y-16780000D01*
X-30585394Y-18905000D01*
X-30315394Y-19175000D01*
X-28065394Y-19175000D01*
X-27795394Y-18905000D01*
D12*
G04 #@! TO.C,MODULE2*
X14038495Y2540000D02*
X14038495Y3540000D01*
X13705162Y2825556D01*
X13371828Y3540000D01*
X13371828Y2540000D01*
X12734050Y3540000D02*
X12542939Y3540000D01*
X12448495Y3492222D01*
X12352939Y3396667D01*
X12305161Y3206667D01*
X12305161Y2873333D01*
X12352939Y2683333D01*
X12448495Y2587778D01*
X12542939Y2540000D01*
X12734050Y2540000D01*
X12828495Y2587778D01*
X12924050Y2683333D01*
X12971828Y2873333D01*
X12971828Y3206667D01*
X12924050Y3396667D01*
X12828495Y3492222D01*
X12734050Y3540000D01*
X11905161Y2540000D02*
X11905161Y3540000D01*
X11667383Y3540000D01*
X11524050Y3492222D01*
X11428494Y3396667D01*
X11381828Y3302222D01*
X11334050Y3111111D01*
X11334050Y2968889D01*
X11381828Y2777778D01*
X11428494Y2683333D01*
X11524050Y2587778D01*
X11667383Y2540000D01*
X11905161Y2540000D01*
X10934050Y3540000D02*
X10934050Y2730000D01*
X10886272Y2635556D01*
X10838494Y2587778D01*
X10744050Y2540000D01*
X10552939Y2540000D01*
X10457383Y2587778D01*
X10410717Y2635556D01*
X10362939Y2730000D01*
X10362939Y3540000D01*
X9486272Y2540000D02*
X9962939Y2540000D01*
X9962939Y3540000D01*
X9086272Y3063333D02*
X8752939Y3063333D01*
X8609605Y2540000D02*
X9086272Y2540000D01*
X9086272Y3540000D01*
X8609605Y3540000D01*
X8161827Y3444444D02*
X8114049Y3492222D01*
X8019605Y3540000D01*
X7780716Y3540000D01*
X7686272Y3492222D01*
X7638494Y3444444D01*
X7590716Y3350000D01*
X7590716Y3254444D01*
X7638494Y3111111D01*
X8209605Y2540000D01*
X7590716Y2540000D01*
G04 #@! TO.C,J4*
X-21251505Y20685000D02*
X-21251505Y19970556D01*
X-21203727Y19828333D01*
X-21108172Y19732778D01*
X-20965950Y19685000D01*
X-20870394Y19685000D01*
X-22128172Y20351667D02*
X-22128172Y19685000D01*
X-21889283Y20732778D02*
X-21651505Y20018333D01*
X-22270394Y20018333D01*
G04 #@! TO.C,J11*
X9179606Y27450555D02*
X9894050Y27450555D01*
X10036273Y27498333D01*
X10131828Y27593888D01*
X10179606Y27736110D01*
X10179606Y27831666D01*
X10179606Y26479444D02*
X10179606Y27050555D01*
X10179606Y26764999D02*
X9179606Y26764999D01*
X9322939Y26860555D01*
X9417384Y26954999D01*
X9465162Y27050555D01*
X10179606Y25508333D02*
X10179606Y26079444D01*
X10179606Y25793888D02*
X9179606Y25793888D01*
X9322939Y25889444D01*
X9417384Y25983888D01*
X9465162Y26079444D01*
G04 #@! TO.C,MODULE3*
X14038495Y-11430000D02*
X14038495Y-10430000D01*
X13705162Y-11144444D01*
X13371828Y-10430000D01*
X13371828Y-11430000D01*
X12734050Y-10430000D02*
X12542939Y-10430000D01*
X12448495Y-10477778D01*
X12352939Y-10573333D01*
X12305161Y-10763333D01*
X12305161Y-11096667D01*
X12352939Y-11286667D01*
X12448495Y-11382222D01*
X12542939Y-11430000D01*
X12734050Y-11430000D01*
X12828495Y-11382222D01*
X12924050Y-11286667D01*
X12971828Y-11096667D01*
X12971828Y-10763333D01*
X12924050Y-10573333D01*
X12828495Y-10477778D01*
X12734050Y-10430000D01*
X11905161Y-11430000D02*
X11905161Y-10430000D01*
X11667383Y-10430000D01*
X11524050Y-10477778D01*
X11428494Y-10573333D01*
X11381828Y-10667778D01*
X11334050Y-10858889D01*
X11334050Y-11001111D01*
X11381828Y-11192222D01*
X11428494Y-11286667D01*
X11524050Y-11382222D01*
X11667383Y-11430000D01*
X11905161Y-11430000D01*
X10934050Y-10430000D02*
X10934050Y-11240000D01*
X10886272Y-11334444D01*
X10838494Y-11382222D01*
X10744050Y-11430000D01*
X10552939Y-11430000D01*
X10457383Y-11382222D01*
X10410717Y-11334444D01*
X10362939Y-11240000D01*
X10362939Y-10430000D01*
X9486272Y-11430000D02*
X9962939Y-11430000D01*
X9962939Y-10430000D01*
X9086272Y-10906667D02*
X8752939Y-10906667D01*
X8609605Y-11430000D02*
X9086272Y-11430000D01*
X9086272Y-10430000D01*
X8609605Y-10430000D01*
X8209605Y-10430000D02*
X7590716Y-10430000D01*
X7924049Y-10811111D01*
X7780716Y-10811111D01*
X7686272Y-10858889D01*
X7638494Y-10906667D01*
X7590716Y-11001111D01*
X7590716Y-11240000D01*
X7638494Y-11334444D01*
X7686272Y-11382222D01*
X7780716Y-11430000D01*
X8066272Y-11430000D01*
X8161827Y-11382222D01*
X8209605Y-11334444D01*
G04 #@! TO.C,DC1*
X49659606Y-3259445D02*
X48659606Y-3259445D01*
X48659606Y-3497223D01*
X48707384Y-3640556D01*
X48802939Y-3736112D01*
X48897384Y-3782778D01*
X49088495Y-3830556D01*
X49230717Y-3830556D01*
X49421828Y-3782778D01*
X49516273Y-3736112D01*
X49611828Y-3640556D01*
X49659606Y-3497223D01*
X49659606Y-3259445D01*
X49564050Y-4849445D02*
X49611828Y-4801667D01*
X49659606Y-4659445D01*
X49659606Y-4563889D01*
X49611828Y-4420556D01*
X49516273Y-4326112D01*
X49421828Y-4278334D01*
X49230717Y-4230556D01*
X49088495Y-4230556D01*
X48897384Y-4278334D01*
X48802939Y-4326112D01*
X48707384Y-4420556D01*
X48659606Y-4563889D01*
X48659606Y-4659445D01*
X48707384Y-4801667D01*
X48755162Y-4849445D01*
X49659606Y-5820556D02*
X49659606Y-5249445D01*
X49659606Y-5535001D02*
X48659606Y-5535001D01*
X48802939Y-5439445D01*
X48897384Y-5345001D01*
X48945162Y-5249445D01*
G04 #@! TO.C,J9*
X6369606Y26965000D02*
X7084050Y26965000D01*
X7226273Y27012778D01*
X7321828Y27108333D01*
X7369606Y27250555D01*
X7369606Y27346111D01*
X7369606Y26469444D02*
X7369606Y26279444D01*
X7321828Y26183889D01*
X7274050Y26136111D01*
X7131828Y26041667D01*
X6940717Y25993889D01*
X6559606Y25993889D01*
X6465162Y26041667D01*
X6417384Y26088333D01*
X6369606Y26183889D01*
X6369606Y26375000D01*
X6417384Y26469444D01*
X6465162Y26517222D01*
X6559606Y26565000D01*
X6798495Y26565000D01*
X6892939Y26517222D01*
X6940717Y26469444D01*
X6988495Y26375000D01*
X6988495Y26183889D01*
X6940717Y26088333D01*
X6892939Y26041667D01*
X6798495Y25993889D01*
G04 #@! TO.C,MODULE1*
X14014606Y16510000D02*
X14014606Y17510000D01*
X13681273Y16795556D01*
X13347939Y17510000D01*
X13347939Y16510000D01*
X12710161Y17510000D02*
X12519050Y17510000D01*
X12424606Y17462222D01*
X12329050Y17366667D01*
X12281272Y17176667D01*
X12281272Y16843333D01*
X12329050Y16653333D01*
X12424606Y16557778D01*
X12519050Y16510000D01*
X12710161Y16510000D01*
X12804606Y16557778D01*
X12900161Y16653333D01*
X12947939Y16843333D01*
X12947939Y17176667D01*
X12900161Y17366667D01*
X12804606Y17462222D01*
X12710161Y17510000D01*
X11881272Y16510000D02*
X11881272Y17510000D01*
X11643494Y17510000D01*
X11500161Y17462222D01*
X11404605Y17366667D01*
X11357939Y17272222D01*
X11310161Y17081111D01*
X11310161Y16938889D01*
X11357939Y16747778D01*
X11404605Y16653333D01*
X11500161Y16557778D01*
X11643494Y16510000D01*
X11881272Y16510000D01*
X10910161Y17510000D02*
X10910161Y16700000D01*
X10862383Y16605556D01*
X10814605Y16557778D01*
X10720161Y16510000D01*
X10529050Y16510000D01*
X10433494Y16557778D01*
X10386828Y16605556D01*
X10339050Y16700000D01*
X10339050Y17510000D01*
X9462383Y16510000D02*
X9939050Y16510000D01*
X9939050Y17510000D01*
X9062383Y17033333D02*
X8729050Y17033333D01*
X8585716Y16510000D02*
X9062383Y16510000D01*
X9062383Y17510000D01*
X8585716Y17510000D01*
X7614605Y16510000D02*
X8185716Y16510000D01*
X7900160Y16510000D02*
X7900160Y17510000D01*
X7995716Y17366667D01*
X8090160Y17272222D01*
X8185716Y17224444D01*
G04 #@! TO.C,J2*
X-28871505Y-20320000D02*
X-28871505Y-21034444D01*
X-28823727Y-21176667D01*
X-28728172Y-21272222D01*
X-28585950Y-21320000D01*
X-28490394Y-21320000D01*
X-29319283Y-20415556D02*
X-29367061Y-20367778D01*
X-29461505Y-20320000D01*
X-29700394Y-20320000D01*
X-29794838Y-20367778D01*
X-29842616Y-20415556D01*
X-29890394Y-20510000D01*
X-29890394Y-20605556D01*
X-29842616Y-20748889D01*
X-29271505Y-21320000D01*
X-29890394Y-21320000D01*
%LPC*%
D13*
G04 #@! TO.C,MODULE2*
X26444606Y-3800000D03*
X26444606Y-1280000D03*
X26444606Y1280000D03*
X-14975394Y-3820000D03*
X-14975394Y-6360000D03*
X-14975394Y-1260000D03*
X26444606Y-6360000D03*
X-14975394Y1280000D03*
D14*
G04 #@! TO.C,J4*
X-21570394Y-635000D03*
X-21570394Y6985000D03*
X-21570394Y4445000D03*
D15*
X-21570394Y17145000D03*
D14*
X-21570394Y14605000D03*
X-21570394Y1905000D03*
X-21570394Y12065000D03*
X-21570394Y9525000D03*
D16*
G04 #@! TO.C,J11*
X15259606Y26670000D03*
X17799606Y26670000D03*
X20339606Y26670000D03*
D17*
X12719606Y26670000D03*
D13*
G04 #@! TO.C,MODULE3*
X26444606Y-17770000D03*
X26444606Y-15250000D03*
X26444606Y-12690000D03*
X-14975394Y-17790000D03*
X-14975394Y-20330000D03*
X-14975394Y-15230000D03*
X26444606Y-20330000D03*
X-14975394Y-12690000D03*
D18*
G04 #@! TO.C,DC1*
X49659606Y16960000D03*
X31659606Y16960000D03*
X49659606Y-22040000D03*
X31659606Y-22040000D03*
D16*
G04 #@! TO.C,J9*
X-1250394Y26670000D03*
D17*
X3829606Y26670000D03*
D16*
X1289606Y26670000D03*
D13*
G04 #@! TO.C,MODULE1*
X26444606Y10170000D03*
X26444606Y12690000D03*
X26444606Y15250000D03*
X-14975394Y10150000D03*
X-14975394Y7610000D03*
X-14975394Y12710000D03*
X26444606Y7610000D03*
X-14975394Y15250000D03*
D14*
G04 #@! TO.C,J2*
X-29190394Y-15240000D03*
D15*
X-29190394Y-17780000D03*
D19*
G04 #@! TD*
X-29655394Y-30625000D03*
X40344606Y27375000D03*
X-29655394Y27375000D03*
X40344606Y-30625000D03*
G04 --- BOARD END --- *
G04 #@! TF.MD5,ef9f2553fcb5ebdabb6a0f30da9fab25*
M02*
