M48
; #@! TF.GenerationSoftware,LibrePCB,LibrePCB,1.1.0
; #@! TF.CreationDate,2024-10-30T12:47:54
; #@! TF.ProjectId,encoder diff driver board,5e1d4796-0e95-4f90-a33b-98ba50815d50,v1
; #@! TF.Part,Single
; #@! TF.SameCoordinates
; #@! TF.FileFunction,MixedPlating,1,2
FMAT,2
METRIC,TZ
; #@! TA.AperFunction,Plated,PTH,ComponentDrill
T1C0.8
; #@! TA.AperFunction,Plated,PTH,ComponentDrill
T2C0.9
; #@! TA.AperFunction,Plated,PTH,ComponentDrill
T3C1.0
; #@! TA.AperFunction,Plated,PTH,ComponentDrill
T4C1.1
; #@! TA.AperFunction,NonPlated,NPTH,MechanicalDrill
T5C4.2
%
G90
G05
M71
T1
X-14.975394Y15.25
X26.444606Y7.61
X-14.975394Y12.71
X-14.975394Y7.61
X-14.975394Y10.15
X26.444606Y15.25
X26.444606Y12.69
X26.444606Y10.17
X-14.975394Y-12.69
X26.444606Y-20.33
X-14.975394Y-15.23
X-14.975394Y-20.33
X-14.975394Y-17.79
X26.444606Y-12.69
X26.444606Y-15.25
X26.444606Y-17.77
X-14.975394Y1.28
X26.444606Y-6.36
X-14.975394Y-1.26
X-14.975394Y-6.36
X-14.975394Y-3.82
X26.444606Y1.28
X26.444606Y-1.28
X26.444606Y-3.8
T2
X1.289606Y26.67
X3.829606Y26.67
X-1.250394Y26.67
X12.719606Y26.67
X20.339606Y26.67
X17.799606Y26.67
X15.259606Y26.67
X-21.570394Y9.525
X-21.570394Y12.065
X-21.570394Y1.905
X-21.570394Y14.605
X-21.570394Y17.145
X-21.570394Y4.445
X-21.570394Y6.985
X-21.570394Y-0.635
T3
X31.659606Y-22.04
X49.659606Y-22.04
X31.659606Y16.96
X49.659606Y16.96
T4
X-29.190394Y-17.78
X-29.190394Y-15.24
T5
X40.344606Y-30.625
X-29.655394Y27.375
X40.344606Y27.375
X-29.655394Y-30.625
T0
M30
