G04 --- HEADER BEGIN --- *
G04 #@! TF.GenerationSoftware,LibrePCB,LibrePCB,1.1.0*
G04 #@! TF.CreationDate,2024-10-30T12:47:54*
G04 #@! TF.ProjectId,encoder diff driver board,5e1d4796-0e95-4f90-a33b-98ba50815d50,v1*
G04 #@! TF.Part,Single*
G04 #@! TF.SameCoordinates*
G04 #@! TF.FileFunction,Copper,L2,Bot*
G04 #@! TF.FilePolarity,Positive*
%FSLAX66Y66*%
%MOMM*%
G01*
G75*
G04 --- HEADER END --- *
G04 --- APERTURE LIST BEGIN --- *
G04 #@! TA.AperFunction,ComponentPad*
%ADD10O,2.5X1.3*%
%ADD11O,2.19X1.587*%
%ADD12R,2.19X1.587*%
%ADD13O,1.587X2.19*%
%ADD14R,1.587X2.19*%
%ADD15R,3.0X3.0*%
G04 #@! TA.AperFunction,Conductor*
%ADD16C,0.5*%
%ADD17C,0.01*%
G04 #@! TD*
G04 --- APERTURE LIST END --- *
G04 --- BOARD BEGIN --- *
D10*
G04 #@! TO.N,+5V*
G04 #@! TO.C,MODULE2*
G04 #@! TO.P,MODULE2,DE,DE*
X26444606Y-3800000D03*
G04 #@! TO.P,MODULE2,RE,RE*
X26444606Y-1280000D03*
G04 #@! TO.N,N/C*
G04 #@! TO.P,MODULE2,RO,RO*
X26444606Y1280000D03*
G04 #@! TO.N,B-*
G04 #@! TO.P,MODULE2,A,A*
X-14975394Y-3820000D03*
G04 #@! TO.N,GND*
G04 #@! TO.P,MODULE2,GND,GND*
X-14975394Y-6360000D03*
G04 #@! TO.N,B+*
G04 #@! TO.P,MODULE2,B,B*
X-14975394Y-1260000D03*
G04 #@! TO.N,ENC_B*
G04 #@! TO.P,MODULE2,DI,DI*
X26444606Y-6360000D03*
G04 #@! TO.N,+5V*
G04 #@! TO.P,MODULE2,VCC,VCC*
X-14975394Y1280000D03*
D11*
G04 #@! TO.N,Z+*
G04 #@! TO.C,J4*
G04 #@! TO.P,J4,8,8*
X-21570394Y-635000D03*
G04 #@! TO.N,B+*
G04 #@! TO.P,J4,5,5*
X-21570394Y6985000D03*
G04 #@! TO.N,N/C*
G04 #@! TO.P,J4,6,6*
X-21570394Y4445000D03*
D12*
G04 #@! TO.N,A-*
G04 #@! TO.P,J4,1,1*
X-21570394Y17145000D03*
D11*
G04 #@! TO.N,A+*
G04 #@! TO.P,J4,2,2*
X-21570394Y14605000D03*
G04 #@! TO.N,Z-*
G04 #@! TO.P,J4,7,7*
X-21570394Y1905000D03*
G04 #@! TO.N,GND*
G04 #@! TO.P,J4,3,3*
X-21570394Y12065000D03*
G04 #@! TO.N,B-*
G04 #@! TO.P,J4,4,4*
X-21570394Y9525000D03*
D13*
G04 #@! TO.N,ENC_B*
G04 #@! TO.C,J11*
G04 #@! TO.P,J11,2,2*
X15259606Y26670000D03*
G04 #@! TO.N,ENC_A*
G04 #@! TO.P,J11,3,3*
X17799606Y26670000D03*
G04 #@! TO.N,GND*
G04 #@! TO.P,J11,4,4*
X20339606Y26670000D03*
D14*
G04 #@! TO.N,+24V*
G04 #@! TO.P,J11,1,1*
X12719606Y26670000D03*
D10*
G04 #@! TO.N,+5V*
G04 #@! TO.C,MODULE3*
G04 #@! TO.P,MODULE3,DE,DE*
X26444606Y-17770000D03*
G04 #@! TO.P,MODULE3,RE,RE*
X26444606Y-15250000D03*
G04 #@! TO.N,N/C*
G04 #@! TO.P,MODULE3,RO,RO*
X26444606Y-12690000D03*
G04 #@! TO.N,Z-*
G04 #@! TO.P,MODULE3,A,A*
X-14975394Y-17790000D03*
G04 #@! TO.N,GND*
G04 #@! TO.P,MODULE3,GND,GND*
X-14975394Y-20330000D03*
G04 #@! TO.N,Z+*
G04 #@! TO.P,MODULE3,B,B*
X-14975394Y-15230000D03*
G04 #@! TO.N,ENC_Z*
G04 #@! TO.P,MODULE3,DI,DI*
X26444606Y-20330000D03*
G04 #@! TO.N,+5V*
G04 #@! TO.P,MODULE3,VCC,VCC*
X-14975394Y-12690000D03*
D15*
G04 #@! TO.C,DC1*
G04 #@! TO.P,DC1,VOUT,VOUT+*
X49659606Y16960000D03*
G04 #@! TO.N,GND*
G04 #@! TO.P,DC1,GNDIN,GND*
X31659606Y16960000D03*
G04 #@! TO.N,+24V*
G04 #@! TO.P,DC1,VIN,VIN+*
X49659606Y-22040000D03*
G04 #@! TO.N,GND*
G04 #@! TO.P,DC1,GNDIN,GND*
X31659606Y-22040000D03*
D13*
G04 #@! TO.N,+5V*
G04 #@! TO.C,J9*
G04 #@! TO.P,J9,3,3*
X-1250394Y26670000D03*
D14*
G04 #@! TO.N,GND*
G04 #@! TO.P,J9,1,1*
X3829606Y26670000D03*
D13*
G04 #@! TO.N,ENC_Z*
G04 #@! TO.P,J9,2,2*
X1289606Y26670000D03*
D10*
G04 #@! TO.N,+5V*
G04 #@! TO.C,MODULE1*
G04 #@! TO.P,MODULE1,DE,DE*
X26444606Y10170000D03*
G04 #@! TO.P,MODULE1,RE,RE*
X26444606Y12690000D03*
G04 #@! TO.N,N/C*
G04 #@! TO.P,MODULE1,RO,RO*
X26444606Y15250000D03*
G04 #@! TO.N,A+*
G04 #@! TO.P,MODULE1,A,A*
X-14975394Y10150000D03*
G04 #@! TO.N,GND*
G04 #@! TO.P,MODULE1,GND,GND*
X-14975394Y7610000D03*
G04 #@! TO.N,A-*
G04 #@! TO.P,MODULE1,B,B*
X-14975394Y12710000D03*
G04 #@! TO.N,ENC_A*
G04 #@! TO.P,MODULE1,DI,DI*
X26444606Y7610000D03*
G04 #@! TO.N,+5V*
G04 #@! TO.P,MODULE1,VCC,VCC*
X-14975394Y15250000D03*
D11*
G04 #@! TO.N,GND*
G04 #@! TO.C,J2*
G04 #@! TO.P,J2,2,2*
X-29190394Y-15240000D03*
D12*
G04 #@! TO.N,+24V*
G04 #@! TO.P,J2,1,1*
X-29190394Y-17780000D03*
D16*
G04 #@! TD.C*
G04 #@! TD.P*
G04 #@! TO.N,Z+*
X-17760394Y-15240000D02*
X-14975394Y-15240000D01*
X-14975394Y-15240000D02*
X-14975394Y-15230000D01*
X-21570394Y-10795000D02*
X-21570394Y-635000D01*
X-17760394Y-15240000D02*
X-21570394Y-10795000D01*
X-21570394Y-10795000D02*
X-21570394Y-10795000D01*
G04 #@! TO.N,ENC_B*
X15259606Y-6360000D02*
X15259606Y-6350000D01*
X15259606Y26670000D02*
X15259606Y-6350000D01*
X26444606Y-6360000D02*
X15259606Y-6360000D01*
G04 #@! TO.N,ENC_Z*
X1289606Y26670000D02*
X1289606Y-19685000D01*
X1289606Y-20330000D02*
X1289606Y-19685000D01*
X26444606Y-20330000D02*
X1289606Y-20330000D01*
G04 #@! TO.N,A+*
X-19665394Y13970000D02*
X-17760394Y10160000D01*
X-14975394Y10150000D02*
X-17760394Y10150000D01*
X-21570394Y14605000D02*
X-19665394Y13970000D01*
X-17760394Y10150000D02*
X-17760394Y10160000D01*
G04 #@! TO.N,+5V*
X40024606Y10160000D02*
X26444606Y10160000D01*
X-1250394Y26670000D02*
X-10140394Y26670000D01*
X49659606Y16960000D02*
X40024606Y16960000D01*
X40024606Y10160000D02*
X40024606Y17145000D01*
X-10140394Y-22860000D02*
X28594606Y-22860000D01*
X40024606Y-3175000D02*
X26444606Y-3175000D01*
X-10140394Y-12065000D02*
X-10140394Y1270000D01*
X28594606Y-15875000D02*
X28594606Y-22225000D01*
X28594606Y-22860000D02*
X28594606Y-22225000D01*
X-10140394Y-22860000D02*
X-10140394Y-12065000D01*
X40024606Y16960000D02*
X40024606Y17145000D01*
X-10140394Y15250000D02*
X-14975394Y15250000D01*
X26444606Y-3800000D02*
X26444606Y-1280000D01*
X-10775394Y-12700000D02*
X-10140394Y-12700000D01*
X26444606Y10160000D02*
X26444606Y10170000D01*
X-14975394Y-12690000D02*
X-10775394Y-12690000D01*
X28594606Y-15875000D02*
X26444606Y-15875000D01*
X40024606Y-3175000D02*
X40024606Y10160000D01*
X40024606Y-15875000D02*
X40024606Y-3175000D01*
X-10140394Y-12065000D02*
X-10140394Y-12700000D01*
X-10140394Y15250000D02*
X-10140394Y26670000D01*
X26444606Y-3175000D02*
X26444606Y-3800000D01*
X26444606Y10170000D02*
X26444606Y12690000D01*
X26444606Y-17770000D02*
X26444606Y-15250000D01*
X-14975394Y1280000D02*
X-10140394Y1280000D01*
X26444606Y-15875000D02*
X26444606Y-15250000D01*
X-10140394Y15250000D02*
X-10140394Y1270000D01*
X-10140394Y1280000D02*
X-10140394Y1270000D01*
X28594606Y-15875000D02*
X40024606Y-15875000D01*
X-10775394Y-12690000D02*
X-10775394Y-12700000D01*
G04 #@! TO.N,Z-*
X-17760394Y-17780000D02*
X-14975394Y-17780000D01*
X-17760394Y-17780000D02*
X-24110394Y-10795000D01*
X-24110394Y1905000D02*
X-21570394Y1905000D01*
X-24110394Y-10795000D02*
X-24110394Y-10795000D01*
X-14975394Y-17780000D02*
X-14975394Y-17790000D01*
X-24110394Y1905000D02*
X-24110394Y1905000D01*
X-24110394Y-10795000D02*
X-24110394Y1905000D01*
G04 #@! TO.N,B+*
X-21570394Y6985000D02*
X-21570394Y6985000D01*
X-17125394Y-1260000D02*
X-17125394Y-1270000D01*
X-14975394Y-1260000D02*
X-17125394Y-1260000D01*
X-18395394Y6985000D02*
X-17125394Y-1270000D01*
X-18395394Y6985000D02*
X-21570394Y6985000D01*
G04 #@! TO.N,GND*
X20339606Y26670000D02*
X20229606Y26670000D01*
G04 #@! TO.N,A-*
X-17125394Y12710000D02*
X-19030394Y17145000D01*
X-21570394Y17145000D02*
X-19030394Y17145000D01*
X-14975394Y12710000D02*
X-17125394Y12710000D01*
G04 #@! TO.N,ENC_A*
X17799606Y26670000D02*
X17799606Y8255000D01*
X26444606Y7610000D02*
X17799606Y7610000D01*
X17799606Y7610000D02*
X17799606Y8255000D01*
G04 #@! TO.N,B-*
X-14975394Y-3820000D02*
X-18395394Y-3820000D01*
X-24110394Y5715000D02*
X-19665394Y5715000D01*
X-18395394Y-3820000D02*
X-19665394Y5715000D01*
X-21570394Y9525000D02*
X-24110394Y9525000D01*
X-24110394Y9525000D02*
X-24110394Y5715000D01*
G04 #@! TO.N,+24V*
X47644606Y-24130000D02*
X48389606Y-23495000D01*
X48389606Y-23495000D02*
X49659606Y-22040000D01*
X24784606Y29845000D02*
X26689606Y27940000D01*
X31769606Y22225000D02*
X26689606Y27940000D01*
X-22840394Y-26670000D02*
X-29190394Y-17780000D01*
X12719606Y29845000D02*
X12719606Y26670000D01*
X50819606Y-20770000D02*
X53359606Y-17780000D01*
X31769606Y22225000D02*
X52089606Y22225000D01*
X52089606Y22225000D02*
X53359606Y20955000D01*
X12719606Y29845000D02*
X24784606Y29845000D01*
X35579606Y-24130000D02*
X35579606Y-26670000D01*
X47644606Y-24130000D02*
X35579606Y-24130000D01*
X35579606Y-26670000D02*
X-22840394Y-26670000D01*
X53359606Y-17780000D02*
X53359606Y20955000D01*
X49659606Y-22040000D02*
X50819606Y-20770000D01*
G04 #@! TO.N,GND*
X-14975394Y-6350000D02*
X-14975394Y-6360000D01*
D17*
G04 #@! TA.AperFunction,Conductor*
G36*
X-38250394Y-34550001D02*
X-38230727Y-34624252D01*
X-38176884Y-34679032D01*
X-38100395Y-34700000D01*
X-29801375Y-34700000D01*
X-29801375Y-33020264D01*
X-29810771Y-33019673D01*
X-30100433Y-32983080D01*
X-30109670Y-32981318D01*
X-30392468Y-32908709D01*
X-30401425Y-32905798D01*
X-30672877Y-32798322D01*
X-30681397Y-32794313D01*
X-30937249Y-32653657D01*
X-30945190Y-32648617D01*
X-31181397Y-32477003D01*
X-31188654Y-32471000D01*
X-31401477Y-32271145D01*
X-31407926Y-32264279D01*
X-31594022Y-32039327D01*
X-31599569Y-32031692D01*
X-31755999Y-31785198D01*
X-31760539Y-31776939D01*
X-31884849Y-31512769D01*
X-31888316Y-31504013D01*
X-31978537Y-31226341D01*
X-31980878Y-31217220D01*
X-32035586Y-30930431D01*
X-32036765Y-30921097D01*
X-32055098Y-30629705D01*
X-32055098Y-30620295D01*
X-32036765Y-30328903D01*
X-32035586Y-30319569D01*
X-31980878Y-30032780D01*
X-31978537Y-30023659D01*
X-31888316Y-29745987D01*
X-31884849Y-29737231D01*
X-31760539Y-29473061D01*
X-31755999Y-29464802D01*
X-31599569Y-29218308D01*
X-31594022Y-29210673D01*
X-31407926Y-28985721D01*
X-31401477Y-28978855D01*
X-31188654Y-28779000D01*
X-31181397Y-28772997D01*
X-30945190Y-28601383D01*
X-30937249Y-28596343D01*
X-30681397Y-28455687D01*
X-30672877Y-28451678D01*
X-30401425Y-28344202D01*
X-30392468Y-28341291D01*
X-30109670Y-28268682D01*
X-30100433Y-28266920D01*
X-29810771Y-28230327D01*
X-29801375Y-28229736D01*
X-29509413Y-28229736D01*
X-29500017Y-28230327D01*
X-29210355Y-28266920D01*
X-29201118Y-28268682D01*
X-28918320Y-28341291D01*
X-28909363Y-28344202D01*
X-28637911Y-28451678D01*
X-28629391Y-28455687D01*
X-28373539Y-28596343D01*
X-28365598Y-28601383D01*
X-28129391Y-28772997D01*
X-28122134Y-28779000D01*
X-27909311Y-28978855D01*
X-27902862Y-28985721D01*
X-27716766Y-29210673D01*
X-27711219Y-29218308D01*
X-27554789Y-29464802D01*
X-27550249Y-29473061D01*
X-27425939Y-29737231D01*
X-27422472Y-29745987D01*
X-27332251Y-30023659D01*
X-27329910Y-30032780D01*
X-27275202Y-30319569D01*
X-27274023Y-30328903D01*
X-27255690Y-30620295D01*
X-27255690Y-30629705D01*
X-27274023Y-30921097D01*
X-27275202Y-30930431D01*
X-27329910Y-31217220D01*
X-27332251Y-31226341D01*
X-27422472Y-31504013D01*
X-27425939Y-31512769D01*
X-27550249Y-31776939D01*
X-27554789Y-31785198D01*
X-27711219Y-32031692D01*
X-27716766Y-32039327D01*
X-27902862Y-32264279D01*
X-27909311Y-32271145D01*
X-28122134Y-32471000D01*
X-28129391Y-32477003D01*
X-28365598Y-32648617D01*
X-28373539Y-32653657D01*
X-28629391Y-32794313D01*
X-28637911Y-32798322D01*
X-28909363Y-32905798D01*
X-28918320Y-32908709D01*
X-29201118Y-32981318D01*
X-29210355Y-32983080D01*
X-29500017Y-33019673D01*
X-29509413Y-33020264D01*
X-29801375Y-33020264D01*
X-29801375Y-34700000D01*
X-22835483Y-34700000D01*
X-22835483Y-27220000D01*
X-22845266Y-27219359D01*
X-22878228Y-27215020D01*
X-22892664Y-27213825D01*
X-22920992Y-27212854D01*
X-22940218Y-27209649D01*
X-22944442Y-27208361D01*
X-22968632Y-27203117D01*
X-22972998Y-27202542D01*
X-22991827Y-27197497D01*
X-23017985Y-27186662D01*
X-23031625Y-27181769D01*
X-23058743Y-27173498D01*
X-23076489Y-27165424D01*
X-23080238Y-27163085D01*
X-23102248Y-27151758D01*
X-23106315Y-27150074D01*
X-23123198Y-27140326D01*
X-23145668Y-27123085D01*
X-23157577Y-27114829D01*
X-23181618Y-27099828D01*
X-23196667Y-27087440D01*
X-23199688Y-27084205D01*
X-23218007Y-27067577D01*
X-23221506Y-27064892D01*
X-23235287Y-27051111D01*
X-23252536Y-27028632D01*
X-23261900Y-27017577D01*
X-23284602Y-26993264D01*
X-23290804Y-26985682D01*
X-29040352Y-18936314D01*
X-29099513Y-18887325D01*
X-29162411Y-18873500D01*
X-30279506Y-18873500D01*
X-30291211Y-18872579D01*
X-30366435Y-18860664D01*
X-30388621Y-18853456D01*
X-30451211Y-18821565D01*
X-30470079Y-18807856D01*
X-30519750Y-18758185D01*
X-30533459Y-18739317D01*
X-30565350Y-18676727D01*
X-30572558Y-18654541D01*
X-30584473Y-18579317D01*
X-30585394Y-18567612D01*
X-30585394Y-16992388D01*
X-30584473Y-16980683D01*
X-30572558Y-16905459D01*
X-30565350Y-16883273D01*
X-30533459Y-16820683D01*
X-30519750Y-16801815D01*
X-30470079Y-16752144D01*
X-30451211Y-16738435D01*
X-30388621Y-16706544D01*
X-30366435Y-16699336D01*
X-30292706Y-16687658D01*
X-30222446Y-16656618D01*
X-30176763Y-16594869D01*
X-30167636Y-16518602D01*
X-30197458Y-16447816D01*
X-30234129Y-16413932D01*
X-30342605Y-16343061D01*
X-30352365Y-16335464D01*
X-30512560Y-16187994D01*
X-30520936Y-16178895D01*
X-30654670Y-16007074D01*
X-30661440Y-15996711D01*
X-30765069Y-15805223D01*
X-30770040Y-15793892D01*
X-30840738Y-15587954D01*
X-30843775Y-15575960D01*
X-30871591Y-15409268D01*
X-30870546Y-15398143D01*
X-30855276Y-15392564D01*
X-30855276Y-15089995D01*
X-30866076Y-15087134D01*
X-30870437Y-15063817D01*
X-30843775Y-14904040D01*
X-30840738Y-14892046D01*
X-30770040Y-14686108D01*
X-30765069Y-14674777D01*
X-30661440Y-14483289D01*
X-30654670Y-14472926D01*
X-30520936Y-14301105D01*
X-30512560Y-14292006D01*
X-30352365Y-14144536D01*
X-30342605Y-14136939D01*
X-30160316Y-14017843D01*
X-30149451Y-14011963D01*
X-29950040Y-13924494D01*
X-29938355Y-13920483D01*
X-29801375Y-13885794D01*
X-29801375Y24979736D01*
X-29810771Y24980327D01*
X-30100433Y25016920D01*
X-30109670Y25018682D01*
X-30392468Y25091291D01*
X-30401425Y25094202D01*
X-30672877Y25201678D01*
X-30681397Y25205687D01*
X-30937249Y25346343D01*
X-30945190Y25351383D01*
X-31181397Y25522997D01*
X-31188654Y25529000D01*
X-31401477Y25728855D01*
X-31407926Y25735721D01*
X-31594022Y25960673D01*
X-31599569Y25968308D01*
X-31755999Y26214802D01*
X-31760539Y26223061D01*
X-31884849Y26487231D01*
X-31888316Y26495987D01*
X-31978537Y26773659D01*
X-31980878Y26782780D01*
X-32035586Y27069569D01*
X-32036765Y27078903D01*
X-32055098Y27370295D01*
X-32055098Y27379705D01*
X-32036765Y27671097D01*
X-32035586Y27680431D01*
X-31980878Y27967220D01*
X-31978537Y27976341D01*
X-31888316Y28254013D01*
X-31884849Y28262769D01*
X-31760539Y28526939D01*
X-31755999Y28535198D01*
X-31599569Y28781692D01*
X-31594022Y28789327D01*
X-31407926Y29014279D01*
X-31401477Y29021145D01*
X-31188654Y29221000D01*
X-31181397Y29227003D01*
X-30945190Y29398617D01*
X-30937249Y29403657D01*
X-30681397Y29544313D01*
X-30672877Y29548322D01*
X-30401425Y29655798D01*
X-30392468Y29658709D01*
X-30109670Y29731318D01*
X-30100433Y29733080D01*
X-29810771Y29769673D01*
X-29801375Y29770264D01*
X-29509413Y29770264D01*
X-29500017Y29769673D01*
X-29210355Y29733080D01*
X-29201118Y29731318D01*
X-28918320Y29658709D01*
X-28909363Y29655798D01*
X-28637911Y29548322D01*
X-28629391Y29544313D01*
X-28373539Y29403657D01*
X-28365598Y29398617D01*
X-28129391Y29227003D01*
X-28122134Y29221000D01*
X-27909311Y29021145D01*
X-27902862Y29014279D01*
X-27716766Y28789327D01*
X-27711219Y28781692D01*
X-27554789Y28535198D01*
X-27550249Y28526939D01*
X-27425939Y28262769D01*
X-27422472Y28254013D01*
X-27332251Y27976341D01*
X-27329910Y27967220D01*
X-27275202Y27680431D01*
X-27274023Y27671097D01*
X-27255690Y27379705D01*
X-27255690Y27370295D01*
X-27274023Y27078903D01*
X-27275202Y27069569D01*
X-27329910Y26782780D01*
X-27332251Y26773659D01*
X-27422472Y26495987D01*
X-27425939Y26487231D01*
X-27550249Y26223061D01*
X-27554789Y26214802D01*
X-27711219Y25968308D01*
X-27716766Y25960673D01*
X-27902862Y25735721D01*
X-27909311Y25728855D01*
X-28122134Y25529000D01*
X-28129391Y25522997D01*
X-28365598Y25351383D01*
X-28373539Y25346343D01*
X-28629391Y25205687D01*
X-28637911Y25201678D01*
X-28909363Y25094202D01*
X-28918320Y25091291D01*
X-29201118Y25018682D01*
X-29210355Y25016920D01*
X-29500017Y24980327D01*
X-29509413Y24979736D01*
X-29801375Y24979736D01*
X-29801375Y-13885794D01*
X-29727272Y-13867029D01*
X-29715076Y-13864994D01*
X-29494978Y-13846756D01*
X-29488796Y-13846500D01*
X-29359928Y-13846500D01*
X-29344837Y-13850497D01*
X-29340399Y-13866687D01*
X-29340399Y-14446500D01*
X-29491894Y-14446500D01*
X-29668464Y-14466395D01*
X-29836181Y-14525081D01*
X-29986633Y-14619617D01*
X-30112277Y-14745261D01*
X-30206813Y-14895713D01*
X-30265499Y-15063430D01*
X-30268492Y-15089995D01*
X-30855276Y-15089995D01*
X-30855276Y-15392564D01*
X-30848268Y-15390005D01*
X-30268492Y-15390005D01*
X-30265499Y-15416570D01*
X-30206813Y-15584287D01*
X-30112277Y-15734739D01*
X-29986633Y-15860383D01*
X-29836181Y-15954919D01*
X-29668464Y-16013605D01*
X-29491894Y-16033500D01*
X-28888894Y-16033500D01*
X-28712324Y-16013605D01*
X-28544607Y-15954919D01*
X-28394155Y-15860383D01*
X-28268511Y-15734739D01*
X-28173975Y-15584287D01*
X-28115289Y-15416570D01*
X-28112296Y-15390005D01*
X-28112296Y-15089995D01*
X-28115289Y-15063430D01*
X-28173975Y-14895713D01*
X-28268511Y-14745261D01*
X-28394155Y-14619617D01*
X-28544607Y-14525081D01*
X-28712324Y-14466395D01*
X-28888894Y-14446500D01*
X-29040389Y-14446500D01*
X-29040389Y-13866029D01*
X-29036392Y-13850938D01*
X-29020202Y-13846500D01*
X-28891992Y-13846500D01*
X-28885810Y-13846756D01*
X-28665712Y-13864994D01*
X-28653516Y-13867029D01*
X-28442433Y-13920483D01*
X-28430748Y-13924494D01*
X-28231337Y-14011963D01*
X-28220472Y-14017843D01*
X-28038183Y-14136939D01*
X-28028423Y-14144536D01*
X-27868228Y-14292006D01*
X-27859852Y-14301105D01*
X-27726118Y-14472926D01*
X-27719348Y-14483289D01*
X-27615719Y-14674777D01*
X-27610748Y-14686108D01*
X-27540050Y-14892046D01*
X-27537013Y-14904040D01*
X-27509197Y-15070732D01*
X-27510242Y-15081857D01*
X-27532520Y-15089995D01*
X-28112296Y-15089995D01*
X-28112296Y-15390005D01*
X-27525512Y-15390005D01*
X-27514712Y-15392866D01*
X-27510351Y-15416183D01*
X-27537013Y-15575960D01*
X-27540050Y-15587954D01*
X-27610748Y-15793892D01*
X-27615719Y-15805223D01*
X-27719348Y-15996711D01*
X-27726118Y-16007074D01*
X-27859852Y-16178895D01*
X-27868228Y-16187994D01*
X-28028423Y-16335464D01*
X-28038183Y-16343061D01*
X-28146659Y-16413932D01*
X-28198063Y-16471008D01*
X-28214473Y-16546046D01*
X-28191588Y-16619368D01*
X-28135408Y-16671749D01*
X-28088082Y-16687658D01*
X-28014353Y-16699336D01*
X-27992167Y-16706544D01*
X-27929577Y-16738435D01*
X-27910709Y-16752144D01*
X-27861038Y-16801815D01*
X-27847329Y-16820683D01*
X-27815438Y-16883273D01*
X-27808230Y-16905459D01*
X-27796315Y-16980683D01*
X-27795394Y-16992388D01*
X-27795394Y-18567612D01*
X-27796315Y-18579317D01*
X-27808230Y-18654542D01*
X-27810358Y-18661092D01*
X-27814600Y-18737786D01*
X-27789760Y-18794631D01*
X-22602222Y-26057186D01*
X-22543061Y-26106175D01*
X-22480163Y-26120000D01*
X-15572123Y-26120000D01*
X-15572123Y-21580000D01*
X-15578655Y-21579715D01*
X-15785923Y-21561581D01*
X-15798784Y-21559314D01*
X-15996591Y-21506312D01*
X-16008859Y-21501846D01*
X-16194459Y-21415299D01*
X-16205756Y-21408777D01*
X-16373513Y-21291314D01*
X-16383514Y-21282921D01*
X-16528315Y-21138120D01*
X-16536708Y-21128119D01*
X-16654171Y-20960362D01*
X-16660693Y-20949065D01*
X-16747240Y-20763465D01*
X-16751706Y-20751197D01*
X-16804708Y-20553389D01*
X-16806975Y-20540530D01*
X-16810568Y-20499459D01*
X-16808285Y-20486292D01*
X-16792741Y-20481291D01*
X-16792741Y-20179995D01*
X-16805660Y-20176573D01*
X-16810219Y-20156555D01*
X-16806975Y-20119470D01*
X-16804708Y-20106611D01*
X-16751706Y-19908803D01*
X-16747240Y-19896535D01*
X-16660693Y-19710935D01*
X-16654171Y-19699638D01*
X-16536708Y-19531881D01*
X-16528315Y-19521880D01*
X-16383514Y-19377079D01*
X-16373513Y-19368686D01*
X-16205756Y-19251223D01*
X-16194459Y-19244701D01*
X-16008859Y-19158154D01*
X-15996591Y-19153688D01*
X-15798784Y-19100686D01*
X-15785923Y-19098419D01*
X-15578655Y-19080285D01*
X-15572123Y-19080000D01*
X-15571723Y-19080000D01*
X-15571723Y-18740000D01*
X-15579045Y-18739640D01*
X-15753402Y-18722468D01*
X-15767778Y-18719608D01*
X-15931889Y-18669826D01*
X-15945444Y-18664211D01*
X-16096681Y-18583373D01*
X-16108887Y-18575217D01*
X-16241451Y-18466424D01*
X-16251818Y-18456057D01*
X-16310265Y-18384840D01*
X-16372572Y-18339920D01*
X-16426215Y-18330000D01*
X-17755476Y-18330000D01*
X-17770163Y-18329037D01*
X-17770164Y-18329055D01*
X-17774537Y-18328663D01*
X-17796228Y-18327631D01*
X-17840891Y-18319573D01*
X-17847946Y-18318473D01*
X-17892998Y-18312542D01*
X-17913994Y-18306916D01*
X-17915038Y-18306682D01*
X-17916033Y-18306318D01*
X-17936746Y-18299697D01*
X-17977826Y-18280343D01*
X-17984355Y-18277455D01*
X-18026306Y-18260079D01*
X-18045145Y-18249202D01*
X-18046088Y-18248709D01*
X-18046947Y-18248105D01*
X-18065243Y-18236347D01*
X-18099906Y-18207026D01*
X-18105466Y-18202545D01*
X-18141508Y-18174890D01*
X-18156882Y-18159516D01*
X-18160086Y-18156568D01*
X-18160074Y-18156555D01*
X-18170668Y-18146332D01*
X-24514061Y-11168600D01*
X-24520162Y-11160937D01*
X-24548867Y-11119595D01*
X-24553076Y-11113830D01*
X-24580724Y-11077799D01*
X-24591605Y-11058953D01*
X-24592165Y-11058070D01*
X-24592612Y-11057107D01*
X-24602574Y-11037784D01*
X-24617939Y-10995044D01*
X-24620512Y-10988388D01*
X-24637892Y-10946429D01*
X-24643519Y-10925430D01*
X-24643836Y-10924416D01*
X-24644017Y-10923380D01*
X-24648640Y-10902129D01*
X-24652418Y-10856883D01*
X-24653181Y-10849786D01*
X-24659753Y-10799865D01*
X-24660394Y-10790089D01*
X-24660394Y1900091D01*
X-24659753Y1909865D01*
X-24642937Y2037601D01*
X-24637889Y2056436D01*
X-24590471Y2170916D01*
X-24580721Y2187802D01*
X-24505289Y2286108D01*
X-24491502Y2299895D01*
X-24393196Y2375327D01*
X-24376310Y2385077D01*
X-24261830Y2432495D01*
X-24242995Y2437543D01*
X-24115259Y2454359D01*
X-24105485Y2455000D01*
X-22895553Y2455000D01*
X-22821302Y2474667D01*
X-22768021Y2526035D01*
X-22748178Y2558083D01*
X-22739851Y2569109D01*
X-22613250Y2707984D01*
X-22603051Y2717281D01*
X-22453075Y2830538D01*
X-22441347Y2837800D01*
X-22273116Y2921569D01*
X-22260245Y2926555D01*
X-22079492Y2977984D01*
X-22065920Y2980521D01*
X-21875350Y2998180D01*
X-21868425Y2998500D01*
X-21272363Y2998500D01*
X-21265438Y2998180D01*
X-21074868Y2980521D01*
X-21061296Y2977984D01*
X-20880543Y2926555D01*
X-20867672Y2921569D01*
X-20699441Y2837800D01*
X-20687713Y2830538D01*
X-20537737Y2717281D01*
X-20527538Y2707984D01*
X-20400937Y2569109D01*
X-20392610Y2558083D01*
X-20293684Y2398312D01*
X-20287528Y2385948D01*
X-20219642Y2210714D01*
X-20215864Y2197435D01*
X-20181333Y2012710D01*
X-20180059Y1998962D01*
X-20180059Y1811038D01*
X-20181333Y1797290D01*
X-20215864Y1612565D01*
X-20219642Y1599286D01*
X-20287528Y1424052D01*
X-20293684Y1411688D01*
X-20392610Y1251917D01*
X-20400937Y1240891D01*
X-20527538Y1102016D01*
X-20537737Y1092719D01*
X-20687713Y979462D01*
X-20699441Y972200D01*
X-20867672Y888431D01*
X-20880543Y883445D01*
X-21061296Y832016D01*
X-21074868Y829479D01*
X-21265438Y811820D01*
X-21272363Y811500D01*
X-21868425Y811500D01*
X-21875350Y811820D01*
X-22065920Y829479D01*
X-22079492Y832016D01*
X-22260245Y883445D01*
X-22273116Y888431D01*
X-22441347Y972200D01*
X-22453075Y979462D01*
X-22603051Y1092719D01*
X-22613250Y1102016D01*
X-22739851Y1240891D01*
X-22748178Y1251917D01*
X-22768021Y1283965D01*
X-22823830Y1336741D01*
X-22895553Y1355000D01*
X-23410395Y1355000D01*
X-23484646Y1335333D01*
X-23539426Y1281490D01*
X-23560394Y1205001D01*
X-23560394Y-10524376D01*
X-23521385Y-10625276D01*
X-17561726Y-17180901D01*
X-17497228Y-17222613D01*
X-17450736Y-17230000D01*
X-16409802Y-17230000D01*
X-16335551Y-17210333D01*
X-16293852Y-17175160D01*
X-16251825Y-17123950D01*
X-16241447Y-17113573D01*
X-16108887Y-17004783D01*
X-16096681Y-16996627D01*
X-15945444Y-16915789D01*
X-15931889Y-16910174D01*
X-15767778Y-16860392D01*
X-15753402Y-16857532D01*
X-15579045Y-16840360D01*
X-15571723Y-16840000D01*
X-15571723Y-16180000D01*
X-15579045Y-16179640D01*
X-15753402Y-16162468D01*
X-15767778Y-16159608D01*
X-15931889Y-16109826D01*
X-15945444Y-16104211D01*
X-16096681Y-16023373D01*
X-16108887Y-16015217D01*
X-16241447Y-15906427D01*
X-16251825Y-15896050D01*
X-16293852Y-15844840D01*
X-16356158Y-15799920D01*
X-16409802Y-15790000D01*
X-17755485Y-15790000D01*
X-17765258Y-15789360D01*
X-17767609Y-15789050D01*
X-17786624Y-15788320D01*
X-17812194Y-15786353D01*
X-17846688Y-15779085D01*
X-17858036Y-15777145D01*
X-17892998Y-15772542D01*
X-17917764Y-15765906D01*
X-17927665Y-15762841D01*
X-17951839Y-15754328D01*
X-17983278Y-15738380D01*
X-17993735Y-15733570D01*
X-18026311Y-15720076D01*
X-18048519Y-15707255D01*
X-18057273Y-15701742D01*
X-18078433Y-15687254D01*
X-18104670Y-15663714D01*
X-18113529Y-15656360D01*
X-18141503Y-15634895D01*
X-18159619Y-15616779D01*
X-18172579Y-15602784D01*
X-18174334Y-15601209D01*
X-18181180Y-15594207D01*
X-21984791Y-11156662D01*
X-21990672Y-11148816D01*
X-22012611Y-11115163D01*
X-22019263Y-11105767D01*
X-22040724Y-11077798D01*
X-22053550Y-11055583D01*
X-22058364Y-11046453D01*
X-22069451Y-11023313D01*
X-22080404Y-10989806D01*
X-22084398Y-10979009D01*
X-22097890Y-10946437D01*
X-22104527Y-10921666D01*
X-22106827Y-10911543D01*
X-22111538Y-10886370D01*
X-22113445Y-10851172D01*
X-22114508Y-10839709D01*
X-22119753Y-10799865D01*
X-22120394Y-10790091D01*
X-22120394Y-1809620D01*
X-22140061Y-1735369D01*
X-22229344Y-1665347D01*
X-22260245Y-1656555D01*
X-22273116Y-1651569D01*
X-22441347Y-1567800D01*
X-22453075Y-1560538D01*
X-22603051Y-1447281D01*
X-22613250Y-1437984D01*
X-22739851Y-1299109D01*
X-22748178Y-1288083D01*
X-22847104Y-1128312D01*
X-22853260Y-1115948D01*
X-22921146Y-940714D01*
X-22924924Y-927435D01*
X-22959455Y-742710D01*
X-22960729Y-728962D01*
X-22960729Y-541038D01*
X-22959455Y-527290D01*
X-22924924Y-342565D01*
X-22921146Y-329286D01*
X-22853260Y-154052D01*
X-22847104Y-141688D01*
X-22748178Y18083D01*
X-22739851Y29109D01*
X-22613250Y167984D01*
X-22603051Y177281D01*
X-22453075Y290538D01*
X-22441347Y297800D01*
X-22273116Y381569D01*
X-22260245Y386555D01*
X-22079492Y437984D01*
X-22065920Y440521D01*
X-21875350Y458180D01*
X-21868425Y458500D01*
X-21272363Y458500D01*
X-21265438Y458180D01*
X-21074868Y440521D01*
X-21061296Y437984D01*
X-20880543Y386555D01*
X-20867672Y381569D01*
X-20699441Y297800D01*
X-20687713Y290538D01*
X-20537737Y177281D01*
X-20527538Y167984D01*
X-20400937Y29109D01*
X-20392610Y18083D01*
X-20293684Y-141688D01*
X-20287528Y-154052D01*
X-20219642Y-329286D01*
X-20215864Y-342565D01*
X-20181333Y-527290D01*
X-20180059Y-541038D01*
X-20180059Y-728962D01*
X-20181333Y-742710D01*
X-20215864Y-927435D01*
X-20219642Y-940714D01*
X-20287528Y-1115948D01*
X-20293684Y-1128312D01*
X-20392610Y-1288083D01*
X-20400937Y-1299109D01*
X-20527538Y-1437984D01*
X-20537737Y-1447281D01*
X-20687713Y-1560538D01*
X-20699441Y-1567800D01*
X-20867672Y-1651569D01*
X-20880543Y-1656555D01*
X-20911444Y-1665347D01*
X-20977478Y-1704583D01*
X-21020394Y-1809620D01*
X-21020394Y-10536053D01*
X-20984283Y-10633671D01*
X-17552327Y-14637619D01*
X-17489073Y-14681196D01*
X-17438439Y-14690000D01*
X-16426215Y-14690000D01*
X-16351964Y-14670333D01*
X-16310265Y-14635160D01*
X-16251818Y-14563943D01*
X-16241451Y-14553576D01*
X-16108887Y-14444783D01*
X-16096681Y-14436627D01*
X-15945444Y-14355789D01*
X-15931889Y-14350174D01*
X-15767778Y-14300392D01*
X-15753402Y-14297532D01*
X-15579045Y-14280360D01*
X-15571723Y-14280000D01*
X-14379065Y-14280000D01*
X-14371743Y-14280360D01*
X-14197386Y-14297532D01*
X-14183010Y-14300392D01*
X-14018899Y-14350174D01*
X-14005344Y-14355789D01*
X-13854107Y-14436627D01*
X-13841901Y-14444783D01*
X-13709337Y-14553576D01*
X-13698970Y-14563943D01*
X-13590177Y-14696507D01*
X-13582021Y-14708713D01*
X-13501183Y-14859950D01*
X-13495568Y-14873505D01*
X-13445786Y-15037616D01*
X-13442926Y-15051992D01*
X-13426116Y-15222669D01*
X-13426116Y-15237331D01*
X-13442926Y-15408008D01*
X-13445786Y-15422384D01*
X-13495568Y-15586495D01*
X-13501183Y-15600050D01*
X-13582021Y-15751287D01*
X-13590177Y-15763493D01*
X-13698970Y-15896057D01*
X-13709337Y-15906424D01*
X-13841901Y-16015217D01*
X-13854107Y-16023373D01*
X-14005344Y-16104211D01*
X-14018899Y-16109826D01*
X-14183010Y-16159608D01*
X-14197386Y-16162468D01*
X-14371743Y-16179640D01*
X-14379065Y-16180000D01*
X-15571723Y-16180000D01*
X-15571723Y-16840000D01*
X-14379065Y-16840000D01*
X-14371743Y-16840360D01*
X-14197386Y-16857532D01*
X-14183010Y-16860392D01*
X-14018899Y-16910174D01*
X-14005344Y-16915789D01*
X-13854107Y-16996627D01*
X-13841901Y-17004783D01*
X-13709337Y-17113576D01*
X-13698970Y-17123943D01*
X-13590177Y-17256507D01*
X-13582021Y-17268713D01*
X-13501183Y-17419950D01*
X-13495568Y-17433505D01*
X-13445786Y-17597616D01*
X-13442926Y-17611992D01*
X-13426116Y-17782669D01*
X-13426116Y-17797331D01*
X-13442926Y-17968008D01*
X-13445786Y-17982384D01*
X-13495568Y-18146495D01*
X-13501183Y-18160050D01*
X-13582021Y-18311287D01*
X-13590177Y-18323493D01*
X-13698970Y-18456057D01*
X-13709337Y-18466424D01*
X-13841901Y-18575217D01*
X-13854107Y-18583373D01*
X-14005344Y-18664211D01*
X-14018899Y-18669826D01*
X-14183010Y-18719608D01*
X-14197386Y-18722468D01*
X-14371743Y-18739640D01*
X-14379065Y-18740000D01*
X-15571723Y-18740000D01*
X-15571723Y-19080000D01*
X-15144928Y-19080000D01*
X-15129837Y-19083997D01*
X-15125399Y-19100187D01*
X-15125399Y-19680000D01*
X-15575394Y-19680000D01*
X-15730949Y-19698888D01*
X-15877464Y-19754454D01*
X-16006424Y-19843468D01*
X-16110334Y-19960758D01*
X-16183155Y-20099507D01*
X-16202993Y-20179995D01*
X-16792741Y-20179995D01*
X-16792741Y-20481291D01*
X-16788740Y-20480005D01*
X-16202993Y-20480005D01*
X-16183155Y-20560493D01*
X-16110334Y-20699242D01*
X-16006424Y-20816532D01*
X-15877464Y-20905546D01*
X-15730949Y-20961112D01*
X-15575394Y-20980000D01*
X-15125399Y-20980000D01*
X-15125399Y-21560471D01*
X-15129396Y-21575562D01*
X-15145586Y-21580000D01*
X-15572123Y-21580000D01*
X-15572123Y-26120000D01*
X-14805860Y-26120000D01*
X-14805860Y-21580000D01*
X-14820951Y-21576003D01*
X-14825389Y-21559813D01*
X-14825389Y-20980000D01*
X-14375394Y-20980000D01*
X-14219839Y-20961112D01*
X-14073324Y-20905546D01*
X-13944364Y-20816532D01*
X-13840454Y-20699242D01*
X-13767633Y-20560493D01*
X-13747795Y-20480005D01*
X-13747795Y-20179995D01*
X-13767633Y-20099507D01*
X-13840454Y-19960758D01*
X-13944364Y-19843468D01*
X-14073324Y-19754454D01*
X-14219839Y-19698888D01*
X-14375394Y-19680000D01*
X-14825389Y-19680000D01*
X-14825389Y-19099529D01*
X-14821392Y-19084438D01*
X-14805202Y-19080000D01*
X-14378665Y-19080000D01*
X-14372133Y-19080285D01*
X-14164865Y-19098419D01*
X-14152004Y-19100686D01*
X-13954197Y-19153688D01*
X-13941929Y-19158154D01*
X-13756329Y-19244701D01*
X-13745032Y-19251223D01*
X-13577275Y-19368686D01*
X-13567274Y-19377079D01*
X-13422473Y-19521880D01*
X-13414080Y-19531881D01*
X-13296617Y-19699638D01*
X-13290095Y-19710935D01*
X-13203548Y-19896535D01*
X-13199082Y-19908803D01*
X-13146080Y-20106611D01*
X-13143813Y-20119470D01*
X-13140220Y-20160541D01*
X-13142503Y-20173708D01*
X-13162048Y-20179995D01*
X-13747795Y-20179995D01*
X-13747795Y-20480005D01*
X-13158047Y-20480005D01*
X-13145128Y-20483427D01*
X-13140569Y-20503445D01*
X-13143813Y-20540530D01*
X-13146080Y-20553389D01*
X-13199082Y-20751197D01*
X-13203548Y-20763465D01*
X-13290095Y-20949065D01*
X-13296617Y-20960362D01*
X-13414080Y-21128119D01*
X-13422473Y-21138120D01*
X-13567274Y-21282921D01*
X-13577275Y-21291314D01*
X-13745032Y-21408777D01*
X-13756329Y-21415299D01*
X-13941929Y-21501846D01*
X-13954197Y-21506312D01*
X-14152004Y-21559314D01*
X-14164865Y-21561581D01*
X-14372133Y-21579715D01*
X-14378665Y-21580000D01*
X-14805860Y-21580000D01*
X-14805860Y-26120000D01*
X-10135485Y-26120000D01*
X-10135485Y-23410000D01*
X-10145259Y-23409359D01*
X-10272995Y-23392543D01*
X-10291830Y-23387495D01*
X-10406310Y-23340077D01*
X-10423196Y-23330327D01*
X-10521502Y-23254895D01*
X-10535289Y-23241108D01*
X-10610721Y-23142802D01*
X-10620471Y-23125916D01*
X-10667889Y-23011436D01*
X-10672937Y-22992601D01*
X-10689753Y-22864865D01*
X-10690394Y-22855091D01*
X-10690394Y-13392736D01*
X-10710061Y-13318485D01*
X-10763904Y-13263705D01*
X-10820816Y-13244020D01*
X-10841607Y-13241283D01*
X-10861184Y-13240000D01*
X-13532779Y-13240000D01*
X-13607030Y-13259667D01*
X-13648729Y-13294840D01*
X-13698963Y-13356050D01*
X-13709341Y-13366427D01*
X-13841901Y-13475217D01*
X-13854107Y-13483373D01*
X-14005344Y-13564211D01*
X-14018899Y-13569826D01*
X-14183010Y-13619608D01*
X-14197386Y-13622468D01*
X-14371743Y-13639640D01*
X-14379065Y-13640000D01*
X-15571723Y-13640000D01*
X-15579045Y-13639640D01*
X-15753402Y-13622468D01*
X-15767778Y-13619608D01*
X-15931889Y-13569826D01*
X-15945444Y-13564211D01*
X-16096681Y-13483373D01*
X-16108887Y-13475217D01*
X-16241451Y-13366424D01*
X-16251818Y-13356057D01*
X-16360611Y-13223493D01*
X-16368767Y-13211287D01*
X-16449605Y-13060050D01*
X-16455220Y-13046495D01*
X-16505002Y-12882384D01*
X-16507862Y-12868008D01*
X-16524672Y-12697331D01*
X-16524672Y-12682669D01*
X-16507862Y-12511992D01*
X-16505002Y-12497616D01*
X-16455220Y-12333505D01*
X-16449605Y-12319950D01*
X-16368767Y-12168713D01*
X-16360611Y-12156507D01*
X-16251818Y-12023943D01*
X-16241451Y-12013576D01*
X-16108887Y-11904783D01*
X-16096681Y-11896627D01*
X-15945444Y-11815789D01*
X-15931889Y-11810174D01*
X-15767778Y-11760392D01*
X-15753402Y-11757532D01*
X-15579045Y-11740360D01*
X-15572123Y-11740019D01*
X-15572123Y-7610000D01*
X-15578655Y-7609715D01*
X-15785923Y-7591581D01*
X-15798784Y-7589314D01*
X-15996591Y-7536312D01*
X-16008859Y-7531846D01*
X-16194459Y-7445299D01*
X-16205756Y-7438777D01*
X-16373513Y-7321314D01*
X-16383514Y-7312921D01*
X-16528315Y-7168120D01*
X-16536708Y-7158119D01*
X-16654171Y-6990362D01*
X-16660693Y-6979065D01*
X-16747240Y-6793465D01*
X-16751706Y-6781197D01*
X-16804708Y-6583389D01*
X-16806975Y-6570530D01*
X-16810568Y-6529459D01*
X-16808285Y-6516292D01*
X-16792741Y-6511291D01*
X-16792741Y-6209995D01*
X-16805660Y-6206573D01*
X-16810219Y-6186555D01*
X-16806975Y-6149470D01*
X-16804708Y-6136611D01*
X-16751706Y-5938803D01*
X-16747240Y-5926535D01*
X-16660693Y-5740935D01*
X-16654171Y-5729638D01*
X-16536708Y-5561881D01*
X-16528315Y-5551880D01*
X-16383514Y-5407079D01*
X-16373513Y-5398686D01*
X-16205756Y-5281223D01*
X-16194459Y-5274701D01*
X-16008859Y-5188154D01*
X-15996591Y-5183688D01*
X-15798784Y-5130686D01*
X-15785923Y-5128419D01*
X-15578655Y-5110285D01*
X-15572123Y-5110000D01*
X-15571723Y-5110000D01*
X-15571723Y-4770000D01*
X-15579045Y-4769640D01*
X-15753402Y-4752468D01*
X-15767778Y-4749608D01*
X-15931889Y-4699826D01*
X-15945444Y-4694211D01*
X-16096681Y-4613373D01*
X-16108887Y-4605217D01*
X-16241447Y-4496427D01*
X-16251825Y-4486050D01*
X-16302059Y-4424840D01*
X-16364366Y-4379920D01*
X-16418009Y-4370000D01*
X-18390485Y-4370000D01*
X-18400258Y-4369360D01*
X-18420869Y-4366646D01*
X-18440677Y-4365363D01*
X-18456530Y-4365387D01*
X-18475854Y-4362873D01*
X-18492198Y-4358520D01*
X-18511221Y-4354751D01*
X-18527998Y-4352542D01*
X-18546825Y-4347497D01*
X-18561477Y-4341428D01*
X-18580277Y-4335062D01*
X-18595604Y-4330980D01*
X-18613624Y-4323548D01*
X-18628284Y-4315114D01*
X-18645681Y-4306551D01*
X-18661310Y-4300077D01*
X-18678192Y-4290330D01*
X-18690775Y-4280675D01*
X-18707287Y-4269660D01*
X-18721033Y-4261752D01*
X-18736514Y-4249910D01*
X-18748490Y-4237970D01*
X-18763083Y-4225192D01*
X-18776504Y-4214894D01*
X-18790286Y-4201112D01*
X-18799943Y-4188526D01*
X-18813046Y-4173607D01*
X-18824269Y-4162419D01*
X-18836159Y-4146972D01*
X-18844634Y-4132344D01*
X-18855419Y-4116229D01*
X-18865722Y-4102801D01*
X-18875469Y-4085918D01*
X-18881536Y-4071271D01*
X-18890329Y-4053476D01*
X-18898279Y-4039754D01*
X-18905767Y-4021754D01*
X-18910170Y-4005421D01*
X-18916418Y-3987061D01*
X-18922890Y-3971436D01*
X-18927936Y-3952603D01*
X-18930006Y-3936881D01*
X-18933893Y-3917420D01*
X-18939298Y-3897368D01*
X-18941228Y-3887743D01*
X-19986682Y3961395D01*
X-20015980Y4032399D01*
X-20076584Y4079591D01*
X-20152603Y4090597D01*
X-20224102Y4062529D01*
X-20275239Y3995775D01*
X-20287529Y3964049D01*
X-20293684Y3951688D01*
X-20392610Y3791917D01*
X-20400937Y3780891D01*
X-20527538Y3642016D01*
X-20537737Y3632719D01*
X-20687713Y3519462D01*
X-20699441Y3512200D01*
X-20867672Y3428431D01*
X-20880543Y3423445D01*
X-21061296Y3372016D01*
X-21074868Y3369479D01*
X-21265438Y3351820D01*
X-21272363Y3351500D01*
X-21868425Y3351500D01*
X-21875350Y3351820D01*
X-22065920Y3369479D01*
X-22079492Y3372016D01*
X-22260245Y3423445D01*
X-22273116Y3428431D01*
X-22441347Y3512200D01*
X-22453075Y3519462D01*
X-22603051Y3632719D01*
X-22613250Y3642016D01*
X-22739851Y3780891D01*
X-22748178Y3791917D01*
X-22847104Y3951688D01*
X-22853260Y3964052D01*
X-22921146Y4139286D01*
X-22924924Y4152565D01*
X-22959455Y4337290D01*
X-22960729Y4351038D01*
X-22960729Y4538962D01*
X-22959455Y4552710D01*
X-22924924Y4737435D01*
X-22921146Y4750714D01*
X-22853260Y4925948D01*
X-22844013Y4944519D01*
X-22845680Y4945349D01*
X-22826146Y5009509D01*
X-22843080Y5084430D01*
X-22894881Y5141145D01*
X-22976044Y5165000D01*
X-24105485Y5165000D01*
X-24115259Y5165641D01*
X-24242995Y5182457D01*
X-24261830Y5187505D01*
X-24376310Y5234923D01*
X-24393196Y5244673D01*
X-24491502Y5320105D01*
X-24505289Y5333892D01*
X-24580721Y5432198D01*
X-24590471Y5449084D01*
X-24637889Y5563564D01*
X-24642937Y5582399D01*
X-24659753Y5710135D01*
X-24660394Y5719909D01*
X-24660394Y9520091D01*
X-24659753Y9529865D01*
X-24642937Y9657601D01*
X-24637889Y9676436D01*
X-24590471Y9790916D01*
X-24580721Y9807802D01*
X-24505289Y9906108D01*
X-24491502Y9919895D01*
X-24393196Y9995327D01*
X-24376310Y10005077D01*
X-24261830Y10052495D01*
X-24242995Y10057543D01*
X-24115259Y10074359D01*
X-24105485Y10075000D01*
X-22895553Y10075000D01*
X-22821302Y10094667D01*
X-22768021Y10146035D01*
X-22748178Y10178083D01*
X-22739851Y10189109D01*
X-22613250Y10327984D01*
X-22603051Y10337281D01*
X-22453075Y10450538D01*
X-22441347Y10457800D01*
X-22364710Y10495960D01*
X-22307010Y10546661D01*
X-22281972Y10619277D01*
X-22296162Y10694766D01*
X-22371316Y10767599D01*
X-22529451Y10836963D01*
X-22540316Y10842843D01*
X-22722605Y10961939D01*
X-22732365Y10969536D01*
X-22892560Y11117006D01*
X-22900936Y11126105D01*
X-23034670Y11297926D01*
X-23041440Y11308289D01*
X-23145069Y11499777D01*
X-23150040Y11511108D01*
X-23220738Y11717046D01*
X-23223775Y11729040D01*
X-23251591Y11895732D01*
X-23250546Y11906857D01*
X-23228268Y11914995D01*
X-22648492Y11914995D01*
X-22645499Y11888430D01*
X-22586813Y11720713D01*
X-22492277Y11570261D01*
X-22366633Y11444617D01*
X-22216181Y11350081D01*
X-22048464Y11291395D01*
X-21871894Y11271500D01*
X-21268894Y11271500D01*
X-21092324Y11291395D01*
X-20924607Y11350081D01*
X-20774155Y11444617D01*
X-20648511Y11570261D01*
X-20553975Y11720713D01*
X-20495289Y11888430D01*
X-20492296Y11914995D01*
X-19905512Y11914995D01*
X-19894712Y11912134D01*
X-19890351Y11888817D01*
X-19917013Y11729040D01*
X-19920050Y11717046D01*
X-19990748Y11511108D01*
X-19995719Y11499777D01*
X-20099348Y11308289D01*
X-20106118Y11297926D01*
X-20239852Y11126105D01*
X-20248228Y11117006D01*
X-20408423Y10969536D01*
X-20418183Y10961939D01*
X-20600472Y10842843D01*
X-20611337Y10836963D01*
X-20769472Y10767599D01*
X-20829569Y10719763D01*
X-20858107Y10648450D01*
X-20847603Y10572360D01*
X-20776078Y10495960D01*
X-20699441Y10457800D01*
X-20687713Y10450538D01*
X-20537737Y10337281D01*
X-20527538Y10327984D01*
X-20400937Y10189109D01*
X-20392610Y10178083D01*
X-20293684Y10018312D01*
X-20287528Y10005948D01*
X-20219642Y9830714D01*
X-20215864Y9817435D01*
X-20181333Y9632710D01*
X-20180059Y9618962D01*
X-20180059Y9431038D01*
X-20181333Y9417290D01*
X-20215864Y9232565D01*
X-20219642Y9219286D01*
X-20287528Y9044052D01*
X-20293684Y9031688D01*
X-20392610Y8871917D01*
X-20400937Y8860891D01*
X-20527538Y8722016D01*
X-20537737Y8712719D01*
X-20687713Y8599462D01*
X-20699441Y8592200D01*
X-20867672Y8508431D01*
X-20880543Y8503445D01*
X-21061296Y8452016D01*
X-21074868Y8449479D01*
X-21265438Y8431820D01*
X-21272363Y8431500D01*
X-21868425Y8431500D01*
X-21875350Y8431820D01*
X-22065920Y8449479D01*
X-22079492Y8452016D01*
X-22260245Y8503445D01*
X-22273116Y8508431D01*
X-22441347Y8592200D01*
X-22453075Y8599462D01*
X-22603051Y8712719D01*
X-22613250Y8722016D01*
X-22739851Y8860891D01*
X-22748178Y8871917D01*
X-22768021Y8903965D01*
X-22823830Y8956741D01*
X-22895553Y8975000D01*
X-23410395Y8975000D01*
X-23484646Y8955333D01*
X-23539426Y8901490D01*
X-23560394Y8825001D01*
X-23560394Y6414999D01*
X-23540727Y6340748D01*
X-23486884Y6285968D01*
X-23410395Y6265000D01*
X-22976044Y6265000D01*
X-22901793Y6284667D01*
X-22847013Y6338510D01*
X-22826067Y6412410D01*
X-22845919Y6484532D01*
X-22844013Y6485481D01*
X-22853260Y6504052D01*
X-22921146Y6679286D01*
X-22924924Y6692565D01*
X-22959455Y6877290D01*
X-22960729Y6891038D01*
X-22960729Y7078962D01*
X-22959455Y7092710D01*
X-22924924Y7277435D01*
X-22921146Y7290714D01*
X-22853260Y7465948D01*
X-22847104Y7478312D01*
X-22748178Y7638083D01*
X-22739851Y7649109D01*
X-22613250Y7787984D01*
X-22603051Y7797281D01*
X-22453075Y7910538D01*
X-22441347Y7917800D01*
X-22273116Y8001569D01*
X-22260245Y8006555D01*
X-22079492Y8057984D01*
X-22065920Y8060521D01*
X-21875350Y8078180D01*
X-21868425Y8078500D01*
X-21272363Y8078500D01*
X-21265438Y8078180D01*
X-21074868Y8060521D01*
X-21061296Y8057984D01*
X-20880543Y8006555D01*
X-20867672Y8001569D01*
X-20699441Y7917800D01*
X-20687713Y7910538D01*
X-20537737Y7797281D01*
X-20527538Y7787984D01*
X-20400937Y7649109D01*
X-20392610Y7638083D01*
X-20372767Y7606035D01*
X-20316958Y7553259D01*
X-20245235Y7535000D01*
X-18400305Y7535000D01*
X-18390528Y7534359D01*
X-18376937Y7532570D01*
X-18354097Y7531322D01*
X-18345306Y7531513D01*
X-18325931Y7529390D01*
X-18302644Y7523690D01*
X-18286563Y7520672D01*
X-18262790Y7517542D01*
X-18243962Y7512497D01*
X-18235843Y7509134D01*
X-18214101Y7502017D01*
X-18205574Y7499930D01*
X-18187397Y7492860D01*
X-18166385Y7481330D01*
X-18151626Y7474250D01*
X-18129478Y7465076D01*
X-18112592Y7455327D01*
X-18105623Y7449980D01*
X-18086471Y7437482D01*
X-18078764Y7433253D01*
X-18063046Y7421726D01*
X-18045728Y7405146D01*
X-18033309Y7394492D01*
X-18014282Y7379892D01*
X-18000501Y7366111D01*
X-17995145Y7359131D01*
X-17979879Y7342101D01*
X-17973541Y7336032D01*
X-17961333Y7320820D01*
X-17948903Y7300333D01*
X-17939664Y7286827D01*
X-17925068Y7267805D01*
X-17915315Y7250913D01*
X-17911952Y7242794D01*
X-17901617Y7222399D01*
X-17897058Y7214884D01*
X-17889210Y7197044D01*
X-17882502Y7174023D01*
X-17877072Y7158582D01*
X-17867899Y7136436D01*
X-17862851Y7117600D01*
X-17861705Y7108893D01*
X-17856998Y7086505D01*
X-17853162Y7073340D01*
X-17851043Y7063780D01*
X-16674645Y-582809D01*
X-16643916Y-653206D01*
X-16582370Y-699163D01*
X-16526390Y-710000D01*
X-16418009Y-710000D01*
X-16343758Y-690333D01*
X-16302059Y-655160D01*
X-16251825Y-593950D01*
X-16241447Y-583573D01*
X-16108887Y-474783D01*
X-16096681Y-466627D01*
X-15945444Y-385789D01*
X-15931889Y-380174D01*
X-15767778Y-330392D01*
X-15753402Y-327532D01*
X-15579045Y-310360D01*
X-15571723Y-310000D01*
X-14379065Y-310000D01*
X-14371743Y-310360D01*
X-14197386Y-327532D01*
X-14183010Y-330392D01*
X-14018899Y-380174D01*
X-14005344Y-385789D01*
X-13854107Y-466627D01*
X-13841901Y-474783D01*
X-13709337Y-583576D01*
X-13698970Y-593943D01*
X-13590177Y-726507D01*
X-13582021Y-738713D01*
X-13501183Y-889950D01*
X-13495568Y-903505D01*
X-13445786Y-1067616D01*
X-13442926Y-1081992D01*
X-13426116Y-1252669D01*
X-13426116Y-1267331D01*
X-13442926Y-1438008D01*
X-13445786Y-1452384D01*
X-13495568Y-1616495D01*
X-13501183Y-1630050D01*
X-13582021Y-1781287D01*
X-13590177Y-1793493D01*
X-13698970Y-1926057D01*
X-13709337Y-1936424D01*
X-13841901Y-2045217D01*
X-13854107Y-2053373D01*
X-14005344Y-2134211D01*
X-14018899Y-2139826D01*
X-14183010Y-2189608D01*
X-14197386Y-2192468D01*
X-14371743Y-2209640D01*
X-14379065Y-2210000D01*
X-15571723Y-2210000D01*
X-15579045Y-2209640D01*
X-15753402Y-2192468D01*
X-15767778Y-2189608D01*
X-15931889Y-2139826D01*
X-15945444Y-2134211D01*
X-16096681Y-2053373D01*
X-16108887Y-2045217D01*
X-16241447Y-1936427D01*
X-16251825Y-1926050D01*
X-16302059Y-1864840D01*
X-16364366Y-1819920D01*
X-16418009Y-1810000D01*
X-17015301Y-1810000D01*
X-17038110Y-1811744D01*
X-17051598Y-1813819D01*
X-17075564Y-1814341D01*
X-17091875Y-1815588D01*
X-17115643Y-1818717D01*
X-17135139Y-1818716D01*
X-17143846Y-1817570D01*
X-17166687Y-1816322D01*
X-17175479Y-1816513D01*
X-17194858Y-1814390D01*
X-17218157Y-1808687D01*
X-17234241Y-1805669D01*
X-17258002Y-1802541D01*
X-17276830Y-1797496D01*
X-17284937Y-1794138D01*
X-17306675Y-1787021D01*
X-17315220Y-1784929D01*
X-17333389Y-1777863D01*
X-17354414Y-1766326D01*
X-17369170Y-1759248D01*
X-17391309Y-1750078D01*
X-17408193Y-1740329D01*
X-17415156Y-1734987D01*
X-17434308Y-1722489D01*
X-17442027Y-1718254D01*
X-17457743Y-1706728D01*
X-17475073Y-1690136D01*
X-17487494Y-1679480D01*
X-17506507Y-1664891D01*
X-17520283Y-1651115D01*
X-17525632Y-1644144D01*
X-17540902Y-1627110D01*
X-17547255Y-1621028D01*
X-17559452Y-1605828D01*
X-17571898Y-1585315D01*
X-17581136Y-1571810D01*
X-17595727Y-1552795D01*
X-17605471Y-1535917D01*
X-17608830Y-1527808D01*
X-17619170Y-1507401D01*
X-17623731Y-1499883D01*
X-17631582Y-1482038D01*
X-17638291Y-1459014D01*
X-17643720Y-1443576D01*
X-17652889Y-1421440D01*
X-17657937Y-1402600D01*
X-17659083Y-1393894D01*
X-17663787Y-1371518D01*
X-17667626Y-1358341D01*
X-17669745Y-1348781D01*
X-18847681Y6307809D01*
X-18878410Y6378206D01*
X-18939956Y6424163D01*
X-18995936Y6435000D01*
X-19261881Y6435000D01*
X-19336132Y6415333D01*
X-19390912Y6361490D01*
X-19411858Y6287590D01*
X-19393476Y6213011D01*
X-19346116Y6164624D01*
X-19347567Y6162727D01*
X-19324274Y6144910D01*
X-19312298Y6132970D01*
X-19297705Y6120192D01*
X-19284284Y6109894D01*
X-19270502Y6096112D01*
X-19260845Y6083526D01*
X-19247742Y6068607D01*
X-19236519Y6057419D01*
X-19224629Y6041972D01*
X-19216154Y6027344D01*
X-19205369Y6011229D01*
X-19195066Y5997801D01*
X-19185319Y5980918D01*
X-19179252Y5966271D01*
X-19170459Y5948476D01*
X-19162509Y5934754D01*
X-19155021Y5916754D01*
X-19150618Y5900421D01*
X-19144370Y5882061D01*
X-19137898Y5866436D01*
X-19132852Y5847603D01*
X-19130782Y5831881D01*
X-19126895Y5812420D01*
X-19121490Y5792368D01*
X-19119560Y5782743D01*
X-17931135Y-3139805D01*
X-17901837Y-3210809D01*
X-17841233Y-3258001D01*
X-17782449Y-3270000D01*
X-16418009Y-3270000D01*
X-16343758Y-3250333D01*
X-16302059Y-3215160D01*
X-16251825Y-3153950D01*
X-16241447Y-3143573D01*
X-16108887Y-3034783D01*
X-16096681Y-3026627D01*
X-15945444Y-2945789D01*
X-15931889Y-2940174D01*
X-15767778Y-2890392D01*
X-15753402Y-2887532D01*
X-15579045Y-2870360D01*
X-15571723Y-2870000D01*
X-14379065Y-2870000D01*
X-14371743Y-2870360D01*
X-14197386Y-2887532D01*
X-14183010Y-2890392D01*
X-14018899Y-2940174D01*
X-14005344Y-2945789D01*
X-13854107Y-3026627D01*
X-13841901Y-3034783D01*
X-13709337Y-3143576D01*
X-13698970Y-3153943D01*
X-13590177Y-3286507D01*
X-13582021Y-3298713D01*
X-13501183Y-3449950D01*
X-13495568Y-3463505D01*
X-13445786Y-3627616D01*
X-13442926Y-3641992D01*
X-13426116Y-3812669D01*
X-13426116Y-3827331D01*
X-13442926Y-3998008D01*
X-13445786Y-4012384D01*
X-13495568Y-4176495D01*
X-13501183Y-4190050D01*
X-13582021Y-4341287D01*
X-13590177Y-4353493D01*
X-13698970Y-4486057D01*
X-13709337Y-4496424D01*
X-13841901Y-4605217D01*
X-13854107Y-4613373D01*
X-14005344Y-4694211D01*
X-14018899Y-4699826D01*
X-14183010Y-4749608D01*
X-14197386Y-4752468D01*
X-14371743Y-4769640D01*
X-14379065Y-4770000D01*
X-15571723Y-4770000D01*
X-15571723Y-5110000D01*
X-15144928Y-5110000D01*
X-15129837Y-5113997D01*
X-15125399Y-5130187D01*
X-15125399Y-5710000D01*
X-15575394Y-5710000D01*
X-15730949Y-5728888D01*
X-15877464Y-5784454D01*
X-16006424Y-5873468D01*
X-16110334Y-5990758D01*
X-16183155Y-6129507D01*
X-16202993Y-6209995D01*
X-16792741Y-6209995D01*
X-16792741Y-6511291D01*
X-16788740Y-6510005D01*
X-16202993Y-6510005D01*
X-16183155Y-6590493D01*
X-16110334Y-6729242D01*
X-16006424Y-6846532D01*
X-15877464Y-6935546D01*
X-15730949Y-6991112D01*
X-15575394Y-7010000D01*
X-15125399Y-7010000D01*
X-15125399Y-7590471D01*
X-15129396Y-7605562D01*
X-15145586Y-7610000D01*
X-15572123Y-7610000D01*
X-15572123Y-11740019D01*
X-15571723Y-11740000D01*
X-14805860Y-11740000D01*
X-14805860Y-7610000D01*
X-14820951Y-7606003D01*
X-14825389Y-7589813D01*
X-14825389Y-7010000D01*
X-14375394Y-7010000D01*
X-14219839Y-6991112D01*
X-14073324Y-6935546D01*
X-13944364Y-6846532D01*
X-13840454Y-6729242D01*
X-13767633Y-6590493D01*
X-13747795Y-6510005D01*
X-13747795Y-6209995D01*
X-13767633Y-6129507D01*
X-13840454Y-5990758D01*
X-13944364Y-5873468D01*
X-14073324Y-5784454D01*
X-14219839Y-5728888D01*
X-14375394Y-5710000D01*
X-14825389Y-5710000D01*
X-14825389Y-5129529D01*
X-14821392Y-5114438D01*
X-14805202Y-5110000D01*
X-14378665Y-5110000D01*
X-14372133Y-5110285D01*
X-14164865Y-5128419D01*
X-14152004Y-5130686D01*
X-13954197Y-5183688D01*
X-13941929Y-5188154D01*
X-13756329Y-5274701D01*
X-13745032Y-5281223D01*
X-13577275Y-5398686D01*
X-13567274Y-5407079D01*
X-13422473Y-5551880D01*
X-13414080Y-5561881D01*
X-13296617Y-5729638D01*
X-13290095Y-5740935D01*
X-13203548Y-5926535D01*
X-13199082Y-5938803D01*
X-13146080Y-6136611D01*
X-13143813Y-6149470D01*
X-13140220Y-6190541D01*
X-13142503Y-6203708D01*
X-13162048Y-6209995D01*
X-13747795Y-6209995D01*
X-13747795Y-6510005D01*
X-13158047Y-6510005D01*
X-13145128Y-6513427D01*
X-13140569Y-6533445D01*
X-13143813Y-6570530D01*
X-13146080Y-6583389D01*
X-13199082Y-6781197D01*
X-13203548Y-6793465D01*
X-13290095Y-6979065D01*
X-13296617Y-6990362D01*
X-13414080Y-7158119D01*
X-13422473Y-7168120D01*
X-13567274Y-7312921D01*
X-13577275Y-7321314D01*
X-13745032Y-7438777D01*
X-13756329Y-7445299D01*
X-13941929Y-7531846D01*
X-13954197Y-7536312D01*
X-14152004Y-7589314D01*
X-14164865Y-7591581D01*
X-14372133Y-7609715D01*
X-14378665Y-7610000D01*
X-14805860Y-7610000D01*
X-14805860Y-11740000D01*
X-14379065Y-11740000D01*
X-14371743Y-11740360D01*
X-14197386Y-11757532D01*
X-14183010Y-11760392D01*
X-14018899Y-11810174D01*
X-14005344Y-11815789D01*
X-13854107Y-11896627D01*
X-13841901Y-11904783D01*
X-13709341Y-12013573D01*
X-13698963Y-12023950D01*
X-13648729Y-12085160D01*
X-13586422Y-12130080D01*
X-13532779Y-12140000D01*
X-10840393Y-12140000D01*
X-10766142Y-12120333D01*
X-10711362Y-12066490D01*
X-10690394Y-11990001D01*
X-10690394Y580001D01*
X-10710061Y654252D01*
X-10763904Y709032D01*
X-10840393Y730000D01*
X-13532779Y730000D01*
X-13607030Y710333D01*
X-13648729Y675160D01*
X-13698963Y613950D01*
X-13709341Y603573D01*
X-13841901Y494783D01*
X-13854107Y486627D01*
X-14005344Y405789D01*
X-14018899Y400174D01*
X-14183010Y350392D01*
X-14197386Y347532D01*
X-14371743Y330360D01*
X-14379065Y330000D01*
X-15571723Y330000D01*
X-15579045Y330360D01*
X-15753402Y347532D01*
X-15767778Y350392D01*
X-15931889Y400174D01*
X-15945444Y405789D01*
X-16096681Y486627D01*
X-16108887Y494783D01*
X-16241451Y603576D01*
X-16251818Y613943D01*
X-16360611Y746507D01*
X-16368767Y758713D01*
X-16449605Y909950D01*
X-16455220Y923505D01*
X-16505002Y1087616D01*
X-16507862Y1101992D01*
X-16524672Y1272669D01*
X-16524672Y1287331D01*
X-16507862Y1458008D01*
X-16505002Y1472384D01*
X-16455220Y1636495D01*
X-16449605Y1650050D01*
X-16368767Y1801287D01*
X-16360611Y1813493D01*
X-16251818Y1946057D01*
X-16241451Y1956424D01*
X-16108887Y2065217D01*
X-16096681Y2073373D01*
X-15945444Y2154211D01*
X-15931889Y2159826D01*
X-15767778Y2209608D01*
X-15753402Y2212468D01*
X-15579045Y2229640D01*
X-15572123Y2229980D01*
X-15572123Y6360000D01*
X-15578655Y6360285D01*
X-15785923Y6378419D01*
X-15798784Y6380686D01*
X-15996591Y6433688D01*
X-16008859Y6438154D01*
X-16194459Y6524701D01*
X-16205756Y6531223D01*
X-16373513Y6648686D01*
X-16383514Y6657079D01*
X-16528315Y6801880D01*
X-16536708Y6811881D01*
X-16654171Y6979638D01*
X-16660693Y6990935D01*
X-16747240Y7176535D01*
X-16751706Y7188803D01*
X-16804708Y7386611D01*
X-16806975Y7399470D01*
X-16810568Y7440541D01*
X-16808285Y7453708D01*
X-16792741Y7458708D01*
X-16792741Y7760005D01*
X-16805660Y7763427D01*
X-16810219Y7783445D01*
X-16806975Y7820530D01*
X-16804708Y7833389D01*
X-16751706Y8031197D01*
X-16747240Y8043465D01*
X-16660693Y8229065D01*
X-16654171Y8240362D01*
X-16536708Y8408119D01*
X-16528315Y8418120D01*
X-16383514Y8562921D01*
X-16373513Y8571314D01*
X-16205756Y8688777D01*
X-16194459Y8695299D01*
X-16008859Y8781846D01*
X-15996591Y8786312D01*
X-15798784Y8839314D01*
X-15785923Y8841581D01*
X-15578655Y8859715D01*
X-15572123Y8860000D01*
X-15571723Y8860000D01*
X-15571723Y9200000D01*
X-15579045Y9200360D01*
X-15753402Y9217532D01*
X-15767778Y9220392D01*
X-15931889Y9270174D01*
X-15945444Y9275789D01*
X-16096681Y9356627D01*
X-16108887Y9364783D01*
X-16241447Y9473573D01*
X-16251825Y9483950D01*
X-16302059Y9545160D01*
X-16364366Y9590080D01*
X-16418009Y9600000D01*
X-17755485Y9600000D01*
X-17765259Y9600641D01*
X-17892995Y9617457D01*
X-17911830Y9622505D01*
X-18026310Y9669923D01*
X-18043196Y9679673D01*
X-18141502Y9755105D01*
X-18155289Y9768892D01*
X-18230724Y9867201D01*
X-18240470Y9884081D01*
X-18253481Y9915494D01*
X-18257900Y9925176D01*
X-20027660Y13464695D01*
X-20078456Y13522311D01*
X-20114389Y13539915D01*
X-20566924Y13690760D01*
X-20643584Y13695582D01*
X-20693325Y13675988D01*
X-20699447Y13672197D01*
X-20776078Y13634040D01*
X-20833778Y13583339D01*
X-20858816Y13510723D01*
X-20844626Y13435234D01*
X-20769472Y13362401D01*
X-20611337Y13293037D01*
X-20600472Y13287157D01*
X-20418183Y13168061D01*
X-20408423Y13160464D01*
X-20248228Y13012994D01*
X-20239852Y13003895D01*
X-20106118Y12832074D01*
X-20099348Y12821711D01*
X-19995719Y12630223D01*
X-19990748Y12618892D01*
X-19920050Y12412954D01*
X-19917013Y12400960D01*
X-19889197Y12234268D01*
X-19890242Y12223143D01*
X-19912520Y12215005D01*
X-20492296Y12215005D01*
X-20495289Y12241570D01*
X-20553975Y12409287D01*
X-20648511Y12559739D01*
X-20774155Y12685383D01*
X-20924607Y12779919D01*
X-21092324Y12838605D01*
X-21268894Y12858500D01*
X-21871894Y12858500D01*
X-22048464Y12838605D01*
X-22216181Y12779919D01*
X-22366633Y12685383D01*
X-22492277Y12559739D01*
X-22586813Y12409287D01*
X-22645499Y12241570D01*
X-22648492Y12215005D01*
X-23235276Y12215005D01*
X-23246076Y12217866D01*
X-23250437Y12241183D01*
X-23223775Y12400960D01*
X-23220738Y12412954D01*
X-23150040Y12618892D01*
X-23145069Y12630223D01*
X-23041440Y12821711D01*
X-23034670Y12832074D01*
X-22900936Y13003895D01*
X-22892560Y13012994D01*
X-22732365Y13160464D01*
X-22722605Y13168061D01*
X-22540316Y13287157D01*
X-22529451Y13293037D01*
X-22371316Y13362401D01*
X-22311219Y13410237D01*
X-22282681Y13481550D01*
X-22293185Y13557640D01*
X-22364710Y13634040D01*
X-22441347Y13672200D01*
X-22453075Y13679462D01*
X-22603051Y13792719D01*
X-22613250Y13802016D01*
X-22739851Y13940891D01*
X-22748178Y13951917D01*
X-22847104Y14111688D01*
X-22853260Y14124052D01*
X-22921146Y14299286D01*
X-22924924Y14312565D01*
X-22959455Y14497290D01*
X-22960729Y14511038D01*
X-22960729Y14698962D01*
X-22959455Y14712710D01*
X-22924924Y14897435D01*
X-22921146Y14910714D01*
X-22853260Y15085948D01*
X-22847104Y15098312D01*
X-22748178Y15258083D01*
X-22739851Y15269109D01*
X-22613250Y15407984D01*
X-22603051Y15417281D01*
X-22453075Y15530538D01*
X-22441347Y15537800D01*
X-22273116Y15621569D01*
X-22260245Y15626555D01*
X-22079492Y15677984D01*
X-22065920Y15680521D01*
X-21875350Y15698180D01*
X-21868425Y15698500D01*
X-21272363Y15698500D01*
X-21265438Y15698180D01*
X-21074868Y15680521D01*
X-21061296Y15677984D01*
X-20880543Y15626555D01*
X-20867672Y15621569D01*
X-20699441Y15537800D01*
X-20687713Y15530538D01*
X-20537737Y15417281D01*
X-20527538Y15407984D01*
X-20400937Y15269109D01*
X-20392610Y15258083D01*
X-20293684Y15098312D01*
X-20287528Y15085948D01*
X-20219642Y14910714D01*
X-20215865Y14897437D01*
X-20199359Y14809141D01*
X-20166383Y14739769D01*
X-20099348Y14694402D01*
X-19496129Y14493329D01*
X-19487049Y14489626D01*
X-19371191Y14433282D01*
X-19354923Y14422541D01*
X-19261309Y14341350D01*
X-19248375Y14326764D01*
X-19205904Y14263951D01*
X-19205901Y14263949D01*
X-19205902Y14263948D01*
X-19179196Y14224453D01*
X-19175067Y14216080D01*
X-19171430Y14211908D01*
X-17456934Y10782917D01*
X-17406138Y10725301D01*
X-17322771Y10700000D01*
X-16418009Y10700000D01*
X-16343758Y10719667D01*
X-16302059Y10754840D01*
X-16251825Y10816050D01*
X-16241447Y10826427D01*
X-16108887Y10935217D01*
X-16096681Y10943373D01*
X-15945444Y11024211D01*
X-15931889Y11029826D01*
X-15767778Y11079608D01*
X-15753402Y11082468D01*
X-15579045Y11099640D01*
X-15571723Y11100000D01*
X-15571723Y11760000D01*
X-15579045Y11760360D01*
X-15753402Y11777532D01*
X-15767778Y11780392D01*
X-15931889Y11830174D01*
X-15945444Y11835789D01*
X-16096681Y11916627D01*
X-16108887Y11924783D01*
X-16241447Y12033573D01*
X-16251825Y12043950D01*
X-16302059Y12105160D01*
X-16364366Y12150080D01*
X-16418009Y12160000D01*
X-17120486Y12160000D01*
X-17130258Y12160640D01*
X-17146882Y12162829D01*
X-17168414Y12164099D01*
X-17180248Y12163945D01*
X-17199612Y12166238D01*
X-17219897Y12171392D01*
X-17237254Y12174727D01*
X-17257996Y12177458D01*
X-17276828Y12182504D01*
X-17287763Y12187033D01*
X-17308226Y12193831D01*
X-17319711Y12196749D01*
X-17337823Y12203977D01*
X-17356082Y12214204D01*
X-17371980Y12221916D01*
X-17391308Y12229922D01*
X-17408195Y12239672D01*
X-17417592Y12246882D01*
X-17435598Y12258745D01*
X-17445937Y12264537D01*
X-17461549Y12276196D01*
X-17476544Y12290805D01*
X-17489901Y12302366D01*
X-17506506Y12315108D01*
X-17520287Y12328890D01*
X-17527493Y12338281D01*
X-17541820Y12354406D01*
X-17550303Y12362671D01*
X-17562373Y12377984D01*
X-17573074Y12395974D01*
X-17582987Y12410603D01*
X-17595723Y12427201D01*
X-17605470Y12444084D01*
X-17610000Y12455020D01*
X-17619667Y12474305D01*
X-17628236Y12488710D01*
X-17632684Y12497443D01*
X-19353738Y16504201D01*
X-19401113Y16564663D01*
X-19491561Y16595000D01*
X-20025395Y16595000D01*
X-20099646Y16575333D01*
X-20154426Y16521490D01*
X-20175394Y16445001D01*
X-20175394Y16357388D01*
X-20176315Y16345683D01*
X-20188230Y16270459D01*
X-20195438Y16248273D01*
X-20227329Y16185683D01*
X-20241038Y16166815D01*
X-20290709Y16117144D01*
X-20309577Y16103435D01*
X-20372167Y16071544D01*
X-20394353Y16064336D01*
X-20469577Y16052421D01*
X-20481282Y16051500D01*
X-22659506Y16051500D01*
X-22671211Y16052421D01*
X-22746435Y16064336D01*
X-22768621Y16071544D01*
X-22831211Y16103435D01*
X-22850079Y16117144D01*
X-22899750Y16166815D01*
X-22913459Y16185683D01*
X-22945350Y16248273D01*
X-22952558Y16270459D01*
X-22964473Y16345683D01*
X-22965394Y16357388D01*
X-22965394Y17932612D01*
X-22964473Y17944317D01*
X-22952558Y18019541D01*
X-22945350Y18041727D01*
X-22913459Y18104317D01*
X-22899750Y18123185D01*
X-22850079Y18172856D01*
X-22831211Y18186565D01*
X-22768621Y18218456D01*
X-22746435Y18225664D01*
X-22671211Y18237579D01*
X-22659506Y18238500D01*
X-20481282Y18238500D01*
X-20469577Y18237579D01*
X-20394353Y18225664D01*
X-20372167Y18218456D01*
X-20309577Y18186565D01*
X-20290709Y18172856D01*
X-20241038Y18123185D01*
X-20227329Y18104317D01*
X-20195438Y18041727D01*
X-20188230Y18019541D01*
X-20176315Y17944317D01*
X-20175394Y17932612D01*
X-20175394Y17844999D01*
X-20155727Y17770748D01*
X-20101884Y17715968D01*
X-20025395Y17695000D01*
X-19035302Y17695000D01*
X-19025530Y17694360D01*
X-19008906Y17692171D01*
X-18987374Y17690901D01*
X-18975540Y17691055D01*
X-18956176Y17688762D01*
X-18935891Y17683608D01*
X-18918534Y17680273D01*
X-18897792Y17677542D01*
X-18878960Y17672496D01*
X-18868025Y17667967D01*
X-18847562Y17661169D01*
X-18836077Y17658251D01*
X-18817965Y17651023D01*
X-18799706Y17640796D01*
X-18783808Y17633084D01*
X-18764480Y17625078D01*
X-18747593Y17615328D01*
X-18738196Y17608118D01*
X-18720190Y17596255D01*
X-18709851Y17590463D01*
X-18694239Y17578804D01*
X-18679244Y17564195D01*
X-18665887Y17552634D01*
X-18649282Y17539892D01*
X-18635501Y17526110D01*
X-18628295Y17516719D01*
X-18613968Y17500594D01*
X-18605485Y17492329D01*
X-18593415Y17477016D01*
X-18582714Y17459026D01*
X-18572801Y17444397D01*
X-18560065Y17427799D01*
X-18550318Y17410916D01*
X-18545788Y17399980D01*
X-18536121Y17380695D01*
X-18527552Y17366290D01*
X-18523104Y17357557D01*
X-16802050Y13350799D01*
X-16754675Y13290337D01*
X-16664227Y13260000D01*
X-16418009Y13260000D01*
X-16343758Y13279667D01*
X-16302059Y13314840D01*
X-16251825Y13376050D01*
X-16241447Y13386427D01*
X-16108887Y13495217D01*
X-16096681Y13503373D01*
X-15945444Y13584211D01*
X-15931889Y13589826D01*
X-15767778Y13639608D01*
X-15753402Y13642468D01*
X-15579045Y13659640D01*
X-15571723Y13660000D01*
X-14379065Y13660000D01*
X-14371743Y13659640D01*
X-14197386Y13642468D01*
X-14183010Y13639608D01*
X-14018899Y13589826D01*
X-14005344Y13584211D01*
X-13854107Y13503373D01*
X-13841901Y13495217D01*
X-13709337Y13386424D01*
X-13698970Y13376057D01*
X-13590177Y13243493D01*
X-13582021Y13231287D01*
X-13501183Y13080050D01*
X-13495568Y13066495D01*
X-13445786Y12902384D01*
X-13442926Y12888008D01*
X-13426116Y12717331D01*
X-13426116Y12702669D01*
X-13442926Y12531992D01*
X-13445786Y12517616D01*
X-13495568Y12353505D01*
X-13501183Y12339950D01*
X-13582021Y12188713D01*
X-13590177Y12176507D01*
X-13698970Y12043943D01*
X-13709337Y12033576D01*
X-13841901Y11924783D01*
X-13854107Y11916627D01*
X-14005344Y11835789D01*
X-14018899Y11830174D01*
X-14183010Y11780392D01*
X-14197386Y11777532D01*
X-14371743Y11760360D01*
X-14379065Y11760000D01*
X-15571723Y11760000D01*
X-15571723Y11100000D01*
X-14379065Y11100000D01*
X-14371743Y11099640D01*
X-14197386Y11082468D01*
X-14183010Y11079608D01*
X-14018899Y11029826D01*
X-14005344Y11024211D01*
X-13854107Y10943373D01*
X-13841901Y10935217D01*
X-13709337Y10826424D01*
X-13698970Y10816057D01*
X-13590177Y10683493D01*
X-13582021Y10671287D01*
X-13501183Y10520050D01*
X-13495568Y10506495D01*
X-13445786Y10342384D01*
X-13442926Y10328008D01*
X-13426116Y10157331D01*
X-13426116Y10142669D01*
X-13442926Y9971992D01*
X-13445786Y9957616D01*
X-13495568Y9793505D01*
X-13501183Y9779950D01*
X-13582021Y9628713D01*
X-13590177Y9616507D01*
X-13698970Y9483943D01*
X-13709337Y9473576D01*
X-13841901Y9364783D01*
X-13854107Y9356627D01*
X-14005344Y9275789D01*
X-14018899Y9270174D01*
X-14183010Y9220392D01*
X-14197386Y9217532D01*
X-14371743Y9200360D01*
X-14379065Y9200000D01*
X-15571723Y9200000D01*
X-15571723Y8860000D01*
X-15144928Y8860000D01*
X-15129837Y8856003D01*
X-15125399Y8839813D01*
X-15125399Y8260000D01*
X-15575394Y8260000D01*
X-15730949Y8241112D01*
X-15877464Y8185546D01*
X-16006424Y8096532D01*
X-16110334Y7979242D01*
X-16183155Y7840493D01*
X-16202993Y7760005D01*
X-16792741Y7760005D01*
X-16792741Y7458708D01*
X-16788740Y7459995D01*
X-16202993Y7459995D01*
X-16183155Y7379507D01*
X-16110334Y7240758D01*
X-16006424Y7123468D01*
X-15877464Y7034454D01*
X-15730949Y6978888D01*
X-15575394Y6960000D01*
X-15125399Y6960000D01*
X-15125399Y6379529D01*
X-15129396Y6364438D01*
X-15145586Y6360000D01*
X-15572123Y6360000D01*
X-15572123Y2229980D01*
X-15571723Y2230000D01*
X-14805860Y2230000D01*
X-14805860Y6360000D01*
X-14820951Y6363997D01*
X-14825389Y6380187D01*
X-14825389Y6960000D01*
X-14375394Y6960000D01*
X-14219839Y6978888D01*
X-14073324Y7034454D01*
X-13944364Y7123468D01*
X-13840454Y7240758D01*
X-13767633Y7379507D01*
X-13747795Y7459995D01*
X-13747795Y7760005D01*
X-13767633Y7840493D01*
X-13840454Y7979242D01*
X-13944364Y8096532D01*
X-14073324Y8185546D01*
X-14219839Y8241112D01*
X-14375394Y8260000D01*
X-14825389Y8260000D01*
X-14825389Y8840471D01*
X-14821392Y8855562D01*
X-14805202Y8860000D01*
X-14378665Y8860000D01*
X-14372133Y8859715D01*
X-14164865Y8841581D01*
X-14152004Y8839314D01*
X-13954197Y8786312D01*
X-13941929Y8781846D01*
X-13756329Y8695299D01*
X-13745032Y8688777D01*
X-13577275Y8571314D01*
X-13567274Y8562921D01*
X-13422473Y8418120D01*
X-13414080Y8408119D01*
X-13296617Y8240362D01*
X-13290095Y8229065D01*
X-13203548Y8043465D01*
X-13199082Y8031197D01*
X-13146080Y7833389D01*
X-13143813Y7820530D01*
X-13140220Y7779459D01*
X-13142503Y7766292D01*
X-13162048Y7760005D01*
X-13747795Y7760005D01*
X-13747795Y7459995D01*
X-13158047Y7459995D01*
X-13145128Y7456573D01*
X-13140569Y7436555D01*
X-13143813Y7399470D01*
X-13146080Y7386611D01*
X-13199082Y7188803D01*
X-13203548Y7176535D01*
X-13290095Y6990935D01*
X-13296617Y6979638D01*
X-13414080Y6811881D01*
X-13422473Y6801880D01*
X-13567274Y6657079D01*
X-13577275Y6648686D01*
X-13745032Y6531223D01*
X-13756329Y6524701D01*
X-13941929Y6438154D01*
X-13954197Y6433688D01*
X-14152004Y6380686D01*
X-14164865Y6378419D01*
X-14372133Y6360285D01*
X-14378665Y6360000D01*
X-14805860Y6360000D01*
X-14805860Y2230000D01*
X-14379065Y2230000D01*
X-14371743Y2229640D01*
X-14197386Y2212468D01*
X-14183010Y2209608D01*
X-14018899Y2159826D01*
X-14005344Y2154211D01*
X-13854107Y2073373D01*
X-13841901Y2065217D01*
X-13709341Y1956427D01*
X-13698963Y1946050D01*
X-13648729Y1884840D01*
X-13586422Y1839920D01*
X-13532779Y1830000D01*
X-10840393Y1830000D01*
X-10766142Y1849667D01*
X-10711362Y1903510D01*
X-10690394Y1979999D01*
X-10690394Y14550001D01*
X-10710061Y14624252D01*
X-10763904Y14679032D01*
X-10840393Y14700000D01*
X-13532779Y14700000D01*
X-13607030Y14680333D01*
X-13648729Y14645160D01*
X-13698963Y14583950D01*
X-13709341Y14573573D01*
X-13841901Y14464783D01*
X-13854107Y14456627D01*
X-14005344Y14375789D01*
X-14018899Y14370174D01*
X-14183010Y14320392D01*
X-14197386Y14317532D01*
X-14371743Y14300360D01*
X-14379065Y14300000D01*
X-15571723Y14300000D01*
X-15579045Y14300360D01*
X-15753402Y14317532D01*
X-15767778Y14320392D01*
X-15931889Y14370174D01*
X-15945444Y14375789D01*
X-16096681Y14456627D01*
X-16108887Y14464783D01*
X-16241451Y14573576D01*
X-16251818Y14583943D01*
X-16360611Y14716507D01*
X-16368767Y14728713D01*
X-16449605Y14879950D01*
X-16455220Y14893505D01*
X-16505002Y15057616D01*
X-16507862Y15071992D01*
X-16524672Y15242669D01*
X-16524672Y15257331D01*
X-16507862Y15428008D01*
X-16505002Y15442384D01*
X-16455220Y15606495D01*
X-16449605Y15620050D01*
X-16368767Y15771287D01*
X-16360611Y15783493D01*
X-16251818Y15916057D01*
X-16241451Y15926424D01*
X-16108887Y16035217D01*
X-16096681Y16043373D01*
X-15945444Y16124211D01*
X-15931889Y16129826D01*
X-15767778Y16179608D01*
X-15753402Y16182468D01*
X-15579045Y16199640D01*
X-15571723Y16200000D01*
X-14379065Y16200000D01*
X-14371743Y16199640D01*
X-14197386Y16182468D01*
X-14183010Y16179608D01*
X-14018899Y16129826D01*
X-14005344Y16124211D01*
X-13854107Y16043373D01*
X-13841901Y16035217D01*
X-13709341Y15926427D01*
X-13698963Y15916050D01*
X-13648729Y15854840D01*
X-13586422Y15809920D01*
X-13532779Y15800000D01*
X-10840393Y15800000D01*
X-10766142Y15819667D01*
X-10711362Y15873510D01*
X-10690394Y15949999D01*
X-10690394Y26665091D01*
X-10689753Y26674865D01*
X-10672937Y26802601D01*
X-10667889Y26821436D01*
X-10620471Y26935916D01*
X-10610721Y26952802D01*
X-10535289Y27051108D01*
X-10521503Y27064894D01*
X-10423196Y27140327D01*
X-10406310Y27150077D01*
X-10291830Y27197495D01*
X-10272995Y27202543D01*
X-10145259Y27219359D01*
X-10135485Y27220000D01*
X-2425014Y27220000D01*
X-2350763Y27239667D01*
X-2280741Y27328950D01*
X-2271949Y27359851D01*
X-2266963Y27372722D01*
X-2183194Y27540953D01*
X-2175932Y27552681D01*
X-2062675Y27702657D01*
X-2053378Y27712856D01*
X-1914503Y27839457D01*
X-1903477Y27847784D01*
X-1743706Y27946710D01*
X-1731342Y27952866D01*
X-1556108Y28020752D01*
X-1542829Y28024530D01*
X-1358104Y28059061D01*
X-1344356Y28060335D01*
X-1156432Y28060335D01*
X-1142684Y28059061D01*
X-957959Y28024530D01*
X-944680Y28020752D01*
X-769446Y27952866D01*
X-757082Y27946710D01*
X-597311Y27847784D01*
X-586285Y27839457D01*
X-447410Y27712856D01*
X-438113Y27702657D01*
X-324856Y27552681D01*
X-317594Y27540953D01*
X-233825Y27372722D01*
X-228839Y27359851D01*
X-177410Y27179098D01*
X-174873Y27165526D01*
X-157214Y26974956D01*
X-156894Y26968031D01*
X-156894Y26371969D01*
X-157214Y26365044D01*
X-174873Y26174474D01*
X-177410Y26160902D01*
X-228839Y25980149D01*
X-233825Y25967278D01*
X-317594Y25799047D01*
X-324856Y25787319D01*
X-438113Y25637343D01*
X-447410Y25627144D01*
X-586285Y25500543D01*
X-597311Y25492216D01*
X-757082Y25393290D01*
X-769446Y25387134D01*
X-944680Y25319248D01*
X-957959Y25315470D01*
X-1142684Y25280939D01*
X-1156432Y25279665D01*
X-1344356Y25279665D01*
X-1358104Y25280939D01*
X-1542829Y25315470D01*
X-1556108Y25319248D01*
X-1731342Y25387134D01*
X-1743706Y25393290D01*
X-1903477Y25492216D01*
X-1914503Y25500543D01*
X-2053378Y25627144D01*
X-2062675Y25637343D01*
X-2175932Y25787319D01*
X-2183194Y25799047D01*
X-2266963Y25967278D01*
X-2271949Y25980149D01*
X-2280741Y26011050D01*
X-2319977Y26077084D01*
X-2425014Y26120000D01*
X-9440395Y26120000D01*
X-9514646Y26100333D01*
X-9569426Y26046490D01*
X-9590394Y25970001D01*
X-9590394Y-22160001D01*
X-9570727Y-22234252D01*
X-9516884Y-22289032D01*
X-9440395Y-22310000D01*
X27894607Y-22310000D01*
X27968858Y-22290333D01*
X28023638Y-22236490D01*
X28044606Y-22160001D01*
X28044606Y-21020998D01*
X28024939Y-20946747D01*
X27971096Y-20891967D01*
X27897196Y-20871021D01*
X27822617Y-20889403D01*
X27778657Y-20925839D01*
X27721030Y-20996057D01*
X27710663Y-21006424D01*
X27578099Y-21115217D01*
X27565893Y-21123373D01*
X27414656Y-21204211D01*
X27401101Y-21209826D01*
X27236990Y-21259608D01*
X27222614Y-21262468D01*
X27048257Y-21279640D01*
X27040935Y-21280000D01*
X25848277Y-21280000D01*
X25840955Y-21279640D01*
X25666598Y-21262468D01*
X25652222Y-21259608D01*
X25488111Y-21209826D01*
X25474556Y-21204211D01*
X25323319Y-21123373D01*
X25311113Y-21115217D01*
X25178553Y-21006427D01*
X25168175Y-20996050D01*
X25117941Y-20934840D01*
X25055634Y-20889920D01*
X25001991Y-20880000D01*
X1294515Y-20880000D01*
X1284741Y-20879359D01*
X1157005Y-20862543D01*
X1138170Y-20857495D01*
X1023690Y-20810077D01*
X1006804Y-20800327D01*
X908498Y-20724895D01*
X894711Y-20711108D01*
X819279Y-20612802D01*
X809529Y-20595916D01*
X762111Y-20481436D01*
X757063Y-20462601D01*
X740247Y-20334865D01*
X739606Y-20325091D01*
X739606Y25344841D01*
X719939Y25419092D01*
X668571Y25472373D01*
X636523Y25492216D01*
X625497Y25500543D01*
X486622Y25627144D01*
X477325Y25637343D01*
X364068Y25787319D01*
X356806Y25799047D01*
X273037Y25967278D01*
X268051Y25980149D01*
X216622Y26160902D01*
X214085Y26174474D01*
X196426Y26365044D01*
X196106Y26371969D01*
X196106Y26968031D01*
X196426Y26974956D01*
X214085Y27165526D01*
X216622Y27179098D01*
X268051Y27359851D01*
X273037Y27372722D01*
X356806Y27540953D01*
X364068Y27552681D01*
X477325Y27702657D01*
X486622Y27712856D01*
X625497Y27839457D01*
X636523Y27847784D01*
X796294Y27946710D01*
X808658Y27952866D01*
X983892Y28020752D01*
X997171Y28024530D01*
X1181896Y28059061D01*
X1195644Y28060335D01*
X1383568Y28060335D01*
X1397316Y28059061D01*
X1582041Y28024530D01*
X1595320Y28020752D01*
X1770554Y27952866D01*
X1782918Y27946710D01*
X1942689Y27847784D01*
X1953715Y27839457D01*
X2092590Y27712856D01*
X2101887Y27702657D01*
X2166405Y27617222D01*
X2226846Y27569821D01*
X2302826Y27558553D01*
X2374422Y27586373D01*
X2422860Y27645986D01*
X2436106Y27707617D01*
X2436106Y27760794D01*
X2436577Y27769179D01*
X2450206Y27890139D01*
X2453933Y27906468D01*
X2492742Y28017377D01*
X2500007Y28032463D01*
X2562525Y28131961D01*
X2572965Y28145052D01*
X2656054Y28228141D01*
X2669145Y28238581D01*
X2768643Y28301099D01*
X2783729Y28308364D01*
X2894638Y28347173D01*
X2910967Y28350900D01*
X3031927Y28364529D01*
X3040312Y28365000D01*
X3660072Y28365000D01*
X3675163Y28361003D01*
X3679601Y28344813D01*
X3679601Y27765000D01*
X3036106Y27765000D01*
X3036106Y25575000D01*
X3679601Y25575000D01*
X3679601Y24994529D01*
X3675604Y24979438D01*
X3659414Y24975000D01*
X3040312Y24975000D01*
X3031927Y24975471D01*
X2910967Y24989100D01*
X2894638Y24992827D01*
X2783729Y25031636D01*
X2768643Y25038901D01*
X2669145Y25101419D01*
X2656054Y25111859D01*
X2572965Y25194948D01*
X2562525Y25208039D01*
X2500007Y25307537D01*
X2492742Y25322623D01*
X2453933Y25433532D01*
X2450206Y25449861D01*
X2436577Y25570821D01*
X2436106Y25579206D01*
X2436106Y25632383D01*
X2416439Y25706634D01*
X2362596Y25761414D01*
X2288696Y25782360D01*
X2214117Y25763978D01*
X2166405Y25722778D01*
X2101887Y25637343D01*
X2092590Y25627144D01*
X1953715Y25500543D01*
X1942689Y25492216D01*
X1910641Y25472373D01*
X1857865Y25416564D01*
X1839606Y25344841D01*
X1839606Y-19630001D01*
X1859273Y-19704252D01*
X1913116Y-19759032D01*
X1989605Y-19780000D01*
X3999140Y-19780000D01*
X3999140Y24975000D01*
X3984049Y24978997D01*
X3979611Y24995187D01*
X3979611Y25575000D01*
X4623106Y25575000D01*
X4623106Y26519995D01*
X4623106Y26820005D01*
X4623106Y27765000D01*
X3979611Y27765000D01*
X3979611Y28345471D01*
X3983608Y28360562D01*
X3999798Y28365000D01*
X4618900Y28365000D01*
X4627285Y28364529D01*
X4748245Y28350900D01*
X4764574Y28347173D01*
X4875483Y28308364D01*
X4890569Y28301099D01*
X4990067Y28238581D01*
X5003158Y28228141D01*
X5086247Y28145052D01*
X5096687Y28131961D01*
X5159205Y28032463D01*
X5166470Y28017377D01*
X5205279Y27906468D01*
X5209006Y27890139D01*
X5222635Y27769179D01*
X5223106Y27760794D01*
X5223106Y26839534D01*
X5219109Y26824443D01*
X5202919Y26820005D01*
X4623106Y26820005D01*
X4623106Y26519995D01*
X5203577Y26519995D01*
X5218668Y26515998D01*
X5223106Y26499808D01*
X5223106Y25579206D01*
X5222635Y25570821D01*
X5209006Y25449861D01*
X5205279Y25433532D01*
X5166470Y25322623D01*
X5159205Y25307537D01*
X5096687Y25208039D01*
X5086247Y25194948D01*
X5003158Y25111859D01*
X4990067Y25101419D01*
X4890569Y25038901D01*
X4875483Y25031636D01*
X4764574Y24992827D01*
X4748245Y24989100D01*
X4627285Y24975471D01*
X4618900Y24975000D01*
X3999140Y24975000D01*
X3999140Y-19780000D01*
X25001991Y-19780000D01*
X25076242Y-19760333D01*
X25117941Y-19725160D01*
X25168175Y-19663950D01*
X25178553Y-19653573D01*
X25311113Y-19544783D01*
X25323319Y-19536627D01*
X25474556Y-19455789D01*
X25488111Y-19450174D01*
X25652222Y-19400392D01*
X25666598Y-19397532D01*
X25840955Y-19380360D01*
X25848277Y-19380000D01*
X27040935Y-19380000D01*
X27048257Y-19380360D01*
X27222614Y-19397532D01*
X27236990Y-19400392D01*
X27401101Y-19450174D01*
X27414656Y-19455789D01*
X27565893Y-19536627D01*
X27578099Y-19544783D01*
X27710663Y-19653576D01*
X27721030Y-19663943D01*
X27778657Y-19734161D01*
X27840964Y-19779081D01*
X27917337Y-19787269D01*
X27987750Y-19756578D01*
X28033739Y-19695055D01*
X28044606Y-19639002D01*
X28044606Y-18460998D01*
X28024939Y-18386747D01*
X27971096Y-18331967D01*
X27897196Y-18311021D01*
X27822617Y-18329403D01*
X27778657Y-18365839D01*
X27721030Y-18436057D01*
X27710663Y-18446424D01*
X27578099Y-18555217D01*
X27565893Y-18563373D01*
X27414656Y-18644211D01*
X27401101Y-18649826D01*
X27236990Y-18699608D01*
X27222614Y-18702468D01*
X27048257Y-18719640D01*
X27040935Y-18720000D01*
X25848277Y-18720000D01*
X25840955Y-18719640D01*
X25666598Y-18702468D01*
X25652222Y-18699608D01*
X25488111Y-18649826D01*
X25474556Y-18644211D01*
X25323319Y-18563373D01*
X25311113Y-18555217D01*
X25178549Y-18446424D01*
X25168182Y-18436057D01*
X25059389Y-18303493D01*
X25051233Y-18291287D01*
X24970395Y-18140050D01*
X24964780Y-18126495D01*
X24914998Y-17962384D01*
X24912138Y-17948008D01*
X24895328Y-17777331D01*
X24895328Y-17762669D01*
X24912138Y-17591992D01*
X24914998Y-17577616D01*
X24964780Y-17413505D01*
X24970395Y-17399950D01*
X25051233Y-17248713D01*
X25059389Y-17236507D01*
X25168182Y-17103943D01*
X25178549Y-17093576D01*
X25311113Y-16984783D01*
X25323319Y-16976627D01*
X25474556Y-16895789D01*
X25488111Y-16890174D01*
X25652222Y-16840392D01*
X25666597Y-16837532D01*
X25759310Y-16828401D01*
X25831275Y-16801551D01*
X25880514Y-16742598D01*
X25894606Y-16679124D01*
X25894606Y-16340876D01*
X25874939Y-16266625D01*
X25821096Y-16211845D01*
X25759310Y-16191599D01*
X25666597Y-16182468D01*
X25652222Y-16179608D01*
X25488111Y-16129826D01*
X25474556Y-16124211D01*
X25323319Y-16043373D01*
X25311113Y-16035217D01*
X25178549Y-15926424D01*
X25168182Y-15916057D01*
X25059389Y-15783493D01*
X25051233Y-15771287D01*
X24970395Y-15620050D01*
X24964780Y-15606495D01*
X24914998Y-15442384D01*
X24912138Y-15428008D01*
X24895328Y-15257331D01*
X24895328Y-15242669D01*
X24912138Y-15071992D01*
X24914998Y-15057616D01*
X24964780Y-14893505D01*
X24970395Y-14879950D01*
X25051233Y-14728713D01*
X25059389Y-14716507D01*
X25168182Y-14583943D01*
X25178549Y-14573576D01*
X25311113Y-14464783D01*
X25323319Y-14456627D01*
X25474556Y-14375789D01*
X25488111Y-14370174D01*
X25652222Y-14320392D01*
X25666598Y-14317532D01*
X25840955Y-14300360D01*
X25848277Y-14300000D01*
X25848277Y-13640000D01*
X25840955Y-13639640D01*
X25666598Y-13622468D01*
X25652222Y-13619608D01*
X25488111Y-13569826D01*
X25474556Y-13564211D01*
X25323319Y-13483373D01*
X25311113Y-13475217D01*
X25178549Y-13366424D01*
X25168182Y-13356057D01*
X25059389Y-13223493D01*
X25051233Y-13211287D01*
X24970395Y-13060050D01*
X24964780Y-13046495D01*
X24914998Y-12882384D01*
X24912138Y-12868008D01*
X24895328Y-12697331D01*
X24895328Y-12682669D01*
X24912138Y-12511992D01*
X24914998Y-12497616D01*
X24964780Y-12333505D01*
X24970395Y-12319950D01*
X25051233Y-12168713D01*
X25059389Y-12156507D01*
X25168182Y-12023943D01*
X25178549Y-12013576D01*
X25311113Y-11904783D01*
X25323319Y-11896627D01*
X25474556Y-11815789D01*
X25488111Y-11810174D01*
X25652222Y-11760392D01*
X25666598Y-11757532D01*
X25840955Y-11740360D01*
X25848277Y-11740000D01*
X25848277Y-7310000D01*
X25840955Y-7309640D01*
X25666598Y-7292468D01*
X25652222Y-7289608D01*
X25488111Y-7239826D01*
X25474556Y-7234211D01*
X25323319Y-7153373D01*
X25311113Y-7145217D01*
X25178553Y-7036427D01*
X25168175Y-7026050D01*
X25117941Y-6964840D01*
X25055634Y-6919920D01*
X25001991Y-6910000D01*
X15264515Y-6910000D01*
X15254741Y-6909359D01*
X15127005Y-6892543D01*
X15108170Y-6887495D01*
X14993690Y-6840077D01*
X14976804Y-6830327D01*
X14878498Y-6754895D01*
X14864711Y-6741108D01*
X14789279Y-6642802D01*
X14779529Y-6625916D01*
X14732111Y-6511436D01*
X14727063Y-6492601D01*
X14710247Y-6364865D01*
X14709606Y-6355091D01*
X14709606Y25344841D01*
X14689939Y25419092D01*
X14638571Y25472373D01*
X14606523Y25492216D01*
X14595497Y25500543D01*
X14456622Y25627144D01*
X14447325Y25637343D01*
X14334068Y25787319D01*
X14326806Y25799047D01*
X14243037Y25967278D01*
X14238051Y25980149D01*
X14186622Y26160902D01*
X14184085Y26174474D01*
X14166426Y26365044D01*
X14166106Y26371969D01*
X14166106Y26968031D01*
X14166426Y26974956D01*
X14184085Y27165526D01*
X14186622Y27179098D01*
X14238051Y27359851D01*
X14243037Y27372722D01*
X14326806Y27540953D01*
X14334068Y27552681D01*
X14447325Y27702657D01*
X14456622Y27712856D01*
X14595497Y27839457D01*
X14606523Y27847784D01*
X14766294Y27946710D01*
X14778658Y27952866D01*
X14953892Y28020752D01*
X14967171Y28024530D01*
X15151896Y28059061D01*
X15165644Y28060335D01*
X15353568Y28060335D01*
X15367316Y28059061D01*
X15552041Y28024530D01*
X15565320Y28020752D01*
X15740554Y27952866D01*
X15752918Y27946710D01*
X15912689Y27847784D01*
X15923715Y27839457D01*
X16062590Y27712856D01*
X16071887Y27702657D01*
X16185144Y27552681D01*
X16192406Y27540953D01*
X16276175Y27372722D01*
X16281161Y27359851D01*
X16332590Y27179098D01*
X16335127Y27165526D01*
X16352786Y26974956D01*
X16353106Y26968031D01*
X16353106Y26371969D01*
X16352786Y26365044D01*
X16335127Y26174474D01*
X16332590Y26160902D01*
X16281161Y25980149D01*
X16276175Y25967278D01*
X16192406Y25799047D01*
X16185144Y25787319D01*
X16071887Y25637343D01*
X16062590Y25627144D01*
X15923715Y25500543D01*
X15912689Y25492216D01*
X15880641Y25472373D01*
X15827865Y25416564D01*
X15809606Y25344841D01*
X15809606Y-5660001D01*
X15829273Y-5734252D01*
X15883116Y-5789032D01*
X15959605Y-5810000D01*
X25001991Y-5810000D01*
X25076242Y-5790333D01*
X25117941Y-5755160D01*
X25168175Y-5693950D01*
X25178553Y-5683573D01*
X25311113Y-5574783D01*
X25323319Y-5566627D01*
X25474556Y-5485789D01*
X25488111Y-5480174D01*
X25652222Y-5430392D01*
X25666598Y-5427532D01*
X25840955Y-5410360D01*
X25848277Y-5410000D01*
X27040935Y-5410000D01*
X27048257Y-5410360D01*
X27222614Y-5427532D01*
X27236990Y-5430392D01*
X27401101Y-5480174D01*
X27414656Y-5485789D01*
X27565893Y-5566627D01*
X27578099Y-5574783D01*
X27710663Y-5683576D01*
X27721030Y-5693943D01*
X27829823Y-5826507D01*
X27837979Y-5838713D01*
X27918817Y-5989950D01*
X27924432Y-6003505D01*
X27974214Y-6167616D01*
X27977074Y-6181992D01*
X27993884Y-6352669D01*
X27993884Y-6367331D01*
X27977074Y-6538008D01*
X27974214Y-6552384D01*
X27924432Y-6716495D01*
X27918817Y-6730050D01*
X27837979Y-6881287D01*
X27829823Y-6893493D01*
X27721030Y-7026057D01*
X27710663Y-7036424D01*
X27578099Y-7145217D01*
X27565893Y-7153373D01*
X27414656Y-7234211D01*
X27401101Y-7239826D01*
X27236990Y-7289608D01*
X27222614Y-7292468D01*
X27048257Y-7309640D01*
X27040935Y-7310000D01*
X25848277Y-7310000D01*
X25848277Y-11740000D01*
X27040935Y-11740000D01*
X27048257Y-11740360D01*
X27222614Y-11757532D01*
X27236990Y-11760392D01*
X27401101Y-11810174D01*
X27414656Y-11815789D01*
X27565893Y-11896627D01*
X27578099Y-11904783D01*
X27710663Y-12013576D01*
X27721030Y-12023943D01*
X27829823Y-12156507D01*
X27837979Y-12168713D01*
X27918817Y-12319950D01*
X27924432Y-12333505D01*
X27974214Y-12497616D01*
X27977074Y-12511992D01*
X27993884Y-12682669D01*
X27993884Y-12697331D01*
X27977074Y-12868008D01*
X27974214Y-12882384D01*
X27924432Y-13046495D01*
X27918817Y-13060050D01*
X27837979Y-13211287D01*
X27829823Y-13223493D01*
X27721030Y-13356057D01*
X27710663Y-13366424D01*
X27578099Y-13475217D01*
X27565893Y-13483373D01*
X27414656Y-13564211D01*
X27401101Y-13569826D01*
X27236990Y-13619608D01*
X27222614Y-13622468D01*
X27048257Y-13639640D01*
X27040935Y-13640000D01*
X25848277Y-13640000D01*
X25848277Y-14300000D01*
X27040935Y-14300000D01*
X27048257Y-14300360D01*
X27222614Y-14317532D01*
X27236990Y-14320392D01*
X27401101Y-14370174D01*
X27414656Y-14375789D01*
X27565893Y-14456627D01*
X27578099Y-14464783D01*
X27710663Y-14573576D01*
X27721030Y-14583943D01*
X27829823Y-14716507D01*
X27837979Y-14728713D01*
X27918817Y-14879950D01*
X27924432Y-14893505D01*
X27974214Y-15057616D01*
X27977074Y-15071992D01*
X27988667Y-15189703D01*
X28015517Y-15261669D01*
X28074470Y-15310908D01*
X28137944Y-15325000D01*
X39324607Y-15325000D01*
X39398858Y-15305333D01*
X39453638Y-15251490D01*
X39474606Y-15175001D01*
X39474606Y-3874999D01*
X39454939Y-3800748D01*
X39401096Y-3745968D01*
X39324607Y-3725000D01*
X28137944Y-3725000D01*
X28063693Y-3744667D01*
X28008913Y-3798510D01*
X27988667Y-3860297D01*
X27977074Y-3978008D01*
X27974214Y-3992384D01*
X27924432Y-4156495D01*
X27918817Y-4170050D01*
X27837979Y-4321287D01*
X27829823Y-4333493D01*
X27721030Y-4466057D01*
X27710663Y-4476424D01*
X27578099Y-4585217D01*
X27565893Y-4593373D01*
X27414656Y-4674211D01*
X27401101Y-4679826D01*
X27236990Y-4729608D01*
X27222614Y-4732468D01*
X27048257Y-4749640D01*
X27040935Y-4750000D01*
X25848277Y-4750000D01*
X25840955Y-4749640D01*
X25666598Y-4732468D01*
X25652222Y-4729608D01*
X25488111Y-4679826D01*
X25474556Y-4674211D01*
X25323319Y-4593373D01*
X25311113Y-4585217D01*
X25178549Y-4476424D01*
X25168182Y-4466057D01*
X25059389Y-4333493D01*
X25051233Y-4321287D01*
X24970395Y-4170050D01*
X24964780Y-4156495D01*
X24914998Y-3992384D01*
X24912138Y-3978008D01*
X24895328Y-3807331D01*
X24895328Y-3792669D01*
X24912138Y-3621992D01*
X24914998Y-3607616D01*
X24964780Y-3443505D01*
X24970395Y-3429950D01*
X25051233Y-3278713D01*
X25059389Y-3266507D01*
X25168182Y-3133943D01*
X25178549Y-3123576D01*
X25311113Y-3014783D01*
X25323319Y-3006627D01*
X25474556Y-2925789D01*
X25488111Y-2920174D01*
X25652222Y-2870392D01*
X25666597Y-2867532D01*
X25759310Y-2858401D01*
X25831275Y-2831551D01*
X25880514Y-2772598D01*
X25894606Y-2709124D01*
X25894606Y-2370876D01*
X25874939Y-2296625D01*
X25821096Y-2241845D01*
X25759310Y-2221599D01*
X25666597Y-2212468D01*
X25652222Y-2209608D01*
X25488111Y-2159826D01*
X25474556Y-2154211D01*
X25323319Y-2073373D01*
X25311113Y-2065217D01*
X25178549Y-1956424D01*
X25168182Y-1946057D01*
X25059389Y-1813493D01*
X25051233Y-1801287D01*
X24970395Y-1650050D01*
X24964780Y-1636495D01*
X24914998Y-1472384D01*
X24912138Y-1458008D01*
X24895328Y-1287331D01*
X24895328Y-1272669D01*
X24912138Y-1101992D01*
X24914998Y-1087616D01*
X24964780Y-923505D01*
X24970395Y-909950D01*
X25051233Y-758713D01*
X25059389Y-746507D01*
X25168182Y-613943D01*
X25178549Y-603576D01*
X25311113Y-494783D01*
X25323319Y-486627D01*
X25474556Y-405789D01*
X25488111Y-400174D01*
X25652222Y-350392D01*
X25666598Y-347532D01*
X25840955Y-330360D01*
X25848277Y-330000D01*
X25848277Y330000D01*
X25840955Y330360D01*
X25666598Y347532D01*
X25652222Y350392D01*
X25488111Y400174D01*
X25474556Y405789D01*
X25323319Y486627D01*
X25311113Y494783D01*
X25178549Y603576D01*
X25168182Y613943D01*
X25059389Y746507D01*
X25051233Y758713D01*
X24970395Y909950D01*
X24964780Y923505D01*
X24914998Y1087616D01*
X24912138Y1101992D01*
X24895328Y1272669D01*
X24895328Y1287331D01*
X24912138Y1458008D01*
X24914998Y1472384D01*
X24964780Y1636495D01*
X24970395Y1650050D01*
X25051233Y1801287D01*
X25059389Y1813493D01*
X25168182Y1946057D01*
X25178549Y1956424D01*
X25311113Y2065217D01*
X25323319Y2073373D01*
X25474556Y2154211D01*
X25488111Y2159826D01*
X25652222Y2209608D01*
X25666598Y2212468D01*
X25840955Y2229640D01*
X25848277Y2230000D01*
X25848277Y6660000D01*
X25840955Y6660360D01*
X25666598Y6677532D01*
X25652222Y6680392D01*
X25488111Y6730174D01*
X25474556Y6735789D01*
X25323319Y6816627D01*
X25311113Y6824783D01*
X25178553Y6933573D01*
X25168175Y6943950D01*
X25117941Y7005160D01*
X25055634Y7050080D01*
X25001991Y7060000D01*
X17804515Y7060000D01*
X17794741Y7060641D01*
X17667005Y7077457D01*
X17648170Y7082505D01*
X17533690Y7129923D01*
X17516804Y7139673D01*
X17418498Y7215105D01*
X17404711Y7228892D01*
X17329279Y7327198D01*
X17319529Y7344084D01*
X17272111Y7458564D01*
X17267063Y7477399D01*
X17250247Y7605135D01*
X17249606Y7614909D01*
X17249606Y25344841D01*
X17229939Y25419092D01*
X17178571Y25472373D01*
X17146523Y25492216D01*
X17135497Y25500543D01*
X16996622Y25627144D01*
X16987325Y25637343D01*
X16874068Y25787319D01*
X16866806Y25799047D01*
X16783037Y25967278D01*
X16778051Y25980149D01*
X16726622Y26160902D01*
X16724085Y26174474D01*
X16706426Y26365044D01*
X16706106Y26371969D01*
X16706106Y26968031D01*
X16706426Y26974956D01*
X16724085Y27165526D01*
X16726622Y27179098D01*
X16778051Y27359851D01*
X16783037Y27372722D01*
X16866806Y27540953D01*
X16874068Y27552681D01*
X16987325Y27702657D01*
X16996622Y27712856D01*
X17135497Y27839457D01*
X17146523Y27847784D01*
X17306294Y27946710D01*
X17318658Y27952866D01*
X17493892Y28020752D01*
X17507171Y28024530D01*
X17691896Y28059061D01*
X17705644Y28060335D01*
X17893568Y28060335D01*
X17907316Y28059061D01*
X18092041Y28024530D01*
X18105320Y28020752D01*
X18280554Y27952866D01*
X18292918Y27946710D01*
X18452689Y27847784D01*
X18463715Y27839457D01*
X18602590Y27712856D01*
X18611887Y27702657D01*
X18725144Y27552681D01*
X18732406Y27540953D01*
X18770566Y27464316D01*
X18821267Y27406616D01*
X18893883Y27381578D01*
X18969372Y27395768D01*
X19042205Y27470922D01*
X19111569Y27629057D01*
X19117449Y27639922D01*
X19236545Y27822211D01*
X19244142Y27831971D01*
X19391612Y27992166D01*
X19400711Y28000542D01*
X19572532Y28134276D01*
X19582895Y28141046D01*
X19774383Y28244675D01*
X19785714Y28249646D01*
X19991652Y28320344D01*
X20003646Y28323381D01*
X20170338Y28351197D01*
X20181463Y28350152D01*
X20189601Y28327874D01*
X20189601Y27748098D01*
X20163036Y27745105D01*
X19995319Y27686419D01*
X19844867Y27591883D01*
X19719223Y27466239D01*
X19624687Y27315787D01*
X19566001Y27148070D01*
X19546106Y26971500D01*
X19546106Y26368500D01*
X19566001Y26191930D01*
X19624687Y26024213D01*
X19719223Y25873761D01*
X19844867Y25748117D01*
X19995319Y25653581D01*
X20163036Y25594895D01*
X20189601Y25591902D01*
X20189601Y25005118D01*
X20186740Y24994318D01*
X20163423Y24989957D01*
X20003646Y25016619D01*
X19991652Y25019656D01*
X19785714Y25090354D01*
X19774383Y25095325D01*
X19582895Y25198954D01*
X19572532Y25205724D01*
X19400711Y25339458D01*
X19391612Y25347834D01*
X19244142Y25508029D01*
X19236545Y25517789D01*
X19117449Y25700078D01*
X19111569Y25710943D01*
X19042205Y25869078D01*
X18994369Y25929175D01*
X18923056Y25957713D01*
X18846966Y25947209D01*
X18770566Y25875684D01*
X18732406Y25799047D01*
X18725144Y25787319D01*
X18611887Y25637343D01*
X18602590Y25627144D01*
X18463715Y25500543D01*
X18452689Y25492216D01*
X18420641Y25472373D01*
X18367865Y25416564D01*
X18349606Y25344841D01*
X18349606Y8309999D01*
X18369273Y8235748D01*
X18423116Y8180968D01*
X18499605Y8160000D01*
X20508874Y8160000D01*
X20508874Y24988803D01*
X20497749Y24989848D01*
X20489611Y25012126D01*
X20489611Y25591902D01*
X20516176Y25594895D01*
X20683893Y25653581D01*
X20834345Y25748117D01*
X20959989Y25873761D01*
X21054525Y26024213D01*
X21113211Y26191930D01*
X21133106Y26368500D01*
X21133106Y26519995D01*
X21133106Y26820005D01*
X21133106Y26971500D01*
X21113211Y27148070D01*
X21054525Y27315787D01*
X20959989Y27466239D01*
X20834345Y27591883D01*
X20683893Y27686419D01*
X20516176Y27745105D01*
X20489611Y27748098D01*
X20489611Y28334882D01*
X20492472Y28345682D01*
X20515789Y28350043D01*
X20675566Y28323381D01*
X20687560Y28320344D01*
X20893498Y28249646D01*
X20904829Y28244675D01*
X21096317Y28141046D01*
X21106680Y28134276D01*
X21278501Y28000542D01*
X21287600Y27992166D01*
X21435070Y27831971D01*
X21442667Y27822211D01*
X21561763Y27639922D01*
X21567643Y27629057D01*
X21655112Y27429646D01*
X21659123Y27417961D01*
X21712577Y27206878D01*
X21714612Y27194682D01*
X21732850Y26974584D01*
X21733106Y26968402D01*
X21733106Y26839534D01*
X21729109Y26824443D01*
X21712919Y26820005D01*
X21133106Y26820005D01*
X21133106Y26519995D01*
X21713577Y26519995D01*
X21728668Y26515998D01*
X21733106Y26499808D01*
X21733106Y26371598D01*
X21732850Y26365416D01*
X21714612Y26145318D01*
X21712577Y26133122D01*
X21659123Y25922039D01*
X21655112Y25910354D01*
X21567643Y25710943D01*
X21561763Y25700078D01*
X21442667Y25517789D01*
X21435070Y25508029D01*
X21287600Y25347834D01*
X21278501Y25339458D01*
X21106680Y25205724D01*
X21096317Y25198954D01*
X20904829Y25095325D01*
X20893498Y25090354D01*
X20687560Y25019656D01*
X20675566Y25016619D01*
X20508874Y24988803D01*
X20508874Y8160000D01*
X25001991Y8160000D01*
X25076242Y8179667D01*
X25117941Y8214840D01*
X25168175Y8276050D01*
X25178553Y8286427D01*
X25311113Y8395217D01*
X25323319Y8403373D01*
X25474556Y8484211D01*
X25488111Y8489826D01*
X25652222Y8539608D01*
X25666598Y8542468D01*
X25840955Y8559640D01*
X25848277Y8560000D01*
X27040935Y8560000D01*
X27048257Y8559640D01*
X27222614Y8542468D01*
X27236990Y8539608D01*
X27401101Y8489826D01*
X27414656Y8484211D01*
X27565893Y8403373D01*
X27578099Y8395217D01*
X27710663Y8286424D01*
X27721030Y8276057D01*
X27829823Y8143493D01*
X27837979Y8131287D01*
X27918817Y7980050D01*
X27924432Y7966495D01*
X27974214Y7802384D01*
X27977074Y7788008D01*
X27993884Y7617331D01*
X27993884Y7602669D01*
X27977074Y7431992D01*
X27974214Y7417616D01*
X27924432Y7253505D01*
X27918817Y7239950D01*
X27837979Y7088713D01*
X27829823Y7076507D01*
X27721030Y6943943D01*
X27710663Y6933576D01*
X27578099Y6824783D01*
X27565893Y6816627D01*
X27414656Y6735789D01*
X27401101Y6730174D01*
X27236990Y6680392D01*
X27222614Y6677532D01*
X27048257Y6660360D01*
X27040935Y6660000D01*
X25848277Y6660000D01*
X25848277Y2230000D01*
X27040935Y2230000D01*
X27048257Y2229640D01*
X27222614Y2212468D01*
X27236990Y2209608D01*
X27401101Y2159826D01*
X27414656Y2154211D01*
X27565893Y2073373D01*
X27578099Y2065217D01*
X27710663Y1956424D01*
X27721030Y1946057D01*
X27829823Y1813493D01*
X27837979Y1801287D01*
X27918817Y1650050D01*
X27924432Y1636495D01*
X27974214Y1472384D01*
X27977074Y1458008D01*
X27993884Y1287331D01*
X27993884Y1272669D01*
X27977074Y1101992D01*
X27974214Y1087616D01*
X27924432Y923505D01*
X27918817Y909950D01*
X27837979Y758713D01*
X27829823Y746507D01*
X27721030Y613943D01*
X27710663Y603576D01*
X27578099Y494783D01*
X27565893Y486627D01*
X27414656Y405789D01*
X27401101Y400174D01*
X27236990Y350392D01*
X27222614Y347532D01*
X27048257Y330360D01*
X27040935Y330000D01*
X25848277Y330000D01*
X25848277Y-330000D01*
X27040935Y-330000D01*
X27048257Y-330360D01*
X27222614Y-347532D01*
X27236990Y-350392D01*
X27401101Y-400174D01*
X27414656Y-405789D01*
X27565893Y-486627D01*
X27578099Y-494783D01*
X27710663Y-603576D01*
X27721030Y-613943D01*
X27829823Y-746507D01*
X27837979Y-758713D01*
X27918817Y-909950D01*
X27924432Y-923505D01*
X27974214Y-1087616D01*
X27977074Y-1101992D01*
X27993884Y-1272669D01*
X27993884Y-1287331D01*
X27977074Y-1458008D01*
X27974214Y-1472384D01*
X27924432Y-1636495D01*
X27918817Y-1650050D01*
X27837979Y-1801287D01*
X27829823Y-1813493D01*
X27721030Y-1946057D01*
X27710663Y-1956424D01*
X27578099Y-2065217D01*
X27565893Y-2073373D01*
X27414656Y-2154211D01*
X27401101Y-2159826D01*
X27236990Y-2209608D01*
X27222615Y-2212468D01*
X27129902Y-2221599D01*
X27057937Y-2248449D01*
X27008698Y-2307402D01*
X26994606Y-2370876D01*
X26994606Y-2475001D01*
X27014273Y-2549252D01*
X27068116Y-2604032D01*
X27144605Y-2625000D01*
X39324607Y-2625000D01*
X39398858Y-2605333D01*
X39453638Y-2551490D01*
X39474606Y-2475001D01*
X39474606Y9460001D01*
X39454939Y9534252D01*
X39401096Y9589032D01*
X39324607Y9610000D01*
X27879014Y9610000D01*
X27804763Y9590333D01*
X27763064Y9555160D01*
X27721037Y9503950D01*
X27710659Y9493573D01*
X27578099Y9384783D01*
X27565893Y9376627D01*
X27414656Y9295789D01*
X27401101Y9290174D01*
X27236990Y9240392D01*
X27222614Y9237532D01*
X27048257Y9220360D01*
X27040935Y9220000D01*
X25848277Y9220000D01*
X25840955Y9220360D01*
X25666598Y9237532D01*
X25652222Y9240392D01*
X25488111Y9290174D01*
X25474556Y9295789D01*
X25323319Y9376627D01*
X25311113Y9384783D01*
X25178549Y9493576D01*
X25168182Y9503943D01*
X25059389Y9636507D01*
X25051233Y9648713D01*
X24970395Y9799950D01*
X24964780Y9813505D01*
X24914998Y9977616D01*
X24912138Y9991992D01*
X24895328Y10162669D01*
X24895328Y10177331D01*
X24912138Y10348008D01*
X24914998Y10362384D01*
X24964780Y10526495D01*
X24970395Y10540050D01*
X25051233Y10691287D01*
X25059389Y10703493D01*
X25168182Y10836057D01*
X25178549Y10846424D01*
X25311113Y10955217D01*
X25323319Y10963373D01*
X25474556Y11044211D01*
X25488111Y11049826D01*
X25652222Y11099608D01*
X25666597Y11102468D01*
X25759310Y11111599D01*
X25831275Y11138449D01*
X25880514Y11197402D01*
X25894606Y11260876D01*
X25894606Y11599124D01*
X25874939Y11673375D01*
X25821096Y11728155D01*
X25759310Y11748401D01*
X25666597Y11757532D01*
X25652222Y11760392D01*
X25488111Y11810174D01*
X25474556Y11815789D01*
X25323319Y11896627D01*
X25311113Y11904783D01*
X25178549Y12013576D01*
X25168182Y12023943D01*
X25059389Y12156507D01*
X25051233Y12168713D01*
X24970395Y12319950D01*
X24964780Y12333505D01*
X24914998Y12497616D01*
X24912138Y12511992D01*
X24895328Y12682669D01*
X24895328Y12697331D01*
X24912138Y12868008D01*
X24914998Y12882384D01*
X24964780Y13046495D01*
X24970395Y13060050D01*
X25051233Y13211287D01*
X25059389Y13223493D01*
X25168182Y13356057D01*
X25178549Y13366424D01*
X25311113Y13475217D01*
X25323319Y13483373D01*
X25474556Y13564211D01*
X25488111Y13569826D01*
X25652222Y13619608D01*
X25666598Y13622468D01*
X25840955Y13639640D01*
X25848277Y13640000D01*
X25848277Y14300000D01*
X25840955Y14300360D01*
X25666598Y14317532D01*
X25652222Y14320392D01*
X25488111Y14370174D01*
X25474556Y14375789D01*
X25323319Y14456627D01*
X25311113Y14464783D01*
X25178549Y14573576D01*
X25168182Y14583943D01*
X25059389Y14716507D01*
X25051233Y14728713D01*
X24970395Y14879950D01*
X24964780Y14893505D01*
X24914998Y15057616D01*
X24912138Y15071992D01*
X24895328Y15242669D01*
X24895328Y15257331D01*
X24912138Y15428008D01*
X24914998Y15442384D01*
X24964780Y15606495D01*
X24970395Y15620050D01*
X25051233Y15771287D01*
X25059389Y15783493D01*
X25168182Y15916057D01*
X25178549Y15926424D01*
X25311113Y16035217D01*
X25323319Y16043373D01*
X25474556Y16124211D01*
X25488111Y16129826D01*
X25652222Y16179608D01*
X25666598Y16182468D01*
X25840955Y16199640D01*
X25848277Y16200000D01*
X27040935Y16200000D01*
X27048257Y16199640D01*
X27222614Y16182468D01*
X27236990Y16179608D01*
X27401101Y16129826D01*
X27414656Y16124211D01*
X27565893Y16043373D01*
X27578099Y16035217D01*
X27710663Y15926424D01*
X27721030Y15916057D01*
X27829823Y15783493D01*
X27837979Y15771287D01*
X27918817Y15620050D01*
X27924432Y15606495D01*
X27974214Y15442384D01*
X27977074Y15428008D01*
X27993884Y15257331D01*
X27993884Y15242669D01*
X27977074Y15071992D01*
X27974214Y15057616D01*
X27924432Y14893505D01*
X27918817Y14879950D01*
X27837979Y14728713D01*
X27829823Y14716507D01*
X27721030Y14583943D01*
X27710663Y14573576D01*
X27578099Y14464783D01*
X27565893Y14456627D01*
X27414656Y14375789D01*
X27401101Y14370174D01*
X27236990Y14320392D01*
X27222614Y14317532D01*
X27048257Y14300360D01*
X27040935Y14300000D01*
X25848277Y14300000D01*
X25848277Y13640000D01*
X27040935Y13640000D01*
X27048257Y13639640D01*
X27222614Y13622468D01*
X27236990Y13619608D01*
X27401101Y13569826D01*
X27414656Y13564211D01*
X27565893Y13483373D01*
X27578099Y13475217D01*
X27710663Y13366424D01*
X27721030Y13356057D01*
X27829823Y13223493D01*
X27837979Y13211287D01*
X27918817Y13060050D01*
X27924432Y13046495D01*
X27974214Y12882384D01*
X27977074Y12868008D01*
X27993884Y12697331D01*
X27993884Y12682669D01*
X27977074Y12511992D01*
X27974214Y12497616D01*
X27924432Y12333505D01*
X27918817Y12319950D01*
X27837979Y12168713D01*
X27829823Y12156507D01*
X27721030Y12023943D01*
X27710663Y12013576D01*
X27578099Y11904783D01*
X27565893Y11896627D01*
X27414656Y11815789D01*
X27401101Y11810174D01*
X27236990Y11760392D01*
X27222615Y11757532D01*
X27129902Y11748401D01*
X27057937Y11721551D01*
X27008698Y11662598D01*
X26994606Y11599124D01*
X26994606Y11260876D01*
X27014273Y11186625D01*
X27068116Y11131845D01*
X27129902Y11111599D01*
X27222615Y11102468D01*
X27236990Y11099608D01*
X27401101Y11049826D01*
X27414656Y11044211D01*
X27565893Y10963373D01*
X27578099Y10955217D01*
X27710663Y10846424D01*
X27721030Y10836057D01*
X27779477Y10764840D01*
X27841784Y10719920D01*
X27895427Y10710000D01*
X30163812Y10710000D01*
X30163812Y14860000D01*
X30155427Y14860471D01*
X30034467Y14874100D01*
X30018138Y14877827D01*
X29907229Y14916636D01*
X29892143Y14923901D01*
X29792645Y14986419D01*
X29779554Y14996859D01*
X29696465Y15079948D01*
X29686025Y15093039D01*
X29623507Y15192537D01*
X29616242Y15207623D01*
X29577433Y15318532D01*
X29573706Y15334861D01*
X29560077Y15455821D01*
X29559606Y15464206D01*
X29559606Y16790466D01*
X29563603Y16805557D01*
X29579135Y16809814D01*
X29579135Y17110005D01*
X29564044Y17114002D01*
X29559606Y17130192D01*
X29559606Y18455794D01*
X29560077Y18464179D01*
X29573706Y18585139D01*
X29577433Y18601468D01*
X29616242Y18712377D01*
X29623507Y18727463D01*
X29686025Y18826961D01*
X29696465Y18840052D01*
X29779554Y18923141D01*
X29792645Y18933581D01*
X29892143Y18996099D01*
X29907229Y19003364D01*
X30018138Y19042173D01*
X30034467Y19045900D01*
X30155427Y19059529D01*
X30163812Y19060000D01*
X31490072Y19060000D01*
X31505163Y19056003D01*
X31509601Y19039813D01*
X31509601Y18460000D01*
X30159606Y18460000D01*
X30159606Y17110005D01*
X29579135Y17110005D01*
X29579135Y16809814D01*
X29579793Y16809995D01*
X30159606Y16809995D01*
X30159606Y15460000D01*
X31509601Y15460000D01*
X31509601Y14879529D01*
X31505604Y14864438D01*
X31489414Y14860000D01*
X30163812Y14860000D01*
X30163812Y10710000D01*
X31829140Y10710000D01*
X31829140Y14860000D01*
X31814049Y14863997D01*
X31809611Y14880187D01*
X31809611Y15460000D01*
X33159606Y15460000D01*
X33159606Y16809995D01*
X33159606Y17110005D01*
X33159606Y18460000D01*
X31809611Y18460000D01*
X31809611Y19040471D01*
X31813608Y19055562D01*
X31829798Y19060000D01*
X33155400Y19060000D01*
X33163785Y19059529D01*
X33284745Y19045900D01*
X33301074Y19042173D01*
X33411983Y19003364D01*
X33427069Y18996099D01*
X33526567Y18933581D01*
X33539658Y18923141D01*
X33622747Y18840052D01*
X33633187Y18826961D01*
X33695705Y18727463D01*
X33702970Y18712377D01*
X33741779Y18601468D01*
X33745506Y18585139D01*
X33759135Y18464179D01*
X33759606Y18455794D01*
X33759606Y17129534D01*
X33755609Y17114443D01*
X33739419Y17110005D01*
X33159606Y17110005D01*
X33159606Y16809995D01*
X33740077Y16809995D01*
X33755168Y16805998D01*
X33759606Y16789808D01*
X33759606Y15464206D01*
X33759135Y15455821D01*
X33745506Y15334861D01*
X33741779Y15318532D01*
X33702970Y15207623D01*
X33695705Y15192537D01*
X33633187Y15093039D01*
X33622747Y15079948D01*
X33539658Y14996859D01*
X33526567Y14986419D01*
X33427069Y14923901D01*
X33411983Y14916636D01*
X33301074Y14877827D01*
X33284745Y14874100D01*
X33163785Y14860471D01*
X33155400Y14860000D01*
X31829140Y14860000D01*
X31829140Y10710000D01*
X39324607Y10710000D01*
X39398858Y10729667D01*
X39453638Y10783510D01*
X39474606Y10859999D01*
X39474606Y17140091D01*
X39475247Y17149865D01*
X39492063Y17277601D01*
X39497111Y17296436D01*
X39544529Y17410916D01*
X39554279Y17427802D01*
X39629711Y17526108D01*
X39643498Y17539895D01*
X39741804Y17615327D01*
X39758690Y17625077D01*
X39873170Y17672495D01*
X39892005Y17677543D01*
X40014861Y17693717D01*
X40034351Y17693717D01*
X40157207Y17677543D01*
X40176042Y17672495D01*
X40290522Y17625077D01*
X40307403Y17615330D01*
X40404278Y17540996D01*
X40495591Y17510000D01*
X47709607Y17510000D01*
X47783858Y17529667D01*
X47838638Y17583510D01*
X47859606Y17659999D01*
X47859606Y18454112D01*
X47860527Y18465817D01*
X47872442Y18541041D01*
X47879650Y18563227D01*
X47911541Y18625817D01*
X47925250Y18644685D01*
X47974921Y18694356D01*
X47993789Y18708065D01*
X48056379Y18739956D01*
X48078565Y18747164D01*
X48153789Y18759079D01*
X48165494Y18760000D01*
X51153718Y18760000D01*
X51165423Y18759079D01*
X51240647Y18747164D01*
X51262833Y18739956D01*
X51325423Y18708065D01*
X51344291Y18694356D01*
X51393962Y18644685D01*
X51407671Y18625817D01*
X51439562Y18563227D01*
X51446770Y18541041D01*
X51458685Y18465817D01*
X51459606Y18454112D01*
X51459606Y15465888D01*
X51458685Y15454183D01*
X51446770Y15378959D01*
X51439562Y15356773D01*
X51407671Y15294183D01*
X51393962Y15275315D01*
X51344291Y15225644D01*
X51325423Y15211935D01*
X51262833Y15180044D01*
X51240647Y15172836D01*
X51165423Y15160921D01*
X51153718Y15160000D01*
X48165494Y15160000D01*
X48153789Y15160921D01*
X48078565Y15172836D01*
X48056379Y15180044D01*
X47993789Y15211935D01*
X47974921Y15225644D01*
X47925250Y15275315D01*
X47911541Y15294183D01*
X47879650Y15356773D01*
X47872442Y15378959D01*
X47860527Y15454183D01*
X47859606Y15465888D01*
X47859606Y16260001D01*
X47839939Y16334252D01*
X47786096Y16389032D01*
X47709607Y16410000D01*
X40724605Y16410000D01*
X40650354Y16390333D01*
X40595574Y16336490D01*
X40574606Y16260001D01*
X40574606Y-15870091D01*
X40573965Y-15879865D01*
X40557149Y-16007601D01*
X40552101Y-16026436D01*
X40504683Y-16140916D01*
X40494933Y-16157802D01*
X40419501Y-16256108D01*
X40405714Y-16269895D01*
X40307408Y-16345327D01*
X40290522Y-16355077D01*
X40176042Y-16402495D01*
X40157207Y-16407543D01*
X40029471Y-16424359D01*
X40019697Y-16425000D01*
X29294605Y-16425000D01*
X29220354Y-16444667D01*
X29165574Y-16498510D01*
X29144606Y-16574999D01*
X29144606Y-22855091D01*
X29143965Y-22864865D01*
X29127149Y-22992601D01*
X29122101Y-23011436D01*
X29074683Y-23125916D01*
X29064933Y-23142802D01*
X28989501Y-23241108D01*
X28975714Y-23254895D01*
X28877408Y-23330327D01*
X28860522Y-23340077D01*
X28746042Y-23387495D01*
X28727207Y-23392543D01*
X28599471Y-23409359D01*
X28589697Y-23410000D01*
X-10135485Y-23410000D01*
X-10135485Y-26120000D01*
X30163812Y-26120000D01*
X30163812Y-24140000D01*
X30155427Y-24139529D01*
X30034467Y-24125900D01*
X30018138Y-24122173D01*
X29907229Y-24083364D01*
X29892143Y-24076099D01*
X29792645Y-24013581D01*
X29779554Y-24003141D01*
X29696465Y-23920052D01*
X29686025Y-23906961D01*
X29623507Y-23807463D01*
X29616242Y-23792377D01*
X29577433Y-23681468D01*
X29573706Y-23665139D01*
X29560077Y-23544179D01*
X29559606Y-23535794D01*
X29559606Y-22209534D01*
X29563603Y-22194443D01*
X29579135Y-22190185D01*
X29579135Y-21889995D01*
X29564044Y-21885998D01*
X29559606Y-21869808D01*
X29559606Y-20544206D01*
X29560077Y-20535821D01*
X29573706Y-20414861D01*
X29577433Y-20398532D01*
X29616242Y-20287623D01*
X29623507Y-20272537D01*
X29686025Y-20173039D01*
X29696465Y-20159948D01*
X29779554Y-20076859D01*
X29792645Y-20066419D01*
X29892143Y-20003901D01*
X29907229Y-19996636D01*
X30018138Y-19957827D01*
X30034467Y-19954100D01*
X30155427Y-19940471D01*
X30163812Y-19940000D01*
X31490072Y-19940000D01*
X31505163Y-19943997D01*
X31509601Y-19960187D01*
X31509601Y-20540000D01*
X30159606Y-20540000D01*
X30159606Y-21889995D01*
X29579135Y-21889995D01*
X29579135Y-22190185D01*
X29579793Y-22190005D01*
X30159606Y-22190005D01*
X30159606Y-23540000D01*
X31509601Y-23540000D01*
X31509601Y-24120471D01*
X31505604Y-24135562D01*
X31489414Y-24140000D01*
X30163812Y-24140000D01*
X30163812Y-26120000D01*
X31829140Y-26120000D01*
X31829140Y-24140000D01*
X31814049Y-24136003D01*
X31809611Y-24119813D01*
X31809611Y-23540000D01*
X33159606Y-23540000D01*
X33159606Y-22190005D01*
X33159606Y-21889995D01*
X33159606Y-20540000D01*
X31809611Y-20540000D01*
X31809611Y-19959529D01*
X31813608Y-19944438D01*
X31829798Y-19940000D01*
X33155400Y-19940000D01*
X33163785Y-19940471D01*
X33284745Y-19954100D01*
X33301074Y-19957827D01*
X33411983Y-19996636D01*
X33427069Y-20003901D01*
X33526567Y-20066419D01*
X33539658Y-20076859D01*
X33622747Y-20159948D01*
X33633187Y-20173039D01*
X33695705Y-20272537D01*
X33702970Y-20287623D01*
X33741779Y-20398532D01*
X33745506Y-20414861D01*
X33759135Y-20535821D01*
X33759606Y-20544206D01*
X33759606Y-21870466D01*
X33755609Y-21885557D01*
X33739419Y-21889995D01*
X33159606Y-21889995D01*
X33159606Y-22190005D01*
X33740077Y-22190005D01*
X33755168Y-22194002D01*
X33759606Y-22210192D01*
X33759606Y-23535794D01*
X33759135Y-23544179D01*
X33745506Y-23665139D01*
X33741779Y-23681468D01*
X33702970Y-23792377D01*
X33695705Y-23807463D01*
X33633187Y-23906961D01*
X33622747Y-23920052D01*
X33539658Y-24003141D01*
X33526567Y-24013581D01*
X33427069Y-24076099D01*
X33411983Y-24083364D01*
X33301074Y-24122173D01*
X33284745Y-24125900D01*
X33163785Y-24139529D01*
X33155400Y-24140000D01*
X31829140Y-24140000D01*
X31829140Y-26120000D01*
X34879607Y-26120000D01*
X34953858Y-26100333D01*
X35008638Y-26046490D01*
X35029606Y-25970001D01*
X35029606Y-24134909D01*
X35030247Y-24125135D01*
X35047063Y-23997399D01*
X35052111Y-23978564D01*
X35099529Y-23864084D01*
X35109279Y-23847198D01*
X35184711Y-23748892D01*
X35198498Y-23735105D01*
X35296804Y-23659673D01*
X35313690Y-23649923D01*
X35428170Y-23602505D01*
X35447005Y-23597457D01*
X35574741Y-23580641D01*
X35584515Y-23580000D01*
X47386761Y-23580000D01*
X47484063Y-23544159D01*
X47806909Y-23268981D01*
X47850661Y-23205848D01*
X47859606Y-23154823D01*
X47859606Y-20545888D01*
X47860527Y-20534183D01*
X47872442Y-20458959D01*
X47879650Y-20436773D01*
X47911541Y-20374183D01*
X47925250Y-20355315D01*
X47974921Y-20305644D01*
X47993789Y-20291935D01*
X48056379Y-20260044D01*
X48078565Y-20252836D01*
X48153789Y-20240921D01*
X48165494Y-20240000D01*
X50478785Y-20240000D01*
X50553036Y-20220333D01*
X50593103Y-20187114D01*
X52773925Y-17619925D01*
X52809606Y-17522812D01*
X52809606Y20665052D01*
X52789939Y20739303D01*
X52765672Y20771117D01*
X51905723Y21631066D01*
X51839314Y21669663D01*
X51799658Y21675000D01*
X31774524Y21675000D01*
X31759838Y21675963D01*
X31759800Y21675387D01*
X31756899Y21675473D01*
X31756935Y21676080D01*
X31727654Y21677803D01*
X31686886Y21685629D01*
X31678185Y21687036D01*
X31637005Y21692457D01*
X31612011Y21699155D01*
X31587459Y21707306D01*
X31550099Y21725420D01*
X31542060Y21729030D01*
X31503686Y21744925D01*
X31481303Y21757848D01*
X31459675Y21772091D01*
X31428279Y21799255D01*
X31421446Y21804824D01*
X31388497Y21830106D01*
X31367756Y21850847D01*
X31367324Y21850415D01*
X31365337Y21852523D01*
X31365743Y21852935D01*
X31355270Y21863268D01*
X26292187Y27559237D01*
X26286141Y27565648D01*
X24600723Y29251066D01*
X24534314Y29289663D01*
X24494658Y29295000D01*
X13419605Y29295000D01*
X13345354Y29275333D01*
X13290574Y29221490D01*
X13269606Y29145001D01*
X13269606Y28214999D01*
X13289273Y28140748D01*
X13343116Y28085968D01*
X13419605Y28065000D01*
X13507218Y28065000D01*
X13518923Y28064079D01*
X13594147Y28052164D01*
X13616333Y28044956D01*
X13678923Y28013065D01*
X13697791Y27999356D01*
X13747462Y27949685D01*
X13761171Y27930817D01*
X13793062Y27868227D01*
X13800270Y27846041D01*
X13812185Y27770817D01*
X13813106Y27759112D01*
X13813106Y25580888D01*
X13812185Y25569183D01*
X13800270Y25493959D01*
X13793062Y25471773D01*
X13761171Y25409183D01*
X13747462Y25390315D01*
X13697791Y25340644D01*
X13678923Y25326935D01*
X13616333Y25295044D01*
X13594147Y25287836D01*
X13518923Y25275921D01*
X13507218Y25275000D01*
X11931994Y25275000D01*
X11920289Y25275921D01*
X11845065Y25287836D01*
X11822879Y25295044D01*
X11760289Y25326935D01*
X11741421Y25340644D01*
X11691750Y25390315D01*
X11678041Y25409183D01*
X11646150Y25471773D01*
X11638942Y25493959D01*
X11627027Y25569183D01*
X11626106Y25580888D01*
X11626106Y27759112D01*
X11627027Y27770817D01*
X11638942Y27846041D01*
X11646150Y27868227D01*
X11678041Y27930817D01*
X11691750Y27949685D01*
X11741421Y27999356D01*
X11760289Y28013065D01*
X11822879Y28044956D01*
X11845065Y28052164D01*
X11920289Y28064079D01*
X11931994Y28065000D01*
X12019607Y28065000D01*
X12093858Y28084667D01*
X12148638Y28138510D01*
X12169606Y28214999D01*
X12169606Y29840091D01*
X12170247Y29849865D01*
X12187063Y29977601D01*
X12192111Y29996436D01*
X12239529Y30110916D01*
X12249279Y30127802D01*
X12324711Y30226108D01*
X12338498Y30239895D01*
X12436804Y30315327D01*
X12453690Y30325077D01*
X12568170Y30372495D01*
X12587005Y30377543D01*
X12714741Y30394359D01*
X12724515Y30395000D01*
X24779696Y30395000D01*
X24789475Y30394359D01*
X24917212Y30377543D01*
X24936039Y30372498D01*
X25050526Y30325075D01*
X25067406Y30315330D01*
X25109063Y30283365D01*
X25165383Y30240149D01*
X25171950Y30233509D01*
X25176724Y30230699D01*
X27075033Y28332390D01*
X27084743Y28321318D01*
X27085172Y28321695D01*
X27093871Y28312469D01*
X27093471Y28312063D01*
X27103942Y28301732D01*
X31971841Y22825345D01*
X32035870Y22782915D01*
X32083952Y22775000D01*
X40198625Y22775000D01*
X40198625Y24979736D01*
X40189229Y24980327D01*
X39899567Y25016920D01*
X39890330Y25018682D01*
X39607532Y25091291D01*
X39598575Y25094202D01*
X39327123Y25201678D01*
X39318603Y25205687D01*
X39062751Y25346343D01*
X39054810Y25351383D01*
X38818603Y25522997D01*
X38811346Y25529000D01*
X38598523Y25728855D01*
X38592074Y25735721D01*
X38405978Y25960673D01*
X38400431Y25968308D01*
X38244001Y26214802D01*
X38239461Y26223061D01*
X38115151Y26487231D01*
X38111684Y26495987D01*
X38021463Y26773659D01*
X38019122Y26782780D01*
X37964414Y27069569D01*
X37963235Y27078903D01*
X37944902Y27370295D01*
X37944902Y27379705D01*
X37963235Y27671097D01*
X37964414Y27680431D01*
X38019122Y27967220D01*
X38021463Y27976341D01*
X38111684Y28254013D01*
X38115151Y28262769D01*
X38239461Y28526939D01*
X38244001Y28535198D01*
X38400431Y28781692D01*
X38405978Y28789327D01*
X38592074Y29014279D01*
X38598523Y29021145D01*
X38811346Y29221000D01*
X38818603Y29227003D01*
X39054810Y29398617D01*
X39062751Y29403657D01*
X39318603Y29544313D01*
X39327123Y29548322D01*
X39598575Y29655798D01*
X39607532Y29658709D01*
X39890330Y29731318D01*
X39899567Y29733080D01*
X40189229Y29769673D01*
X40198625Y29770264D01*
X40490587Y29770264D01*
X40499983Y29769673D01*
X40789645Y29733080D01*
X40798882Y29731318D01*
X41081680Y29658709D01*
X41090637Y29655798D01*
X41362089Y29548322D01*
X41370609Y29544313D01*
X41626461Y29403657D01*
X41634402Y29398617D01*
X41870609Y29227003D01*
X41877866Y29221000D01*
X42090689Y29021145D01*
X42097138Y29014279D01*
X42283234Y28789327D01*
X42288781Y28781692D01*
X42445211Y28535198D01*
X42449751Y28526939D01*
X42574061Y28262769D01*
X42577528Y28254013D01*
X42667749Y27976341D01*
X42670090Y27967220D01*
X42724798Y27680431D01*
X42725977Y27671097D01*
X42744310Y27379705D01*
X42744310Y27370295D01*
X42725977Y27078903D01*
X42724798Y27069569D01*
X42670090Y26782780D01*
X42667749Y26773659D01*
X42577528Y26495987D01*
X42574061Y26487231D01*
X42449751Y26223061D01*
X42445211Y26214802D01*
X42288781Y25968308D01*
X42283234Y25960673D01*
X42097138Y25735721D01*
X42090689Y25728855D01*
X41877866Y25529000D01*
X41870609Y25522997D01*
X41634402Y25351383D01*
X41626461Y25346343D01*
X41370609Y25205687D01*
X41362089Y25201678D01*
X41090637Y25094202D01*
X41081680Y25091291D01*
X40798882Y25018682D01*
X40789645Y25016920D01*
X40499983Y24980327D01*
X40490587Y24979736D01*
X40198625Y24979736D01*
X40198625Y22775000D01*
X52084696Y22775000D01*
X52094475Y22774359D01*
X52222212Y22757543D01*
X52241039Y22752498D01*
X52355526Y22705075D01*
X52372406Y22695330D01*
X52414063Y22663365D01*
X52470383Y22620149D01*
X52476950Y22613509D01*
X52481724Y22610699D01*
X53745472Y21346951D01*
X53748111Y21342348D01*
X53754756Y21335776D01*
X53829933Y21237802D01*
X53839683Y21220916D01*
X53887101Y21106436D01*
X53892149Y21087601D01*
X53908965Y20959865D01*
X53909606Y20950091D01*
X53909606Y-17775091D01*
X53908966Y-17784863D01*
X53903923Y-17823163D01*
X53902825Y-17835291D01*
X53901149Y-17868975D01*
X53897248Y-17890341D01*
X53892723Y-17910459D01*
X53887104Y-17931431D01*
X53874205Y-17962571D01*
X53870006Y-17974000D01*
X53859668Y-18006108D01*
X53850387Y-18025700D01*
X53840796Y-18043987D01*
X53829933Y-18062804D01*
X53809411Y-18089549D01*
X53802399Y-18099498D01*
X53781441Y-18131958D01*
X53775593Y-18139832D01*
X51495287Y-20824130D01*
X51459606Y-20921243D01*
X51459606Y-23534112D01*
X51458685Y-23545817D01*
X51446770Y-23621041D01*
X51439562Y-23643227D01*
X51407671Y-23705817D01*
X51393962Y-23724685D01*
X51344291Y-23774356D01*
X51325423Y-23788065D01*
X51262833Y-23819956D01*
X51240647Y-23827164D01*
X51165423Y-23839079D01*
X51153718Y-23840000D01*
X48879542Y-23840000D01*
X48780435Y-23877404D01*
X48780051Y-23877742D01*
X48767787Y-23889857D01*
X48749667Y-23909941D01*
X48742651Y-23916762D01*
X48005119Y-24545396D01*
X47997260Y-24551252D01*
X47964363Y-24572569D01*
X47954617Y-24579449D01*
X47927404Y-24600330D01*
X47907403Y-24611878D01*
X47892397Y-24619764D01*
X47871538Y-24629687D01*
X47838908Y-24640253D01*
X47827716Y-24644376D01*
X47796043Y-24657495D01*
X47773698Y-24663482D01*
X47757211Y-24667204D01*
X47734475Y-24671395D01*
X47700242Y-24673154D01*
X47688360Y-24674240D01*
X47649483Y-24679359D01*
X47639697Y-24680000D01*
X36279605Y-24680000D01*
X36205354Y-24699667D01*
X36150574Y-24753510D01*
X36129606Y-24829999D01*
X36129606Y-26665091D01*
X36128965Y-26674865D01*
X36112149Y-26802601D01*
X36107101Y-26821436D01*
X36059683Y-26935916D01*
X36049933Y-26952802D01*
X35974501Y-27051108D01*
X35960714Y-27064895D01*
X35862408Y-27140327D01*
X35845522Y-27150077D01*
X35731042Y-27197495D01*
X35712207Y-27202543D01*
X35584471Y-27219359D01*
X35574697Y-27220000D01*
X-22835483Y-27220000D01*
X-22835483Y-34700000D01*
X40198625Y-34700000D01*
X40198625Y-33020264D01*
X40189229Y-33019673D01*
X39899567Y-32983080D01*
X39890330Y-32981318D01*
X39607532Y-32908709D01*
X39598575Y-32905798D01*
X39327123Y-32798322D01*
X39318603Y-32794313D01*
X39062751Y-32653657D01*
X39054810Y-32648617D01*
X38818603Y-32477003D01*
X38811346Y-32471000D01*
X38598523Y-32271145D01*
X38592074Y-32264279D01*
X38405978Y-32039327D01*
X38400431Y-32031692D01*
X38244001Y-31785198D01*
X38239461Y-31776939D01*
X38115151Y-31512769D01*
X38111684Y-31504013D01*
X38021463Y-31226341D01*
X38019122Y-31217220D01*
X37964414Y-30930431D01*
X37963235Y-30921097D01*
X37944902Y-30629705D01*
X37944902Y-30620295D01*
X37963235Y-30328903D01*
X37964414Y-30319569D01*
X38019122Y-30032780D01*
X38021463Y-30023659D01*
X38111684Y-29745987D01*
X38115151Y-29737231D01*
X38239461Y-29473061D01*
X38244001Y-29464802D01*
X38400431Y-29218308D01*
X38405978Y-29210673D01*
X38592074Y-28985721D01*
X38598523Y-28978855D01*
X38811346Y-28779000D01*
X38818603Y-28772997D01*
X39054810Y-28601383D01*
X39062751Y-28596343D01*
X39318603Y-28455687D01*
X39327123Y-28451678D01*
X39598575Y-28344202D01*
X39607532Y-28341291D01*
X39890330Y-28268682D01*
X39899567Y-28266920D01*
X40189229Y-28230327D01*
X40198625Y-28229736D01*
X40490587Y-28229736D01*
X40499983Y-28230327D01*
X40789645Y-28266920D01*
X40798882Y-28268682D01*
X41081680Y-28341291D01*
X41090637Y-28344202D01*
X41362089Y-28451678D01*
X41370609Y-28455687D01*
X41626461Y-28596343D01*
X41634402Y-28601383D01*
X41870609Y-28772997D01*
X41877866Y-28779000D01*
X42090689Y-28978855D01*
X42097138Y-28985721D01*
X42283234Y-29210673D01*
X42288781Y-29218308D01*
X42445211Y-29464802D01*
X42449751Y-29473061D01*
X42574061Y-29737231D01*
X42577528Y-29745987D01*
X42667749Y-30023659D01*
X42670090Y-30032780D01*
X42724798Y-30319569D01*
X42725977Y-30328903D01*
X42744310Y-30620295D01*
X42744310Y-30629705D01*
X42725977Y-30921097D01*
X42724798Y-30930431D01*
X42670090Y-31217220D01*
X42667749Y-31226341D01*
X42577528Y-31504013D01*
X42574061Y-31512769D01*
X42449751Y-31776939D01*
X42445211Y-31785198D01*
X42288781Y-32031692D01*
X42283234Y-32039327D01*
X42097138Y-32264279D01*
X42090689Y-32271145D01*
X41877866Y-32471000D01*
X41870609Y-32477003D01*
X41634402Y-32648617D01*
X41626461Y-32653657D01*
X41370609Y-32794313D01*
X41362089Y-32798322D01*
X41090637Y-32905798D01*
X41081680Y-32908709D01*
X40798882Y-32981318D01*
X40789645Y-32983080D01*
X40499983Y-33019673D01*
X40490587Y-33020264D01*
X40198625Y-33020264D01*
X40198625Y-34700000D01*
X60999607Y-34700000D01*
X61073858Y-34680333D01*
X61128638Y-34626490D01*
X61149606Y-34550001D01*
X61149606Y34550001D01*
X61129939Y34624252D01*
X61076096Y34679032D01*
X60999607Y34700000D01*
X-38100395Y34700000D01*
X-38174646Y34680333D01*
X-38229426Y34626490D01*
X-38250394Y34550001D01*
X-38250394Y-34550001D01*
G37*
G04 --- BOARD END --- *
G04 #@! TF.MD5,9a2cd4906eba9b555def0a5024b47be5*
M02*
